<?xml version="1.0" encoding="UTF-8" standalone="no"?>
<!-- Created with matplotlib (http://matplotlib.org/) -->

<svg
   xmlns:dc="http://purl.org/dc/elements/1.1/"
   xmlns:cc="http://creativecommons.org/ns#"
   xmlns:rdf="http://www.w3.org/1999/02/22-rdf-syntax-ns#"
   xmlns:svg="http://www.w3.org/2000/svg"
   xmlns="http://www.w3.org/2000/svg"
   xmlns:xlink="http://www.w3.org/1999/xlink"
   xmlns:sodipodi="http://sodipodi.sourceforge.net/DTD/sodipodi-0.dtd"
   xmlns:inkscape="http://www.inkscape.org/namespaces/inkscape"
   height="216pt"
   version="1.1"
   viewBox="0 0 504 216"
   width="504pt"
   id="svg437"
   sodipodi:docname="FigureS6.svg"
   inkscape:version="0.92.3 (2405546, 2018-03-11)">
  <metadata
     id="metadata441">
    <rdf:RDF>
      <cc:Work
         rdf:about="">
        <dc:format>image/svg+xml</dc:format>
        <dc:type
           rdf:resource="http://purl.org/dc/dcmitype/StillImage" />
        <dc:title></dc:title>
      </cc:Work>
    </rdf:RDF>
  </metadata>
  <sodipodi:namedview
     pagecolor="#ffffff"
     bordercolor="#666666"
     borderopacity="1"
     objecttolerance="10"
     gridtolerance="10"
     guidetolerance="10"
     inkscape:pageopacity="0"
     inkscape:pageshadow="2"
     inkscape:window-width="640"
     inkscape:window-height="480"
     id="namedview439"
     showgrid="false"
     inkscape:zoom="0.42261905"
     inkscape:cx="336"
     inkscape:cy="144"
     inkscape:window-x="0"
     inkscape:window-y="0"
     inkscape:window-maximized="0"
     inkscape:current-layer="svg437" />
  <defs
     id="defs4">
    <style
       type="text/css"
       id="style2">
*{stroke-linecap:butt;stroke-linejoin:round;}
  </style>
  </defs>
  <g
     id="figure_1">
    <g
       id="patch_1">
      <path
         d="M 0 216  L 504 216  L 504 0  L 0 0  z "
         style="fill:#fbfbfb;"
         id="path6" />
    </g>
    <g
       id="axes_1">
      <g
         id="patch_2">
        <path
           d="M 49.89 178.02775  L 493.2 178.02775  L 493.2 14.866875  L 49.89 14.866875  z "
           style="fill:#fbfbfb;"
           id="path9" />
      </g>
      <g
         id="matplotlib.axis_1">
        <g
           id="xtick_1">
          <g
             id="line2d_1" />
          <g
             id="text_1">
            <!-- Attention &gt; learning -->
            <defs
               id="defs25">
              <path
                 d="M 42.5 18.703125  L 13.703125 18.703125  L 7.703125 0  L 1.59375 0  L 24.5 68.5  L 32 68.5  L 54.796875 0  L 48.5 0  z M 40.90625 23.796875  L 28.203125 63.59375  L 15.296875 23.796875  z "
                 id="FiraSans-Light-41" />
              <path
                 d="M 34.40625 2.203125  Q 29.40625 -1.09375 23.40625 -1.09375  Q 17.40625 -1.09375 14 2.453125  Q 10.59375 6 10.59375 12.703125  L 10.59375 47.59375  L 1.796875 47.59375  L 1.796875 52.296875  L 10.59375 52.296875  L 10.59375 64.796875  L 16.40625 65.5  L 16.40625 52.296875  L 29.90625 52.296875  L 29.203125 47.59375  L 16.40625 47.59375  L 16.40625 13  Q 16.40625 8.40625 18.296875 6.15625  Q 20.203125 3.90625 24.09375 3.90625  Q 28.203125 3.90625 32.09375 6.296875  z "
                 id="FiraSans-Light-74" />
              <path
                 d="M 47.703125 28.09375  Q 47.703125 25.90625 47.5 23.90625  L 12.59375 23.90625  Q 13.09375 13.703125 17.4375 8.75  Q 21.796875 3.796875 28.90625 3.796875  Q 33 3.796875 36.140625 5.046875  Q 39.296875 6.296875 43 9  L 45.703125 5.296875  Q 41.796875 2.09375 37.6875 0.5  Q 33.59375 -1.09375 28.59375 -1.09375  Q 18.203125 -1.09375 12.296875 6  Q 6.40625 13.09375 6.40625 25.703125  Q 6.40625 34 8.953125 40.25  Q 11.5 46.5 16.25 49.953125  Q 21 53.40625 27.296875 53.40625  Q 37.296875 53.40625 42.5 46.65625  Q 47.703125 39.90625 47.703125 28.09375  z M 42 29.90625  Q 42 38.703125 38.34375 43.640625  Q 34.703125 48.59375 27.5 48.59375  Q 21.09375 48.59375 17.046875 43.59375  Q 13 38.59375 12.5 28.40625  L 42 28.40625  z "
                 id="FiraSans-Light-65" />
              <path
                 d="M 33.703125 53.40625  Q 40.796875 53.40625 44.546875 49.203125  Q 48.296875 45 48.296875 37.40625  L 48.296875 0  L 42.5 0  L 42.5 36.59375  Q 42.5 42.90625 40 45.796875  Q 37.5 48.703125 32.59375 48.703125  Q 27.59375 48.703125 23.75 45.953125  Q 19.90625 43.203125 16.40625 37.90625  L 16.40625 0  L 10.59375 0  L 10.59375 52.296875  L 15.59375 52.296875  L 16.09375 43.40625  Q 23.203125 53.40625 33.703125 53.40625  z "
                 id="FiraSans-Light-6e" />
              <path
                 d="M 16.40625 0  L 10.59375 0  L 10.59375 52.296875  L 16.40625 52.296875  z M 13.40625 75.296875  Q 15.40625 75.296875 16.59375 74.09375  Q 17.796875 72.90625 17.796875 71.09375  Q 17.796875 69.296875 16.59375 68.09375  Q 15.40625 66.90625 13.40625 66.90625  Q 11.5 66.90625 10.296875 68.09375  Q 9.109375 69.296875 9.109375 71.09375  Q 9.109375 72.90625 10.296875 74.09375  Q 11.5 75.296875 13.40625 75.296875  z "
                 id="FiraSans-Light-69" />
              <path
                 d="M 28.59375 53.40625  Q 39 53.40625 44.84375 46.25  Q 50.703125 39.09375 50.703125 26.296875  Q 50.703125 13.59375 44.75 6.25  Q 38.796875 -1.09375 28.5 -1.09375  Q 18.09375 -1.09375 12.25 6.15625  Q 6.40625 13.40625 6.40625 26.09375  Q 6.40625 34.40625 9.09375 40.59375  Q 11.796875 46.796875 16.796875 50.09375  Q 21.796875 53.40625 28.59375 53.40625  z M 28.59375 48.5  Q 21 48.5 16.796875 42.796875  Q 12.59375 37.09375 12.59375 26.09375  Q 12.59375 15.203125 16.75 9.5  Q 20.90625 3.796875 28.5 3.796875  Q 36.09375 3.796875 40.34375 9.5  Q 44.59375 15.203125 44.59375 26.296875  Q 44.59375 37.203125 40.4375 42.84375  Q 36.296875 48.5 28.59375 48.5  z "
                 id="FiraSans-Light-6f" />
              <path
                 id="FiraSans-Light-20" />
              <path
                 d="M 43.296875 36  L 43.296875 30.59375  L 8.5 13.5  L 6.40625 18.296875  L 38.09375 33.296875  L 6.40625 48  L 8.5 52.90625  z "
                 id="FiraSans-Light-3e" />
              <path
                 d="M 19.296875 -1.09375  Q 15 -1.09375 12.546875 1.40625  Q 10.09375 3.90625 10.09375 8.796875  L 10.09375 73.59375  L 15.90625 74.296875  L 15.90625 9  Q 15.90625 3.90625 20.09375 3.90625  Q 22.203125 3.90625 23.703125 4.59375  L 25.296875 0.296875  Q 22.5 -1.09375 19.296875 -1.09375  z "
                 id="FiraSans-Light-6c" />
              <path
                 d="M 43.09375 11.59375  Q 43.09375 7.5 44.140625 5.703125  Q 45.203125 3.90625 47.5 3  L 46.203125 -1.09375  Q 42.59375 -0.296875 40.640625 1.703125  Q 38.703125 3.703125 38.09375 7.59375  Q 32.40625 -1.09375 21.796875 -1.09375  Q 14.296875 -1.09375 9.9375 3.15625  Q 5.59375 7.40625 5.59375 14.5  Q 5.59375 22.59375 11.34375 27  Q 17.09375 31.40625 27.296875 31.40625  L 37.296875 31.40625  L 37.296875 36.5  Q 37.296875 42.796875 34.5 45.640625  Q 31.703125 48.5 25.203125 48.5  Q 19.203125 48.5 11 45.5  L 9.5 49.90625  Q 18.296875 53.40625 26 53.40625  Q 43.09375 53.40625 43.09375 36.796875  L 43.09375 11.59375  z M 22.796875 3.59375  Q 32.40625 3.59375 37.296875 13  L 37.296875 27.203125  L 28.203125 27.203125  Q 20.203125 27.203125 16 24.09375  Q 11.796875 21 11.796875 14.796875  Q 11.796875 9.40625 14.6875 6.5  Q 17.59375 3.59375 22.796875 3.59375  z "
                 id="FiraSans-Light-61" />
              <path
                 d="M 30.90625 53.40625  Q 34 53.40625 36.09375 52.796875  L 35 47.296875  Q 32.796875 47.90625 30.40625 47.90625  Q 25 47.90625 21.75 44  Q 18.5 40.09375 16.40625 31.796875  L 16.40625 0  L 10.59375 0  L 10.59375 52.296875  L 15.59375 52.296875  L 16.09375 40.59375  Q 18.203125 47.09375 21.84375 50.25  Q 25.5 53.40625 30.90625 53.40625  z "
                 id="FiraSans-Light-72" />
              <path
                 d="M 49.5 51.203125  Q 44.703125 49.90625 35 49.703125  Q 43.90625 45.5 43.90625 35.5  Q 43.90625 27.796875 38.796875 23.046875  Q 33.703125 18.296875 25 18.296875  Q 21.09375 18.296875 18.203125 19.296875  Q 16.296875 18.203125 15.25 16.640625  Q 14.203125 15.09375 14.203125 13.296875  Q 14.203125 7.90625 22.5 7.90625  L 31 7.90625  Q 38.703125 7.90625 43.25 4.15625  Q 47.796875 0.40625 47.796875 -5.5  Q 47.796875 -12.703125 42.09375 -16.59375  Q 36.40625 -20.5 25.09375 -20.5  Q 13.40625 -20.5 8.34375 -16.953125  Q 3.296875 -13.40625 3.296875 -5.5  L 8.703125 -5.5  Q 8.796875 -9.296875 10.296875 -11.5  Q 11.796875 -13.703125 15.296875 -14.703125  Q 18.796875 -15.703125 25.09375 -15.703125  Q 33.90625 -15.703125 37.90625 -13.140625  Q 41.90625 -10.59375 41.90625 -5.796875  Q 41.90625 -1.59375 38.796875 0.65625  Q 35.703125 2.90625 30.09375 2.90625  L 21.59375 2.90625  Q 15.40625 2.90625 12.046875 5.5  Q 8.703125 8.09375 8.703125 12.09375  Q 8.703125 14.703125 10.203125 17  Q 11.703125 19.296875 14.40625 21  Q 9.90625 23.296875 7.75 26.890625  Q 5.59375 30.5 5.59375 35.703125  Q 5.59375 43.59375 10.890625 48.5  Q 16.203125 53.40625 24.796875 53.40625  Q 34.296875 53.296875 38.640625 54.09375  Q 43 54.90625 47.703125 56.796875  z M 24.796875 48.90625  Q 18.296875 48.90625 14.9375 45.296875  Q 11.59375 41.703125 11.59375 35.703125  Q 11.59375 29.5 15.140625 26  Q 18.703125 22.5 24.796875 22.5  Q 31.203125 22.5 34.59375 25.953125  Q 38 29.40625 38 35.59375  Q 38 41.90625 34.640625 45.40625  Q 31.296875 48.90625 24.796875 48.90625  z "
                 id="FiraSans-Light-67" />
            </defs>
            <g
               style="fill:#262626;"
               transform="translate(68.152308 189.057437)scale(0.1 -0.1)"
               id="g67">
              <use
                 xlink:href="#FiraSans-Light-41"
                 id="use27" />
              <use
                 x="56.499985"
                 xlink:href="#FiraSans-Light-74"
                 id="use29" />
              <use
                 x="90.599976"
                 xlink:href="#FiraSans-Light-74"
                 id="use31" />
              <use
                 x="124.699966"
                 xlink:href="#FiraSans-Light-65"
                 id="use33" />
              <use
                 x="178.499954"
                 xlink:href="#FiraSans-Light-6e"
                 id="use35" />
              <use
                 x="236.899948"
                 xlink:href="#FiraSans-Light-74"
                 id="use37" />
              <use
                 x="270.999939"
                 xlink:href="#FiraSans-Light-69"
                 id="use39" />
              <use
                 x="297.999924"
                 xlink:href="#FiraSans-Light-6f"
                 id="use41" />
              <use
                 x="355.099915"
                 xlink:href="#FiraSans-Light-6e"
                 id="use43" />
              <use
                 x="413.499908"
                 xlink:href="#FiraSans-Light-20"
                 id="use45" />
              <use
                 x="441.399902"
                 xlink:href="#FiraSans-Light-3e"
                 id="use47" />
              <use
                 x="491.099899"
                 xlink:href="#FiraSans-Light-20"
                 id="use49" />
              <use
                 x="518.999893"
                 xlink:href="#FiraSans-Light-6c"
                 id="use51" />
              <use
                 x="547.399887"
                 xlink:href="#FiraSans-Light-65"
                 id="use53" />
              <use
                 x="601.199875"
                 xlink:href="#FiraSans-Light-61"
                 id="use55" />
              <use
                 x="654.799866"
                 xlink:href="#FiraSans-Light-72"
                 id="use57" />
              <use
                 x="692.099854"
                 xlink:href="#FiraSans-Light-6e"
                 id="use59" />
              <use
                 x="750.499847"
                 xlink:href="#FiraSans-Light-69"
                 id="use61" />
              <use
                 x="777.499832"
                 xlink:href="#FiraSans-Light-6e"
                 id="use63" />
              <use
                 x="835.899826"
                 xlink:href="#FiraSans-Light-67"
                 id="use65" />
            </g>
            <!-- $Continuous$ -->
            <defs
               id="defs76">
              <path
                 d="M 40.203125 69.296875  Q 45.5 69.296875 49.140625 67.796875  Q 52.796875 66.296875 56.09375 63.296875  L 54 60.90625  Q 50.796875 63.703125 47.75 64.84375  Q 44.703125 66 40.40625 66  Q 30.40625 66 23.84375 59.75  Q 17.296875 53.5 14.34375 44.296875  Q 11.40625 35.09375 11.40625 26  Q 11.40625 14.40625 16.65625 8.34375  Q 21.90625 2.296875 30.59375 2.296875  Q 35.796875 2.296875 39.390625 3.75  Q 43 5.203125 47 8.09375  L 48.90625 5.5  Q 40.703125 -1 30.5 -1  Q 20.203125 -1 14.046875 6  Q 7.90625 13 7.90625 26  Q 7.90625 36 11.25 45.953125  Q 14.59375 55.90625 21.84375 62.59375  Q 29.09375 69.296875 40.203125 69.296875  z "
                 id="FiraSans-UltraLightItalic-43" />
              <path
                 d="M 31.796875 53.09375  Q 40.296875 53.09375 45.046875 47.796875  Q 49.796875 42.5 49.796875 32.703125  Q 49.796875 25.203125 47.296875 17.453125  Q 44.796875 9.703125 39.140625 4.34375  Q 33.5 -1 24.5 -1  Q 15.90625 -1 11.15625 4.453125  Q 6.40625 9.90625 6.40625 19.796875  Q 6.40625 27.296875 8.953125 34.9375  Q 11.5 42.59375 17.203125 47.84375  Q 22.90625 53.09375 31.796875 53.09375  z M 31.703125 50.09375  Q 23.90625 50.09375 19 45.1875  Q 14.09375 40.296875 12 33.296875  Q 9.90625 26.296875 9.90625 19.59375  Q 9.90625 11.09375 13.703125 6.59375  Q 17.5 2.09375 24.5 2.09375  Q 32.203125 2.09375 37.09375 6.9375  Q 42 11.796875 44.140625 18.796875  Q 46.296875 25.796875 46.296875 32.59375  Q 46.296875 41.09375 42.546875 45.59375  Q 38.796875 50.09375 31.703125 50.09375  z "
                 id="FiraSans-UltraLightItalic-6f" />
              <path
                 d="M 37.09375 53.09375  Q 42.90625 53.09375 46 49.890625  Q 49.09375 46.703125 49.09375 40.703125  Q 49.09375 39 48.796875 36.90625  L 43.59375 0  L 40.203125 0  L 45.40625 36.703125  Q 45.703125 38.703125 45.703125 40.40625  Q 45.703125 50.09375 36.703125 50.09375  Q 25.40625 50.09375 15.5 31  L 11.09375 0  L 7.703125 0  L 15.09375 52  L 17.90625 52  L 16.203125 37.09375  Q 20.296875 44.703125 25.6875 48.890625  Q 31.09375 53.09375 37.09375 53.09375  z "
                 id="FiraSans-UltraLightItalic-6e" />
              <path
                 d="M 12.296875 12.09375  Q 12.09375 10.09375 12.09375 9.40625  Q 12.09375 2 19.40625 2  Q 23.59375 2 28.59375 4.703125  L 29.90625 2  Q 24.40625 -1 19 -1  Q 14.203125 -1 11.453125 1.640625  Q 8.703125 4.296875 8.703125 9.203125  Q 8.703125 10.09375 8.90625 11.90625  L 14.203125 49.09375  L 5.59375 49.09375  L 6 52  L 14.59375 52  L 17.203125 65  L 19.796875 65.296875  L 18 52  L 32.09375 52  L 31.203125 49.09375  L 17.5 49.09375  z "
                 id="FiraSans-UltraLightItalic-74" />
              <path
                 d="M 11.09375 0  L 7.703125 0  L 15.09375 52  L 18.5 52  z M 19.59375 73.40625  Q 20.796875 73.40625 21.5 72.703125  Q 22.203125 72 22.203125 70.90625  Q 22.203125 69.59375 21.390625 68.75  Q 20.59375 67.90625 19.203125 67.90625  Q 18 67.90625 17.296875 68.65625  Q 16.59375 69.40625 16.59375 70.5  Q 16.59375 71.703125 17.390625 72.546875  Q 18.203125 73.40625 19.59375 73.40625  z "
                 id="FiraSans-UltraLightItalic-69" />
              <path
                 d="M 42.59375 0  L 40 0  L 41.90625 15.90625  Q 38.5 8.296875 33.140625 3.640625  Q 27.796875 -1 21.203125 -1  Q 15.5 -1 12.296875 2.203125  Q 9.09375 5.40625 9.09375 11.296875  Q 9.09375 13.09375 9.40625 15  L 14.59375 52  L 18 52  L 12.796875 15  Q 12.5 13.203125 12.5 11.5  Q 12.5 2.09375 21.59375 2.09375  Q 27.796875 2.09375 33.09375 7.34375  Q 38.40625 12.59375 42.40625 21.59375  L 46.59375 52  L 50 52  z "
                 id="FiraSans-UltraLightItalic-75" />
              <path
                 d="M 25.796875 53.09375  Q 34.59375 53.09375 41 47.59375  L 38.90625 45.5  Q 35.90625 47.796875 32.84375 48.890625  Q 29.796875 50 25.796875 50  Q 19.59375 50 15.84375 47.25  Q 12.09375 44.5 12.09375 39.90625  Q 12.09375 36.09375 14.640625 33.640625  Q 17.203125 31.203125 24.09375 29.09375  Q 32 26.703125 35.34375 23.203125  Q 38.703125 19.703125 38.703125 14.203125  Q 38.703125 7.703125 33.84375 3.34375  Q 29 -1 19.40625 -1  Q 13.5 -1 9.296875 0.75  Q 5.09375 2.5 1.703125 5.703125  L 3.703125 7.796875  Q 7.203125 4.90625 10.75 3.5  Q 14.296875 2.09375 19.203125 2.09375  Q 26.40625 2.09375 30.796875 5.09375  Q 35.203125 8.09375 35.203125 14.09375  Q 35.203125 18.5 32.5 21.25  Q 29.796875 24 22.59375 26.296875  Q 14.703125 28.796875 11.640625 31.9375  Q 8.59375 35.09375 8.59375 39.796875  Q 8.59375 43.59375 10.796875 46.640625  Q 13 49.703125 16.953125 51.390625  Q 20.90625 53.09375 25.796875 53.09375  z "
                 id="FiraSans-UltraLightItalic-73" />
            </defs>
            <g
               style="fill:#262626;"
               transform="translate(87.262464 200.023063)scale(0.1 -0.1)"
               id="g98">
              <use
                 transform="translate(0 0.59375)"
                 xlink:href="#FiraSans-UltraLightItalic-43"
                 id="use78" />
              <use
                 transform="translate(54.199997 0.59375)"
                 xlink:href="#FiraSans-UltraLightItalic-6f"
                 id="use80" />
              <use
                 transform="translate(110.399994 0.59375)"
                 xlink:href="#FiraSans-UltraLightItalic-6e"
                 id="use82" />
              <use
                 transform="translate(168.599991 0.59375)"
                 xlink:href="#FiraSans-UltraLightItalic-74"
                 id="use84" />
              <use
                 transform="translate(201.299988 0.59375)"
                 xlink:href="#FiraSans-UltraLightItalic-69"
                 id="use86" />
              <use
                 transform="translate(227.399979 0.59375)"
                 xlink:href="#FiraSans-UltraLightItalic-6e"
                 id="use88" />
              <use
                 transform="translate(285.599976 0.59375)"
                 xlink:href="#FiraSans-UltraLightItalic-75"
                 id="use90" />
              <use
                 transform="translate(343.299973 0.59375)"
                 xlink:href="#FiraSans-UltraLightItalic-6f"
                 id="use92" />
              <use
                 transform="translate(399.499969 0.59375)"
                 xlink:href="#FiraSans-UltraLightItalic-75"
                 id="use94" />
              <use
                 transform="translate(457.199966 0.59375)"
                 xlink:href="#FiraSans-UltraLightItalic-73"
                 id="use96" />
            </g>
          </g>
        </g>
        <g
           id="xtick_2">
          <g
             id="line2d_2" />
          <g
             id="text_2">
            <!-- Attention &gt; learning -->
            <g
               style="fill:#262626;"
               transform="translate(174.207332 189.057437)scale(0.1 -0.1)"
               id="g143">
              <use
                 xlink:href="#FiraSans-Light-41"
                 id="use103" />
              <use
                 x="56.499985"
                 xlink:href="#FiraSans-Light-74"
                 id="use105" />
              <use
                 x="90.599976"
                 xlink:href="#FiraSans-Light-74"
                 id="use107" />
              <use
                 x="124.699966"
                 xlink:href="#FiraSans-Light-65"
                 id="use109" />
              <use
                 x="178.499954"
                 xlink:href="#FiraSans-Light-6e"
                 id="use111" />
              <use
                 x="236.899948"
                 xlink:href="#FiraSans-Light-74"
                 id="use113" />
              <use
                 x="270.999939"
                 xlink:href="#FiraSans-Light-69"
                 id="use115" />
              <use
                 x="297.999924"
                 xlink:href="#FiraSans-Light-6f"
                 id="use117" />
              <use
                 x="355.099915"
                 xlink:href="#FiraSans-Light-6e"
                 id="use119" />
              <use
                 x="413.499908"
                 xlink:href="#FiraSans-Light-20"
                 id="use121" />
              <use
                 x="441.399902"
                 xlink:href="#FiraSans-Light-3e"
                 id="use123" />
              <use
                 x="491.099899"
                 xlink:href="#FiraSans-Light-20"
                 id="use125" />
              <use
                 x="518.999893"
                 xlink:href="#FiraSans-Light-6c"
                 id="use127" />
              <use
                 x="547.399887"
                 xlink:href="#FiraSans-Light-65"
                 id="use129" />
              <use
                 x="601.199875"
                 xlink:href="#FiraSans-Light-61"
                 id="use131" />
              <use
                 x="654.799866"
                 xlink:href="#FiraSans-Light-72"
                 id="use133" />
              <use
                 x="692.099854"
                 xlink:href="#FiraSans-Light-6e"
                 id="use135" />
              <use
                 x="750.499847"
                 xlink:href="#FiraSans-Light-69"
                 id="use137" />
              <use
                 x="777.499832"
                 xlink:href="#FiraSans-Light-6e"
                 id="use139" />
              <use
                 x="835.899826"
                 xlink:href="#FiraSans-Light-67"
                 id="use141" />
            </g>
            <!-- $Binary$ -->
            <defs
               id="defs149">
              <path
                 d="M 38.09375 36.09375  Q 44.59375 35.5 48.4375 31.953125  Q 52.296875 28.40625 52.296875 21.59375  Q 52.296875 16.203125 49.890625 11.296875  Q 47.5 6.40625 41.796875 3.203125  Q 36.09375 0 26.703125 0  L 8.203125 0  L 17.796875 68.203125  L 33.296875 68.203125  Q 42.796875 68.203125 48.09375 64.453125  Q 53.40625 60.703125 53.40625 53.40625  Q 53.40625 46.40625 49.296875 41.75  Q 45.203125 37.09375 38.09375 36.09375  z M 17 37.5  L 32.296875 37.5  Q 41 37.5 45.453125 42.09375  Q 49.90625 46.703125 49.90625 53.296875  Q 49.90625 65 33.5 65  L 20.796875 65  z M 27.09375 3.203125  Q 38.796875 3.203125 43.75 8.640625  Q 48.703125 14.09375 48.703125 21.703125  Q 48.703125 28.09375 44.546875 31.296875  Q 40.40625 34.5 33 34.5  L 16.59375 34.5  L 12.203125 3.203125  L 27.09375 3.203125  z "
                 id="FiraSans-UltraLightItalic-42" />
              <path
                 d="M 32.40625 53.09375  Q 37.296875 53.09375 40.75 52  Q 44.203125 50.90625 48 48.796875  L 42.40625 11  Q 42.09375 8.59375 42.09375 7.09375  Q 42.09375 4.59375 42.890625 3.390625  Q 43.703125 2.203125 45.40625 1.5  L 44.40625 -1  Q 41.59375 -0.203125 40.25 1.546875  Q 38.90625 3.296875 38.90625 6.90625  Q 38.90625 8.203125 39 8.90625  Q 36 4.296875 31.796875 1.640625  Q 27.59375 -1 22.5 -1  Q 14.90625 -1 10.59375 4.34375  Q 6.296875 9.703125 6.296875 19.296875  Q 6.296875 27 9 34.796875  Q 11.703125 42.59375 17.59375 47.84375  Q 23.5 53.09375 32.40625 53.09375  z M 32.5 50.203125  Q 24.703125 50.203125 19.59375 45.34375  Q 14.5 40.5 12.140625 33.390625  Q 9.796875 26.296875 9.796875 19.40625  Q 9.796875 11 13.1875 6.546875  Q 16.59375 2.09375 22.796875 2.09375  Q 27.796875 2.09375 31.890625 5.140625  Q 36 8.203125 39.59375 14.09375  L 44.40625 47.203125  Q 39.40625 50.203125 32.5 50.203125  z "
                 id="FiraSans-UltraLightItalic-61" />
              <path
                 d="M 33.703125 53.09375  Q 36 53.09375 38.59375 52.40625  L 37.59375 49.40625  Q 36.09375 49.90625 33.59375 49.90625  Q 27.703125 49.90625 23.546875 45.25  Q 19.40625 40.59375 15.5 31.203125  L 11.09375 0  L 7.703125 0  L 15.09375 52  L 18 52  L 16.09375 38  Q 19.203125 45.296875 23.453125 49.1875  Q 27.703125 53.09375 33.703125 53.09375  z "
                 id="FiraSans-UltraLightItalic-72" />
              <path
                 d="M 21.5 -0.296875  Q 18.59375 -6.40625 15.796875 -10  Q 13 -13.59375 9.203125 -15.9375  Q 5.40625 -18.296875 -0.5 -19.796875  L -0.796875 -17  Q 4.59375 -15.5 7.796875 -13.453125  Q 11 -11.40625 13.203125 -8.40625  Q 15.40625 -5.40625 18.203125 0.09375  L 16.703125 0  L 5.59375 52  L 9.203125 52  L 19.40625 2.5  L 43 52  L 46.796875 52  z "
                 id="FiraSans-UltraLightItalic-79" />
            </defs>
            <g
               style="fill:#262626;"
               transform="translate(204.517488 200.023063)scale(0.1 -0.1)"
               id="g163">
              <use
                 transform="translate(0 0.59375)"
                 xlink:href="#FiraSans-UltraLightItalic-42"
                 id="use151" />
              <use
                 transform="translate(58.999985 0.59375)"
                 xlink:href="#FiraSans-UltraLightItalic-69"
                 id="use153" />
              <use
                 transform="translate(85.099976 0.59375)"
                 xlink:href="#FiraSans-UltraLightItalic-6e"
                 id="use155" />
              <use
                 transform="translate(143.299973 0.59375)"
                 xlink:href="#FiraSans-UltraLightItalic-61"
                 id="use157" />
              <use
                 transform="translate(198.499969 0.59375)"
                 xlink:href="#FiraSans-UltraLightItalic-72"
                 id="use159" />
              <use
                 transform="translate(234.899963 0.59375)"
                 xlink:href="#FiraSans-UltraLightItalic-79"
                 id="use161" />
            </g>
          </g>
        </g>
        <g
           id="xtick_3">
          <g
             id="line2d_3" />
          <g
             id="text_3">
            <!-- Attention &gt; value -->
            <defs
               id="defs170">
              <path
                 d="M 27.40625 0  L 20.203125 0  L 1.5 52.296875  L 7.90625 52.296875  L 23.796875 5.09375  L 39.296875 52.296875  L 45.5 52.296875  z "
                 id="FiraSans-Light-76" />
              <path
                 d="M 47.296875 0  L 42.296875 0  L 42 9.296875  Q 35.796875 -1.09375 24.90625 -1.09375  Q 17.796875 -1.09375 13.9375 3.046875  Q 10.09375 7.203125 10.09375 14.90625  L 10.09375 52.296875  L 15.90625 52.296875  L 15.90625 15.5  Q 15.90625 9.40625 18.453125 6.546875  Q 21 3.703125 26.203125 3.703125  Q 35.296875 3.703125 41.5 14.40625  L 41.5 52.296875  L 47.296875 52.296875  z "
                 id="FiraSans-Light-75" />
            </defs>
            <g
               style="fill:#262626;"
               transform="translate(286.587356 188.957437)scale(0.1 -0.1)"
               id="g206">
              <use
                 xlink:href="#FiraSans-Light-41"
                 id="use172" />
              <use
                 x="56.499985"
                 xlink:href="#FiraSans-Light-74"
                 id="use174" />
              <use
                 x="90.599976"
                 xlink:href="#FiraSans-Light-74"
                 id="use176" />
              <use
                 x="124.699966"
                 xlink:href="#FiraSans-Light-65"
                 id="use178" />
              <use
                 x="178.499954"
                 xlink:href="#FiraSans-Light-6e"
                 id="use180" />
              <use
                 x="236.899948"
                 xlink:href="#FiraSans-Light-74"
                 id="use182" />
              <use
                 x="270.999939"
                 xlink:href="#FiraSans-Light-69"
                 id="use184" />
              <use
                 x="297.999924"
                 xlink:href="#FiraSans-Light-6f"
                 id="use186" />
              <use
                 x="355.099915"
                 xlink:href="#FiraSans-Light-6e"
                 id="use188" />
              <use
                 x="413.499908"
                 xlink:href="#FiraSans-Light-20"
                 id="use190" />
              <use
                 x="441.399902"
                 xlink:href="#FiraSans-Light-3e"
                 id="use192" />
              <use
                 x="491.099899"
                 xlink:href="#FiraSans-Light-20"
                 id="use194" />
              <use
                 x="518.999893"
                 xlink:href="#FiraSans-Light-76"
                 id="use196" />
              <use
                 x="565.999878"
                 xlink:href="#FiraSans-Light-61"
                 id="use198" />
              <use
                 x="619.599869"
                 xlink:href="#FiraSans-Light-6c"
                 id="use200" />
              <use
                 x="647.999863"
                 xlink:href="#FiraSans-Light-75"
                 id="use202" />
              <use
                 x="705.899857"
                 xlink:href="#FiraSans-Light-65"
                 id="use204" />
            </g>
            <!-- $Continuous$ -->
            <g
               style="fill:#262626;"
               transform="translate(299.372512 199.923063)scale(0.1 -0.1)"
               id="g228">
              <use
                 transform="translate(0 0.59375)"
                 xlink:href="#FiraSans-UltraLightItalic-43"
                 id="use208" />
              <use
                 transform="translate(54.199997 0.59375)"
                 xlink:href="#FiraSans-UltraLightItalic-6f"
                 id="use210" />
              <use
                 transform="translate(110.399994 0.59375)"
                 xlink:href="#FiraSans-UltraLightItalic-6e"
                 id="use212" />
              <use
                 transform="translate(168.599991 0.59375)"
                 xlink:href="#FiraSans-UltraLightItalic-74"
                 id="use214" />
              <use
                 transform="translate(201.299988 0.59375)"
                 xlink:href="#FiraSans-UltraLightItalic-69"
                 id="use216" />
              <use
                 transform="translate(227.399979 0.59375)"
                 xlink:href="#FiraSans-UltraLightItalic-6e"
                 id="use218" />
              <use
                 transform="translate(285.599976 0.59375)"
                 xlink:href="#FiraSans-UltraLightItalic-75"
                 id="use220" />
              <use
                 transform="translate(343.299973 0.59375)"
                 xlink:href="#FiraSans-UltraLightItalic-6f"
                 id="use222" />
              <use
                 transform="translate(399.499969 0.59375)"
                 xlink:href="#FiraSans-UltraLightItalic-75"
                 id="use224" />
              <use
                 transform="translate(457.199966 0.59375)"
                 xlink:href="#FiraSans-UltraLightItalic-73"
                 id="use226" />
            </g>
          </g>
        </g>
        <g
           id="xtick_4">
          <g
             id="line2d_4" />
          <g
             id="text_4">
            <!-- Attention &gt; value -->
            <g
               style="fill:#262626;"
               transform="translate(392.64238 188.957437)scale(0.1 -0.1)"
               id="g267">
              <use
                 xlink:href="#FiraSans-Light-41"
                 id="use233" />
              <use
                 x="56.499985"
                 xlink:href="#FiraSans-Light-74"
                 id="use235" />
              <use
                 x="90.599976"
                 xlink:href="#FiraSans-Light-74"
                 id="use237" />
              <use
                 x="124.699966"
                 xlink:href="#FiraSans-Light-65"
                 id="use239" />
              <use
                 x="178.499954"
                 xlink:href="#FiraSans-Light-6e"
                 id="use241" />
              <use
                 x="236.899948"
                 xlink:href="#FiraSans-Light-74"
                 id="use243" />
              <use
                 x="270.999939"
                 xlink:href="#FiraSans-Light-69"
                 id="use245" />
              <use
                 x="297.999924"
                 xlink:href="#FiraSans-Light-6f"
                 id="use247" />
              <use
                 x="355.099915"
                 xlink:href="#FiraSans-Light-6e"
                 id="use249" />
              <use
                 x="413.499908"
                 xlink:href="#FiraSans-Light-20"
                 id="use251" />
              <use
                 x="441.399902"
                 xlink:href="#FiraSans-Light-3e"
                 id="use253" />
              <use
                 x="491.099899"
                 xlink:href="#FiraSans-Light-20"
                 id="use255" />
              <use
                 x="518.999893"
                 xlink:href="#FiraSans-Light-76"
                 id="use257" />
              <use
                 x="565.999878"
                 xlink:href="#FiraSans-Light-61"
                 id="use259" />
              <use
                 x="619.599869"
                 xlink:href="#FiraSans-Light-6c"
                 id="use261" />
              <use
                 x="647.999863"
                 xlink:href="#FiraSans-Light-75"
                 id="use263" />
              <use
                 x="705.899857"
                 xlink:href="#FiraSans-Light-65"
                 id="use265" />
            </g>
            <!-- $Binary$ -->
            <g
               style="fill:#262626;"
               transform="translate(416.627536 199.923063)scale(0.1 -0.1)"
               id="g281">
              <use
                 transform="translate(0 0.59375)"
                 xlink:href="#FiraSans-UltraLightItalic-42"
                 id="use269" />
              <use
                 transform="translate(58.999985 0.59375)"
                 xlink:href="#FiraSans-UltraLightItalic-69"
                 id="use271" />
              <use
                 transform="translate(85.099976 0.59375)"
                 xlink:href="#FiraSans-UltraLightItalic-6e"
                 id="use273" />
              <use
                 transform="translate(143.299973 0.59375)"
                 xlink:href="#FiraSans-UltraLightItalic-61"
                 id="use275" />
              <use
                 transform="translate(198.499969 0.59375)"
                 xlink:href="#FiraSans-UltraLightItalic-72"
                 id="use277" />
              <use
                 transform="translate(234.899963 0.59375)"
                 xlink:href="#FiraSans-UltraLightItalic-79"
                 id="use279" />
            </g>
          </g>
        </g>
      </g>
      <g
         id="matplotlib.axis_2">
        <g
           id="ytick_1">
          <g
             id="line2d_5" />
          <g
             id="text_5">
            <!-- −200 -->
            <defs
               id="defs290">
              <path
                 d="M 6.90625 35.703125  L 42.40625 35.703125  L 42.40625 30.59375  L 6.90625 30.59375  z "
                 id="FiraSans-Light-2212" />
              <path
                 d="M 22.5 67.59375  Q 30.90625 67.59375 35.84375 62.6875  Q 40.796875 57.796875 40.796875 50.09375  Q 40.796875 43.59375 38.09375 37.890625  Q 35.40625 32.203125 29.65625 25.390625  Q 23.90625 18.59375 11.09375 5.09375  L 42.59375 5.09375  L 41.796875 0  L 4.296875 0  L 4.296875 4.90625  Q 18 19.5 23.953125 26.546875  Q 29.90625 33.59375 32.34375 38.75  Q 34.796875 43.90625 34.796875 49.796875  Q 34.796875 55.703125 31.34375 59.203125  Q 27.90625 62.703125 22.203125 62.703125  Q 17.59375 62.703125 14.046875 60.796875  Q 10.5 58.90625 7.40625 55.09375  L 3.296875 58.09375  Q 7.296875 63 11.9375 65.296875  Q 16.59375 67.59375 22.5 67.59375  z "
                 id="FiraSans-Light-32" />
              <path
                 d="M 27.5 67.59375  Q 37.796875 67.59375 43.09375 58.84375  Q 48.40625 50.09375 48.40625 33.203125  Q 48.40625 16.40625 43.046875 7.65625  Q 37.703125 -1.09375 27.5 -1.09375  Q 17.203125 -1.09375 11.890625 7.65625  Q 6.59375 16.40625 6.59375 33.296875  Q 6.59375 50.203125 11.890625 58.890625  Q 17.203125 67.59375 27.5 67.59375  z M 27.5 62.796875  Q 12.59375 62.796875 12.59375 33.296875  Q 12.59375 3.703125 27.5 3.703125  Q 34.796875 3.703125 38.546875 10.890625  Q 42.296875 18.09375 42.296875 33.203125  Q 42.296875 48.296875 38.546875 55.546875  Q 34.796875 62.796875 27.5 62.796875  z "
                 id="FiraSans-Light-30" />
            </defs>
            <g
               style="fill:#262626;"
               transform="translate(25.669688 173.513619)scale(0.1 -0.1)"
               id="g300">
              <use
                 xlink:href="#FiraSans-Light-2212"
                 id="use292" />
              <use
                 x="49.299988"
                 xlink:href="#FiraSans-Light-32"
                 id="use294" />
              <use
                 x="97.199982"
                 xlink:href="#FiraSans-Light-30"
                 id="use296" />
              <use
                 x="152.199966"
                 xlink:href="#FiraSans-Light-30"
                 id="use298" />
            </g>
          </g>
        </g>
        <g
           id="ytick_2">
          <g
             id="line2d_6" />
          <g
             id="text_6">
            <!-- −150 -->
            <defs
               id="defs307">
              <path
                 d="M 29.203125 0  L 23.40625 0  L 23.40625 60.09375  L 7 49.90625  L 4.296875 54.203125  L 24.203125 66.5  L 29.203125 66.5  z "
                 id="FiraSans-Light-31" />
              <path
                 d="M 40.5 61.703125  L 13.5 61.703125  L 13.5 39  Q 19 42.09375 24.90625 42.09375  Q 33.5 42.09375 38.546875 36.546875  Q 43.59375 31 43.59375 21.40625  Q 43.59375 14.90625 40.9375 9.75  Q 38.296875 4.59375 33.4375 1.75  Q 28.59375 -1.09375 22.203125 -1.09375  Q 11.09375 -1.09375 3.40625 6.90625  L 7.09375 10.40625  Q 10.203125 7 13.796875 5.390625  Q 17.40625 3.796875 22.203125 3.796875  Q 29.296875 3.796875 33.390625 8.546875  Q 37.5 13.296875 37.5 21.5  Q 37.5 29.5 33.75 33.453125  Q 30 37.40625 23.59375 37.40625  Q 20.40625 37.40625 17.953125 36.65625  Q 15.5 35.90625 12.5 34.203125  L 7.90625 34.203125  L 7.90625 66.5  L 41.40625 66.5  z "
                 id="FiraSans-Light-35" />
            </defs>
            <g
               style="fill:#262626;"
               transform="translate(26.960313 134.780644)scale(0.1 -0.1)"
               id="g317">
              <use
                 xlink:href="#FiraSans-Light-2212"
                 id="use309" />
              <use
                 x="49.299988"
                 xlink:href="#FiraSans-Light-31"
                 id="use311" />
              <use
                 x="90.599976"
                 xlink:href="#FiraSans-Light-35"
                 id="use313" />
              <use
                 x="139.299973"
                 xlink:href="#FiraSans-Light-30"
                 id="use315" />
            </g>
          </g>
        </g>
        <g
           id="ytick_3">
          <g
             id="line2d_7" />
          <g
             id="text_7">
            <!-- −100 -->
            <g
               style="fill:#262626;"
               transform="translate(26.330625 96.047669)scale(0.1 -0.1)"
               id="g330">
              <use
                 xlink:href="#FiraSans-Light-2212"
                 id="use322" />
              <use
                 x="49.299988"
                 xlink:href="#FiraSans-Light-31"
                 id="use324" />
              <use
                 x="90.599976"
                 xlink:href="#FiraSans-Light-30"
                 id="use326" />
              <use
                 x="145.59996"
                 xlink:href="#FiraSans-Light-30"
                 id="use328" />
            </g>
          </g>
        </g>
        <g
           id="ytick_4">
          <g
             id="line2d_8" />
          <g
             id="text_8">
            <!-- −50 -->
            <g
               style="fill:#262626;"
               transform="translate(31.09 57.314694)scale(0.1 -0.1)"
               id="g341">
              <use
                 xlink:href="#FiraSans-Light-2212"
                 id="use335" />
              <use
                 x="49.299988"
                 xlink:href="#FiraSans-Light-35"
                 id="use337" />
              <use
                 x="97.999985"
                 xlink:href="#FiraSans-Light-30"
                 id="use339" />
            </g>
          </g>
        </g>
        <g
           id="ytick_5">
          <g
             id="line2d_9" />
          <g
             id="text_9">
            <!-- 0 -->
            <g
               style="fill:#262626;"
               transform="translate(40.89 18.581719)scale(0.1 -0.1)"
               id="g348">
              <use
                 xlink:href="#FiraSans-Light-30"
                 id="use346" />
            </g>
          </g>
        </g>
        <g
           id="text_10">
          <!-- $\delta$WAIC -->
          <defs
             id="defs356">
            <path
               d="M 34.703125 73.90625  Q 38.90625 73.90625 42.90625 72.453125  Q 46.90625 71 50 68.203125  L 47.796875 66.09375  Q 42 70.796875 34.59375 70.796875  Q 27.59375 70.796875 24.09375 67.84375  Q 20.59375 64.90625 20.59375 60.5  Q 20.59375 56.90625 23.25 54.40625  Q 25.90625 51.90625 32.40625 49.296875  Q 41.203125 45.796875 45.09375 41.046875  Q 49 36.296875 49 28.703125  Q 49 22.203125 46.640625 15.390625  Q 44.296875 8.59375 38.796875 3.796875  Q 33.296875 -1 24.5 -1  Q 15.90625 -1 11.046875 4.390625  Q 6.203125 9.796875 6.203125 19  Q 6.203125 29.203125 10.890625 36.703125  Q 15.59375 44.203125 26.796875 48.40625  Q 21.796875 50.90625 19.4375 53.703125  Q 17.09375 56.5 17.09375 60.5  Q 17.09375 64.09375 19.140625 67.140625  Q 21.203125 70.203125 25.140625 72.046875  Q 29.09375 73.90625 34.703125 73.90625  z M 29.90625 47.09375  Q 18.59375 42.796875 14.140625 35.75  Q 9.703125 28.703125 9.703125 18.90625  Q 9.703125 11.09375 13.59375 6.59375  Q 17.5 2.09375 24.59375 2.09375  Q 32.40625 2.09375 37.09375 6.546875  Q 41.796875 11 43.6875 17.09375  Q 45.59375 23.203125 45.59375 28.703125  Q 45.59375 35.5 42.046875 39.59375  Q 38.5 43.703125 29.90625 47.09375  z "
               id="FiraSans-UltraLightItalic-3b4" />
            <path
               d="M 62.90625 0  L 55.40625 0  L 40.40625 61.796875  L 25.40625 0  L 18.09375 0  L 3 68.5  L 9.09375 68.5  L 22.09375 5.5  L 37.09375 68.5  L 43.796875 68.5  L 59.09375 5.5  L 72.203125 68.5  L 77.90625 68.5  z "
               id="FiraSans-Light-57" />
            <path
               d="M 17.09375 0  L 11.09375 0  L 11.09375 68.5  L 17.09375 68.5  z "
               id="FiraSans-Light-49" />
            <path
               d="M 34.296875 69.59375  Q 40 69.59375 43.953125 68.046875  Q 47.90625 66.5 51.90625 63.296875  L 48.703125 59.296875  Q 45.203125 62.09375 42 63.296875  Q 38.796875 64.5 34.703125 64.5  Q 25 64.5 18.953125 57.09375  Q 12.90625 49.703125 12.90625 34.296875  Q 12.90625 24.296875 15.703125 17.5  Q 18.5 10.703125 23.34375 7.453125  Q 28.203125 4.203125 34.40625 4.203125  Q 39.203125 4.203125 42.546875 5.640625  Q 45.90625 7.09375 49.5 10  L 52.703125 6  Q 45.40625 -1.09375 34.203125 -1.09375  Q 26.203125 -1.09375 19.953125 3  Q 13.703125 7.09375 10.140625 15.046875  Q 6.59375 23 6.59375 34.296875  Q 6.59375 45.59375 10.296875 53.546875  Q 14 61.5 20.25 65.546875  Q 26.5 69.59375 34.296875 69.59375  z "
               id="FiraSans-Light-43" />
          </defs>
          <g
             style="fill:#262626;"
             transform="translate(19.619688 110.297313)rotate(-90)scale(0.1 -0.1)"
             id="g368">
            <use
               transform="translate(0 0.09375)"
               xlink:href="#FiraSans-UltraLightItalic-3b4"
               id="use358" />
            <use
               transform="translate(55.899994 0.09375)"
               xlink:href="#FiraSans-Light-57"
               id="use360" />
            <use
               transform="translate(136.899979 0.09375)"
               xlink:href="#FiraSans-Light-41"
               id="use362" />
            <use
               transform="translate(193.399963 0.09375)"
               xlink:href="#FiraSans-Light-49"
               id="use364" />
            <use
               transform="translate(221.59996 0.09375)"
               xlink:href="#FiraSans-Light-43"
               id="use366" />
          </g>
        </g>
      </g>
      <g
         id="patch_3">
        <path
           clip-path="url(#p628096e671)"
           d="M 70.040455 14.866875  L 154.884474 14.866875  L 154.884474 33.789886  L 70.040455 33.789886  z "
           style="fill:#267fd3;"
           id="path372" />
      </g>
      <g
         id="patch_4">
        <path
           clip-path="url(#p628096e671)"
           d="M 176.095478 14.866875  L 260.939498 14.866875  L 260.939498 69.500266  L 176.095478 69.500266  z "
           style="fill:#267fd3;"
           id="path375" />
      </g>
      <g
         id="patch_5">
        <path
           clip-path="url(#p628096e671)"
           d="M 282.150502 14.866875  L 366.994522 14.866875  L 366.994522 154.787965  L 282.150502 154.787965  z "
           style="fill:#e88300;"
           id="path378" />
      </g>
      <g
         id="patch_6">
        <path
           clip-path="url(#p628096e671)"
           d="M 388.205526 14.866875  L 473.049545 14.866875  L 473.049545 90.359013  L 388.205526 90.359013  z "
           style="fill:#267fd3;"
           id="path381" />
      </g>
      <g
         id="patch_7">
        <path
           d="M 49.89 178.02775  L 49.89 14.866875  "
           style="fill:none;stroke:#262626;stroke-linecap:square;stroke-linejoin:miter;stroke-width:1.25;"
           id="path384" />
      </g>
      <g
         id="patch_8">
        <path
           d="M 493.2 178.02775  L 493.2 14.866875  "
           style="fill:none;stroke:#262626;stroke-linecap:square;stroke-linejoin:miter;stroke-width:1.25;"
           id="path387" />
      </g>
      <g
         id="patch_9">
        <path
           d="M 49.89 178.02775  L 493.2 178.02775  "
           style="fill:none;stroke:#262626;stroke-linecap:square;stroke-linejoin:miter;stroke-width:1.25;"
           id="path390" />
      </g>
      <g
         id="patch_10">
        <path
           d="M 49.89 14.866875  L 493.2 14.866875  "
           style="fill:none;stroke:#262626;stroke-linecap:square;stroke-linejoin:miter;stroke-width:1.25;"
           id="path393" />
      </g>
      <g
         id="text_11">
        <!-- 6A -->
        <defs
           id="defs397">
          <path
             d="M 29.59375 43.296875  Q 37.296875 43.296875 42.296875 37.9375  Q 47.296875 32.59375 47.296875 22.40625  Q 47.296875 15.296875 44.75 9.9375  Q 42.203125 4.59375 37.75 1.75  Q 33.296875 -1.09375 27.703125 -1.09375  Q 16.703125 -1.09375 11.640625 7.34375  Q 6.59375 15.796875 6.59375 30  Q 6.59375 41.5 9.5 50  Q 12.40625 58.5 17.796875 63.046875  Q 23.203125 67.59375 30.59375 67.59375  Q 37.296875 67.59375 43 63.703125  L 40.5 59.703125  Q 35.703125 62.796875 30.5 62.796875  Q 22.296875 62.796875 17.546875 54.6875  Q 12.796875 46.59375 12.5 33.40625  Q 19.203125 43.296875 29.59375 43.296875  z M 27.703125 3.703125  Q 34.296875 3.703125 37.84375 8.75  Q 41.40625 13.796875 41.40625 22.203125  Q 41.40625 30.5 37.953125 34.5  Q 34.5 38.5 28.796875 38.5  Q 23.796875 38.5 19.640625 35.546875  Q 15.5 32.59375 12.5 27.5  Q 12.796875 15.90625 16.390625 9.796875  Q 20 3.703125 27.703125 3.703125  z "
             id="FiraSans-Light-36" />
        </defs>
        <g
           transform="translate(85.235902 137.009614)scale(0.5 -0.5)"
           id="g403">
          <use
             xlink:href="#FiraSans-Light-36"
             id="use399" />
          <use
             x="52.399994"
             xlink:href="#FiraSans-Light-41"
             id="use401" />
        </g>
      </g>
      <g
         id="text_12">
        <!-- 6A -->
        <g
           transform="translate(191.290926 137.009614)scale(0.5 -0.5)"
           id="g410">
          <use
             xlink:href="#FiraSans-Light-36"
             id="use406" />
          <use
             x="52.399994"
             xlink:href="#FiraSans-Light-41"
             id="use408" />
        </g>
      </g>
      <g
         id="text_13">
        <!-- 6B -->
        <defs
           id="defs414">
          <path
             d="M 38.59375 36.296875  Q 45.59375 35.5 50 31.34375  Q 54.40625 27.203125 54.40625 19  Q 54.40625 9.40625 47.90625 4.703125  Q 41.40625 0 29.796875 0  L 11.09375 0  L 11.09375 68.5  L 26.40625 68.5  Q 38.296875 68.5 44.75 64.203125  Q 51.203125 59.90625 51.203125 51.40625  Q 51.203125 45.09375 47.75 41.1875  Q 44.296875 37.296875 38.59375 36.296875  z M 17.09375 63.5  L 17.09375 38.40625  L 30.90625 38.40625  Q 37.296875 38.40625 41.1875 41.75  Q 45.09375 45.09375 45.09375 51  Q 45.09375 57.703125 40.546875 60.59375  Q 36 63.5 27 63.5  z M 29.796875 5  Q 48.203125 5 48.203125 19  Q 48.203125 26.40625 43.640625 30  Q 39.09375 33.59375 31.59375 33.59375  L 17.09375 33.59375  L 17.09375 5  L 29.796875 5  z "
             id="FiraSans-Light-42" />
        </defs>
        <g
           style="fill:#ffffff;"
           transform="translate(296.521731 137.009614)scale(0.5 -0.5)"
           id="g420">
          <use
             xlink:href="#FiraSans-Light-36"
             id="use416" />
          <use
             x="52.399994"
             xlink:href="#FiraSans-Light-42"
             id="use418" />
        </g>
      </g>
      <g
         id="text_14">
        <!-- 6B -->
        <g
           transform="translate(402.576755 137.009614)scale(0.5 -0.5)"
           id="g427">
          <use
             xlink:href="#FiraSans-Light-36"
             id="use423" />
          <use
             x="52.399994"
             xlink:href="#FiraSans-Light-42"
             id="use425" />
        </g>
      </g>
    </g>
  </g>
  <defs
     id="defs435">
    <clipPath
       id="p628096e671">
      <rect
         height="163.160875"
         width="443.31"
         x="49.89"
         y="14.866875"
         id="rect432" />
    </clipPath>
  </defs>
</svg>
