<?xml version="1.0" encoding="utf-8" standalone="no"?>
<!DOCTYPE svg PUBLIC "-//W3C//DTD SVG 1.1//EN"
  "http://www.w3.org/Graphics/SVG/1.1/DTD/svg11.dtd">
<!-- Created with matplotlib (http://matplotlib.org/) -->
<svg height="216pt" version="1.1" viewBox="0 0 288 216" width="288pt" xmlns="http://www.w3.org/2000/svg" xmlns:xlink="http://www.w3.org/1999/xlink">
 <defs>
  <style type="text/css">
*{stroke-linecap:butt;stroke-linejoin:round;}
  </style>
 </defs>
 <g id="figure_1">
  <g id="patch_1">
   <path d="M 0 216 
L 288 216 
L 288 0 
L 0 0 
z
" style="fill:#fbfbfb;"/>
  </g>
  <g id="axes_1">
   <g id="patch_2">
    <path d="M 42.939556 177.27 
L 276.1663 177.27 
L 276.1663 10.8 
L 42.939556 10.8 
z
" style="fill:#fbfbfb;"/>
   </g>
   <g id="matplotlib.axis_1">
    <g id="xtick_1">
     <g id="line2d_1"/>
     <g id="text_1">
      <!-- 0.0 -->
      <defs>
       <path d="M 27.5 67.59375 
Q 37.796875 67.59375 43.09375 58.84375 
Q 48.40625 50.09375 48.40625 33.203125 
Q 48.40625 16.40625 43.046875 7.65625 
Q 37.703125 -1.09375 27.5 -1.09375 
Q 17.203125 -1.09375 11.890625 7.65625 
Q 6.59375 16.40625 6.59375 33.296875 
Q 6.59375 50.203125 11.890625 58.890625 
Q 17.203125 67.59375 27.5 67.59375 
z
M 27.5 62.796875 
Q 12.59375 62.796875 12.59375 33.296875 
Q 12.59375 3.703125 27.5 3.703125 
Q 34.796875 3.703125 38.546875 10.890625 
Q 42.296875 18.09375 42.296875 33.203125 
Q 42.296875 48.296875 38.546875 55.546875 
Q 34.796875 62.796875 27.5 62.796875 
z
" id="FiraSans-Light-30"/>
       <path d="M 10.296875 8.40625 
Q 12.40625 8.40625 13.75 7.046875 
Q 15.09375 5.703125 15.09375 3.703125 
Q 15.09375 1.59375 13.75 0.25 
Q 12.40625 -1.09375 10.296875 -1.09375 
Q 8.296875 -1.09375 6.890625 0.296875 
Q 5.5 1.703125 5.5 3.703125 
Q 5.5 5.703125 6.890625 7.046875 
Q 8.296875 8.40625 10.296875 8.40625 
z
" id="FiraSans-Light-2e"/>
      </defs>
      <g style="fill:#262626;" transform="translate(49.912343 188.199687)scale(0.1 -0.1)">
       <use xlink:href="#FiraSans-Light-30"/>
       <use x="54.999985" xlink:href="#FiraSans-Light-2e"/>
       <use x="75.699982" xlink:href="#FiraSans-Light-30"/>
      </g>
     </g>
    </g>
    <g id="xtick_2">
     <g id="line2d_2"/>
     <g id="text_2">
      <!-- 0.2 -->
      <defs>
       <path d="M 22.5 67.59375 
Q 30.90625 67.59375 35.84375 62.6875 
Q 40.796875 57.796875 40.796875 50.09375 
Q 40.796875 43.59375 38.09375 37.890625 
Q 35.40625 32.203125 29.65625 25.390625 
Q 23.90625 18.59375 11.09375 5.09375 
L 42.59375 5.09375 
L 41.796875 0 
L 4.296875 0 
L 4.296875 4.90625 
Q 18 19.5 23.953125 26.546875 
Q 29.90625 33.59375 32.34375 38.75 
Q 34.796875 43.90625 34.796875 49.796875 
Q 34.796875 55.703125 31.34375 59.203125 
Q 27.90625 62.703125 22.203125 62.703125 
Q 17.59375 62.703125 14.046875 60.796875 
Q 10.5 58.90625 7.40625 55.09375 
L 3.296875 58.09375 
Q 7.296875 63 11.9375 65.296875 
Q 16.59375 67.59375 22.5 67.59375 
z
" id="FiraSans-Light-32"/>
      </defs>
      <g style="fill:#262626;" transform="translate(93.204259 188.199687)scale(0.1 -0.1)">
       <use xlink:href="#FiraSans-Light-30"/>
       <use x="54.999985" xlink:href="#FiraSans-Light-2e"/>
       <use x="75.699982" xlink:href="#FiraSans-Light-32"/>
      </g>
     </g>
    </g>
    <g id="xtick_3">
     <g id="line2d_3"/>
     <g id="text_3">
      <!-- 0.4 -->
      <defs>
       <path d="M 48.296875 17.5 
L 39.296875 17.5 
L 39.296875 0 
L 33.59375 0 
L 33.59375 17.5 
L 4.5 17.5 
L 4.5 21.796875 
L 24.796875 67.59375 
L 29.703125 65.59375 
L 10.703125 22.296875 
L 33.703125 22.296875 
L 34.296875 41.796875 
L 39.296875 41.796875 
L 39.296875 22.296875 
L 48.296875 22.296875 
z
" id="FiraSans-Light-34"/>
      </defs>
      <g style="fill:#262626;" transform="translate(135.946955 188.199687)scale(0.1 -0.1)">
       <use xlink:href="#FiraSans-Light-30"/>
       <use x="54.999985" xlink:href="#FiraSans-Light-2e"/>
       <use x="75.699982" xlink:href="#FiraSans-Light-34"/>
      </g>
     </g>
    </g>
    <g id="xtick_4">
     <g id="line2d_4"/>
     <g id="text_4">
      <!-- 0.6 -->
      <defs>
       <path d="M 29.59375 43.296875 
Q 37.296875 43.296875 42.296875 37.9375 
Q 47.296875 32.59375 47.296875 22.40625 
Q 47.296875 15.296875 44.75 9.9375 
Q 42.203125 4.59375 37.75 1.75 
Q 33.296875 -1.09375 27.703125 -1.09375 
Q 16.703125 -1.09375 11.640625 7.34375 
Q 6.59375 15.796875 6.59375 30 
Q 6.59375 41.5 9.5 50 
Q 12.40625 58.5 17.796875 63.046875 
Q 23.203125 67.59375 30.59375 67.59375 
Q 37.296875 67.59375 43 63.703125 
L 40.5 59.703125 
Q 35.703125 62.796875 30.5 62.796875 
Q 22.296875 62.796875 17.546875 54.6875 
Q 12.796875 46.59375 12.5 33.40625 
Q 19.203125 43.296875 29.59375 43.296875 
z
M 27.703125 3.703125 
Q 34.296875 3.703125 37.84375 8.75 
Q 41.40625 13.796875 41.40625 22.203125 
Q 41.40625 30.5 37.953125 34.5 
Q 34.5 38.5 28.796875 38.5 
Q 23.796875 38.5 19.640625 35.546875 
Q 15.5 32.59375 12.5 27.5 
Q 12.796875 15.90625 16.390625 9.796875 
Q 20 3.703125 27.703125 3.703125 
z
" id="FiraSans-Light-36"/>
      </defs>
      <g style="fill:#262626;" transform="translate(178.853714 188.199687)scale(0.1 -0.1)">
       <use xlink:href="#FiraSans-Light-30"/>
       <use x="54.999985" xlink:href="#FiraSans-Light-2e"/>
       <use x="75.699982" xlink:href="#FiraSans-Light-36"/>
      </g>
     </g>
    </g>
    <g id="xtick_5">
     <g id="line2d_5"/>
     <g id="text_5">
      <!-- 0.8 -->
      <defs>
       <path d="M 33.59375 35.296875 
Q 41.296875 32.09375 44.890625 27.9375 
Q 48.5 23.796875 48.5 17.296875 
Q 48.5 11.796875 45.75 7.640625 
Q 43 3.5 38.046875 1.203125 
Q 33.09375 -1.09375 26.703125 -1.09375 
Q 20.296875 -1.09375 15.4375 1.203125 
Q 10.59375 3.5 7.9375 7.640625 
Q 5.296875 11.796875 5.296875 17.203125 
Q 5.296875 30.09375 19.59375 35.59375 
Q 13.59375 38.296875 10.890625 41.890625 
Q 8.203125 45.5 8.203125 51 
Q 8.203125 56.09375 10.796875 59.890625 
Q 13.40625 63.703125 17.703125 65.640625 
Q 22 67.59375 26.90625 67.59375 
Q 31.796875 67.59375 36.09375 65.6875 
Q 40.40625 63.796875 43.046875 60.09375 
Q 45.703125 56.40625 45.703125 51.09375 
Q 45.703125 45.90625 42.796875 42.15625 
Q 39.90625 38.40625 33.59375 35.296875 
z
M 14 50.90625 
Q 14 46.09375 16.75 43.296875 
Q 19.5 40.5 26.296875 38 
L 29.40625 36.90625 
Q 34.90625 39.796875 37.40625 43.046875 
Q 39.90625 46.296875 39.90625 50.90625 
Q 39.90625 56.59375 36.34375 59.796875 
Q 32.796875 63 26.90625 63 
Q 21.203125 63 17.59375 59.796875 
Q 14 56.59375 14 50.90625 
z
M 26.796875 3.796875 
Q 33.90625 3.796875 38.15625 7.34375 
Q 42.40625 10.90625 42.40625 17.296875 
Q 42.40625 21.296875 40.90625 23.9375 
Q 39.40625 26.59375 36.296875 28.546875 
Q 33.203125 30.5 27.59375 32.59375 
L 24.203125 33.90625 
Q 17.5 31.296875 14.453125 27.296875 
Q 11.40625 23.296875 11.40625 17.203125 
Q 11.40625 10.796875 15.59375 7.296875 
Q 19.796875 3.796875 26.796875 3.796875 
z
" id="FiraSans-Light-38"/>
      </defs>
      <g style="fill:#262626;" transform="translate(221.721411 188.199687)scale(0.1 -0.1)">
       <use xlink:href="#FiraSans-Light-30"/>
       <use x="54.999985" xlink:href="#FiraSans-Light-2e"/>
       <use x="75.699982" xlink:href="#FiraSans-Light-38"/>
      </g>
     </g>
    </g>
    <g id="xtick_6">
     <g id="line2d_6"/>
     <g id="text_6">
      <!-- 1.0 -->
      <defs>
       <path d="M 29.203125 0 
L 23.40625 0 
L 23.40625 60.09375 
L 7 49.90625 
L 4.296875 54.203125 
L 24.203125 66.5 
L 29.203125 66.5 
z
" id="FiraSans-Light-31"/>
      </defs>
      <g style="fill:#262626;" transform="translate(265.283639 188.199687)scale(0.1 -0.1)">
       <use xlink:href="#FiraSans-Light-31"/>
       <use x="41.299988" xlink:href="#FiraSans-Light-2e"/>
       <use x="61.999985" xlink:href="#FiraSans-Light-30"/>
      </g>
     </g>
    </g>
    <g id="text_7">
     <!-- ESTIMATED VALUE -->
     <defs>
      <path d="M 45.203125 63.5 
L 17.09375 63.5 
L 17.09375 38 
L 41.40625 38 
L 41.40625 33 
L 17.09375 33 
L 17.09375 5 
L 46.59375 5 
L 46.59375 0 
L 11.09375 0 
L 11.09375 68.5 
L 45.90625 68.5 
z
" id="FiraSans-Light-45"/>
      <path d="M 26.703125 69.59375 
Q 33 69.59375 37.546875 67.75 
Q 42.09375 65.90625 46.40625 62 
L 42.90625 58.203125 
Q 39 61.5 35.296875 63 
Q 31.59375 64.5 26.90625 64.5 
Q 20.5 64.5 16.59375 61.34375 
Q 12.703125 58.203125 12.703125 52.90625 
Q 12.703125 49.296875 14.140625 46.9375 
Q 15.59375 44.59375 19 42.75 
Q 22.40625 40.90625 28.703125 39 
Q 35.5 36.90625 39.703125 34.5 
Q 43.90625 32.09375 46.203125 28.296875 
Q 48.5 24.5 48.5 18.703125 
Q 48.5 12.90625 45.703125 8.40625 
Q 42.90625 3.90625 37.75 1.40625 
Q 32.59375 -1.09375 25.796875 -1.09375 
Q 13 -1.09375 3.90625 7.5 
L 7.40625 11.296875 
Q 11.5 7.703125 15.796875 5.84375 
Q 20.09375 4 25.703125 4 
Q 33.09375 4 37.75 7.890625 
Q 42.40625 11.796875 42.40625 18.5 
Q 42.40625 22.703125 40.84375 25.390625 
Q 39.296875 28.09375 35.84375 30.046875 
Q 32.40625 32 26.09375 34 
Q 15.59375 37.203125 11.09375 41.390625 
Q 6.59375 45.59375 6.59375 52.796875 
Q 6.59375 57.59375 9.140625 61.4375 
Q 11.703125 65.296875 16.25 67.4375 
Q 20.796875 69.59375 26.703125 69.59375 
z
" id="FiraSans-Light-53"/>
      <path d="M 47.796875 63.203125 
L 27.703125 63.203125 
L 27.703125 0 
L 21.796875 0 
L 21.796875 63.203125 
L 1.5 63.203125 
L 1.5 68.5 
L 48.5 68.5 
z
" id="FiraSans-Light-54"/>
      <path d="M 17.09375 0 
L 11.09375 0 
L 11.09375 68.5 
L 17.09375 68.5 
z
" id="FiraSans-Light-49"/>
      <path d="M 70.09375 0 
L 64.296875 0 
L 61.203125 32.796875 
Q 59.296875 52 58.59375 62.703125 
L 41.40625 8.09375 
L 35.703125 8.09375 
L 17.90625 62.703125 
Q 17.59375 57.40625 15.90625 36.296875 
L 15.59375 33 
L 12.59375 0 
L 6.90625 0 
L 13.40625 68.5 
L 21.703125 68.5 
L 38.703125 15.09375 
L 55.09375 68.5 
L 63.5 68.5 
z
" id="FiraSans-Light-4d"/>
      <path d="M 42.5 18.703125 
L 13.703125 18.703125 
L 7.703125 0 
L 1.59375 0 
L 24.5 68.5 
L 32 68.5 
L 54.796875 0 
L 48.5 0 
z
M 40.90625 23.796875 
L 28.203125 63.59375 
L 15.296875 23.796875 
z
" id="FiraSans-Light-41"/>
      <path d="M 24.703125 68.5 
Q 38.90625 68.5 47.75 61.296875 
Q 56.59375 54.09375 56.59375 34.796875 
Q 56.59375 15.5 47.640625 7.75 
Q 38.703125 0 25.796875 0 
L 11.09375 0 
L 11.09375 68.5 
L 24.703125 68.5 
z
M 17.09375 63.5 
L 17.09375 5 
L 26.203125 5 
Q 50.296875 5 50.296875 34.796875 
Q 50.296875 46.59375 46.796875 52.890625 
Q 43.296875 59.203125 37.9375 61.34375 
Q 32.59375 63.5 25.5 63.5 
z
" id="FiraSans-Light-44"/>
      <path id="FiraSans-Light-20"/>
      <path d="M 30.703125 0 
L 24 0 
L 1.59375 68.5 
L 8.09375 68.5 
L 27.40625 6.203125 
L 46.796875 68.5 
L 53 68.5 
z
" id="FiraSans-Light-56"/>
      <path d="M 17.09375 5.40625 
L 45.703125 5.40625 
L 44.90625 0 
L 11.09375 0 
L 11.09375 68.5 
L 17.09375 68.5 
z
" id="FiraSans-Light-4c"/>
      <path d="M 55.09375 21.40625 
Q 55.09375 11.203125 49.296875 5.046875 
Q 43.5 -1.09375 32.59375 -1.09375 
Q 21.59375 -1.09375 15.84375 5 
Q 10.09375 11.09375 10.09375 21.40625 
L 10.09375 68.5 
L 16.09375 68.5 
L 16.09375 21.90625 
Q 16.09375 13.296875 20.140625 8.6875 
Q 24.203125 4.09375 32.59375 4.09375 
Q 41 4.09375 45 8.75 
Q 49 13.40625 49 21.90625 
L 49 68.5 
L 55.09375 68.5 
z
" id="FiraSans-Light-55"/>
     </defs>
     <g style="fill:#262626;" transform="translate(120.346678 201.679375)scale(0.1 -0.1)">
      <use xlink:href="#FiraSans-Light-45"/>
      <use x="51.199997" xlink:href="#FiraSans-Light-53"/>
      <use x="105.099991" xlink:href="#FiraSans-Light-54"/>
      <use x="154.599976" xlink:href="#FiraSans-Light-49"/>
      <use x="182.799973" xlink:href="#FiraSans-Light-4d"/>
      <use x="260.59996" xlink:href="#FiraSans-Light-41"/>
      <use x="317.099945" xlink:href="#FiraSans-Light-54"/>
      <use x="366.59993" xlink:href="#FiraSans-Light-45"/>
      <use x="417.799927" xlink:href="#FiraSans-Light-44"/>
      <use x="480.999924" xlink:href="#FiraSans-Light-20"/>
      <use x="508.899918" xlink:href="#FiraSans-Light-56"/>
      <use x="563.499908" xlink:href="#FiraSans-Light-41"/>
      <use x="619.999893" xlink:href="#FiraSans-Light-4c"/>
      <use x="667.69989" xlink:href="#FiraSans-Light-55"/>
      <use x="732.899887" xlink:href="#FiraSans-Light-45"/>
     </g>
    </g>
   </g>
   <g id="matplotlib.axis_2">
    <g id="ytick_1">
     <g id="line2d_7"/>
     <g id="text_8">
      <!-- $\tau^-$ -->
      <defs>
       <path d="M 32.859375 9.96875 
Q 34.1875 7.625 39.453125 7.625 
L 43.75 7.625 
L 42.28125 0 
L 36.921875 0 
Q 28.125 0 25 4.6875 
Q 21.921875 9.46875 23.96875 19.828125 
L 29 45.703125 
L 8.453125 45.703125 
L 10.203125 54.6875 
L 60.640625 54.6875 
L 58.890625 45.703125 
L 38.1875 45.703125 
L 33.015625 19.28125 
Q 31.640625 12.203125 32.859375 9.96875 
z
" id="DejaVuSans-Oblique-3c4"/>
       <path d="M 10.59375 35.5 
L 73.1875 35.5 
L 73.1875 27.203125 
L 10.59375 27.203125 
z
" id="DejaVuSans-2212"/>
      </defs>
      <g style="fill:#262626;" transform="translate(24.039556 149.771719)scale(0.1 -0.1)">
       <use transform="translate(0 0.86875)" xlink:href="#DejaVuSans-Oblique-3c4"/>
       <use transform="translate(78.308919 39.15)scale(0.7)" xlink:href="#DejaVuSans-2212"/>
      </g>
     </g>
    </g>
    <g id="ytick_2">
     <g id="line2d_8"/>
     <g id="text_9">
      <!-- $\tau^+$ -->
      <defs>
       <path d="M 46 62.703125 
L 46 35.5 
L 73.1875 35.5 
L 73.1875 27.203125 
L 46 27.203125 
L 46 0 
L 37.796875 0 
L 37.796875 27.203125 
L 10.59375 27.203125 
L 10.59375 35.5 
L 37.796875 35.5 
L 37.796875 62.703125 
z
" id="DejaVuSans-2b"/>
      </defs>
      <g style="fill:#262626;" transform="translate(24.039556 66.536719)scale(0.1 -0.1)">
       <use transform="translate(0 0.826562)" xlink:href="#DejaVuSans-Oblique-3c4"/>
       <use transform="translate(78.308919 39.107812)scale(0.7)" xlink:href="#DejaVuSans-2b"/>
      </g>
     </g>
    </g>
    <g id="text_10">
     <!-- PARAMETER -->
     <defs>
      <path d="M 27.203125 68.5 
Q 39.40625 68.5 45.953125 63.453125 
Q 52.5 58.40625 52.5 48 
Q 52.5 37 45.640625 31.84375 
Q 38.796875 26.703125 26.90625 26.703125 
L 17.09375 26.703125 
L 17.09375 0 
L 11.09375 0 
L 11.09375 68.5 
L 27.203125 68.5 
z
M 26.90625 31.59375 
Q 36.203125 31.59375 41.203125 35.296875 
Q 46.203125 39 46.203125 47.90625 
Q 46.203125 56.296875 41.34375 59.9375 
Q 36.5 63.59375 27.09375 63.59375 
L 17.09375 63.59375 
L 17.09375 31.59375 
L 26.90625 31.59375 
z
" id="FiraSans-Light-50"/>
      <path d="M 30.796875 30.703125 
L 17.09375 30.703125 
L 17.09375 0 
L 11.09375 0 
L 11.09375 68.5 
L 27.703125 68.5 
Q 52.09375 68.5 52.09375 49.90625 
Q 52.09375 42.5 48.1875 38.09375 
Q 44.296875 33.703125 36.796875 31.796875 
L 55.59375 0 
L 48.40625 0 
z
M 28.5 35.59375 
Q 45.703125 35.59375 45.703125 49.90625 
Q 45.703125 56.90625 41.390625 60.25 
Q 37.09375 63.59375 27.5 63.59375 
L 17.09375 63.59375 
L 17.09375 35.59375 
z
" id="FiraSans-Light-52"/>
     </defs>
     <g style="fill:#262626;" transform="translate(17.989556 119.920156)rotate(-90)scale(0.1 -0.1)">
      <use xlink:href="#FiraSans-Light-50"/>
      <use x="56.999985" xlink:href="#FiraSans-Light-41"/>
      <use x="113.499969" xlink:href="#FiraSans-Light-52"/>
      <use x="172.499954" xlink:href="#FiraSans-Light-41"/>
      <use x="228.999939" xlink:href="#FiraSans-Light-4d"/>
      <use x="306.799927" xlink:href="#FiraSans-Light-45"/>
      <use x="357.999924" xlink:href="#FiraSans-Light-54"/>
      <use x="407.499908" xlink:href="#FiraSans-Light-45"/>
      <use x="458.699905" xlink:href="#FiraSans-Light-52"/>
     </g>
    </g>
   </g>
   <g id="PolyCollection_1">
    <defs>
     <path d="M 53.540772 -95.02267 
L 53.540772 -87.630563 
L 54.739787 -87.630563 
L 55.938802 -87.630563 
L 57.137817 -87.630563 
L 58.336832 -87.630563 
L 59.535847 -87.630563 
L 60.734863 -87.630563 
L 61.933878 -87.630563 
L 63.132893 -87.630563 
L 64.331908 -87.630563 
L 65.530923 -87.630563 
L 66.729939 -87.630563 
L 67.928954 -87.630563 
L 69.127969 -87.630563 
L 70.326984 -87.630563 
L 71.525999 -87.630563 
L 72.725015 -87.630563 
L 73.92403 -87.630563 
L 75.123045 -87.630563 
L 76.32206 -87.630563 
L 77.521075 -87.630563 
L 78.72009 -87.630563 
L 79.919106 -87.630563 
L 81.118121 -87.630563 
L 82.317136 -87.630563 
L 83.516151 -87.630563 
L 84.715166 -87.630563 
L 85.914182 -87.630563 
L 87.113197 -87.630563 
L 88.312212 -87.630563 
L 89.511227 -87.630563 
L 90.710242 -87.630563 
L 91.909257 -87.630563 
L 93.108273 -87.630563 
L 94.307288 -87.630563 
L 95.506303 -87.630563 
L 96.705318 -87.630563 
L 97.904333 -87.630563 
L 99.103349 -87.630563 
L 100.302364 -87.630563 
L 101.501379 -87.630563 
L 102.700394 -87.630563 
L 103.899409 -87.630563 
L 105.098425 -87.630563 
L 106.29744 -87.630563 
L 107.496455 -87.630563 
L 108.69547 -87.630563 
L 109.894485 -87.630563 
L 111.0935 -87.630563 
L 112.292516 -87.630563 
L 113.491531 -87.630563 
L 114.690546 -87.630563 
L 115.889561 -87.630563 
L 117.088576 -87.630563 
L 118.287592 -87.630563 
L 119.486607 -87.630563 
L 120.685622 -87.630563 
L 121.884637 -87.630563 
L 123.083652 -87.630563 
L 124.282667 -87.630563 
L 125.481683 -87.630563 
L 126.680698 -87.630563 
L 127.879713 -87.630563 
L 129.078728 -87.630563 
L 130.277743 -87.630563 
L 131.476759 -87.630563 
L 132.675774 -87.630563 
L 133.874789 -87.630563 
L 135.073804 -87.630563 
L 136.272819 -87.630563 
L 137.471835 -87.630563 
L 138.67085 -87.630563 
L 139.869865 -87.630563 
L 141.06888 -87.630563 
L 142.267895 -87.630563 
L 143.46691 -87.630563 
L 144.665926 -87.630563 
L 145.864941 -87.630563 
L 147.063956 -87.630563 
L 148.262971 -87.630563 
L 149.461986 -87.630563 
L 150.661002 -87.630563 
L 151.860017 -87.630563 
L 153.059032 -87.630563 
L 154.258047 -87.630563 
L 155.457062 -87.630563 
L 156.656077 -87.630563 
L 157.855093 -87.630563 
L 159.054108 -87.630563 
L 160.253123 -87.630563 
L 161.452138 -87.630563 
L 162.651153 -87.630563 
L 163.850169 -87.630563 
L 165.049184 -87.630563 
L 166.248199 -87.630563 
L 167.447214 -87.630563 
L 168.646229 -87.630563 
L 169.845245 -87.630563 
L 171.04426 -87.630563 
L 172.243275 -87.630563 
L 172.243275 -88.520744 
L 172.243275 -88.520744 
L 171.04426 -88.643372 
L 169.845245 -88.77457 
L 168.646229 -88.914168 
L 167.447214 -89.062086 
L 166.248199 -89.218369 
L 165.049184 -89.383212 
L 163.850169 -89.556965 
L 162.651153 -89.740107 
L 161.452138 -89.933196 
L 160.253123 -90.136788 
L 159.054108 -90.351342 
L 157.855093 -90.577098 
L 156.656077 -90.813966 
L 155.457062 -91.061412 
L 154.258047 -91.318368 
L 153.059032 -91.583183 
L 151.860017 -91.853608 
L 150.661002 -92.126832 
L 149.461986 -92.399576 
L 148.262971 -92.668221 
L 147.063956 -92.928988 
L 145.864941 -93.17813 
L 144.665926 -93.412148 
L 143.46691 -93.62799 
L 142.267895 -93.823234 
L 141.06888 -93.996231 
L 139.869865 -94.146207 
L 138.67085 -94.273311 
L 137.471835 -94.378611 
L 136.272819 -94.464042 
L 135.073804 -94.53232 
L 133.874789 -94.586829 
L 132.675774 -94.631487 
L 131.476759 -94.670621 
L 130.277743 -94.708847 
L 129.078728 -94.75097 
L 127.879713 -94.801907 
L 126.680698 -94.866636 
L 125.481683 -94.950161 
L 124.282667 -95.057492 
L 123.083652 -95.193636 
L 121.884637 -95.363571 
L 120.685622 -95.572218 
L 119.486607 -95.82438 
L 118.287592 -96.124664 
L 117.088576 -96.477367 
L 115.889561 -96.88634 
L 114.690546 -97.354837 
L 113.491531 -97.88534 
L 112.292516 -98.479401 
L 111.0935 -99.137488 
L 109.894485 -99.858856 
L 108.69547 -100.641458 
L 107.496455 -101.481898 
L 106.29744 -102.375436 
L 105.098425 -103.316046 
L 103.899409 -104.296523 
L 102.700394 -105.308643 
L 101.501379 -106.343355 
L 100.302364 -107.391012 
L 99.103349 -108.441618 
L 97.904333 -109.485078 
L 96.705318 -110.511439 
L 95.506303 -111.511117 
L 94.307288 -112.475077 
L 93.108273 -113.394971 
L 91.909257 -114.263216 
L 90.710242 -115.073007 
L 89.511227 -115.818262 
L 88.312212 -116.49351 
L 87.113197 -117.093727 
L 85.914182 -117.614127 
L 84.715166 -118.049956 
L 83.516151 -118.396286 
L 82.317136 -118.647863 
L 81.118121 -118.799021 
L 79.919106 -118.843688 
L 78.72009 -118.775515 
L 77.521075 -118.588119 
L 76.32206 -118.275439 
L 75.123045 -117.832197 
L 73.92403 -117.254417 
L 72.725015 -116.539978 
L 71.525999 -115.689133 
L 70.326984 -114.704972 
L 69.127969 -113.593743 
L 67.928954 -112.365025 
L 66.729939 -111.03171 
L 65.530923 -109.609772 
L 64.331908 -108.117853 
L 63.132893 -106.576663 
L 61.933878 -105.008247 
L 60.734863 -103.435162 
L 59.535847 -101.879625 
L 58.336832 -100.36268 
L 57.137817 -98.903458 
L 55.938802 -97.518542 
L 54.739787 -96.221516 
L 53.540772 -95.02267 
z
" id="m62a3cd2d01" style="stroke:#444444;"/>
    </defs>
    <g clip-path="url(#pe631272ba2)">
     <use style="fill:#267fd3;fill-opacity:0.6;stroke:#444444;" x="0" xlink:href="#m62a3cd2d01" y="216"/>
    </g>
   </g>
   <g id="PolyCollection_2">
    <defs>
     <path d="M 71.415475 -171.461508 
L 71.415475 -170.865563 
L 73.376583 -170.865563 
L 75.33769 -170.865563 
L 77.298797 -170.865563 
L 79.259904 -170.865563 
L 81.221011 -170.865563 
L 83.182118 -170.865563 
L 85.143225 -170.865563 
L 87.104333 -170.865563 
L 89.06544 -170.865563 
L 91.026547 -170.865563 
L 92.987654 -170.865563 
L 94.948761 -170.865563 
L 96.909868 -170.865563 
L 98.870976 -170.865563 
L 100.832083 -170.865563 
L 102.79319 -170.865563 
L 104.754297 -170.865563 
L 106.715404 -170.865563 
L 108.676511 -170.865563 
L 110.637619 -170.865563 
L 112.598726 -170.865563 
L 114.559833 -170.865563 
L 116.52094 -170.865563 
L 118.482047 -170.865563 
L 120.443154 -170.865563 
L 122.404262 -170.865563 
L 124.365369 -170.865563 
L 126.326476 -170.865563 
L 128.287583 -170.865563 
L 130.24869 -170.865563 
L 132.209797 -170.865563 
L 134.170905 -170.865563 
L 136.132012 -170.865563 
L 138.093119 -170.865563 
L 140.054226 -170.865563 
L 142.015333 -170.865563 
L 143.97644 -170.865563 
L 145.937548 -170.865563 
L 147.898655 -170.865563 
L 149.859762 -170.865563 
L 151.820869 -170.865563 
L 153.781976 -170.865563 
L 155.743083 -170.865563 
L 157.704191 -170.865563 
L 159.665298 -170.865563 
L 161.626405 -170.865563 
L 163.587512 -170.865563 
L 165.548619 -170.865563 
L 167.509726 -170.865563 
L 169.470834 -170.865563 
L 171.431941 -170.865563 
L 173.393048 -170.865563 
L 175.354155 -170.865563 
L 177.315262 -170.865563 
L 179.276369 -170.865563 
L 181.237477 -170.865563 
L 183.198584 -170.865563 
L 185.159691 -170.865563 
L 187.120798 -170.865563 
L 189.081905 -170.865563 
L 191.043012 -170.865563 
L 193.004119 -170.865563 
L 194.965227 -170.865563 
L 196.926334 -170.865563 
L 198.887441 -170.865563 
L 200.848548 -170.865563 
L 202.809655 -170.865563 
L 204.770762 -170.865563 
L 206.73187 -170.865563 
L 208.692977 -170.865563 
L 210.654084 -170.865563 
L 212.615191 -170.865563 
L 214.576298 -170.865563 
L 216.537405 -170.865563 
L 218.498513 -170.865563 
L 220.45962 -170.865563 
L 222.420727 -170.865563 
L 224.381834 -170.865563 
L 226.342941 -170.865563 
L 228.304048 -170.865563 
L 230.265156 -170.865563 
L 232.226263 -170.865563 
L 234.18737 -170.865563 
L 236.148477 -170.865563 
L 238.109584 -170.865563 
L 240.070691 -170.865563 
L 242.031799 -170.865563 
L 243.992906 -170.865563 
L 245.954013 -170.865563 
L 247.91512 -170.865563 
L 249.876227 -170.865563 
L 251.837334 -170.865563 
L 253.798442 -170.865563 
L 255.759549 -170.865563 
L 257.720656 -170.865563 
L 259.681763 -170.865563 
L 261.64287 -170.865563 
L 263.603977 -170.865563 
L 265.565085 -170.865563 
L 265.565085 -172.049669 
L 265.565085 -172.049669 
L 263.603977 -172.285012 
L 261.64287 -172.550489 
L 259.681763 -172.846201 
L 257.720656 -173.171369 
L 255.759549 -173.524237 
L 253.798442 -173.902015 
L 251.837334 -174.300879 
L 249.876227 -174.716039 
L 247.91512 -175.14188 
L 245.954013 -175.572172 
L 243.992906 -176.000355 
L 242.031799 -176.41987 
L 240.070691 -176.82453 
L 238.109584 -177.20889 
L 236.148477 -177.568608 
L 234.18737 -177.900737 
L 232.226263 -178.20396 
L 230.265156 -178.478709 
L 228.304048 -178.727191 
L 226.342941 -178.953298 
L 224.381834 -179.162422 
L 222.420727 -179.361186 
L 220.45962 -179.55712 
L 218.498513 -179.758318 
L 216.537405 -179.973077 
L 214.576298 -180.20956 
L 212.615191 -180.475495 
L 210.654084 -180.77789 
L 208.692977 -181.122792 
L 206.73187 -181.515048 
L 204.770762 -181.958078 
L 202.809655 -182.453633 
L 200.848548 -183.001545 
L 198.887441 -183.599466 
L 196.926334 -184.242623 
L 194.965227 -184.923615 
L 193.004119 -185.632289 
L 191.043012 -186.355745 
L 189.081905 -187.078494 
L 187.120798 -187.782824 
L 185.159691 -188.449362 
L 183.198584 -189.057838 
L 181.237477 -189.588014 
L 179.276369 -190.020732 
L 177.315262 -190.33899 
L 175.354155 -190.528984 
L 173.393048 -190.581011 
L 171.431941 -190.490156 
L 169.470834 -190.256703 
L 167.509726 -189.886224 
L 165.548619 -189.389332 
L 163.587512 -188.781112 
L 161.626405 -188.080281 
L 159.665298 -187.308137 
L 157.704191 -186.487381 
L 155.743083 -185.640904 
L 153.781976 -184.79063 
L 151.820869 -183.956488 
L 149.859762 -183.155569 
L 147.898655 -182.401537 
L 145.937548 -181.704272 
L 143.97644 -181.069789 
L 142.015333 -180.500369 
L 140.054226 -179.994902 
L 138.093119 -179.549375 
L 136.132012 -179.157469 
L 134.170905 -178.811208 
L 132.209797 -178.501626 
L 130.24869 -178.219396 
L 128.287583 -177.955413 
L 126.326476 -177.701285 
L 124.365369 -177.449738 
L 122.404262 -177.194903 
L 120.443154 -176.932499 
L 118.482047 -176.659906 
L 116.52094 -176.376129 
L 114.559833 -176.081675 
L 112.598726 -175.77834 
L 110.637619 -175.468938 
L 108.676511 -175.15699 
L 106.715404 -174.846387 
L 104.754297 -174.541067 
L 102.79319 -174.244724 
L 100.832083 -173.960555 
L 98.870976 -173.69109 
L 96.909868 -173.438085 
L 94.948761 -173.2025 
L 92.987654 -172.984541 
L 91.026547 -172.783767 
L 89.06544 -172.599237 
L 87.104333 -172.429675 
L 85.143225 -172.273645 
L 83.182118 -172.129701 
L 81.221011 -171.996515 
L 79.259904 -171.872968 
L 77.298797 -171.758189 
L 75.33769 -171.65157 
L 73.376583 -171.552739 
L 71.415475 -171.461508 
z
" id="mfe979ba85b" style="stroke:#444444;"/>
    </defs>
    <g clip-path="url(#pe631272ba2)">
     <use style="fill:#e88300;fill-opacity:0.6;stroke:#444444;" x="0" xlink:href="#mfe979ba85b" y="216"/>
    </g>
   </g>
   <g id="PathCollection_1">
    <defs>
     <path d="M 0 2.5 
C 0.663008 2.5 1.29895 2.236584 1.767767 1.767767 
C 2.236584 1.29895 2.5 0.663008 2.5 0 
C 2.5 -0.663008 2.236584 -1.29895 1.767767 -1.767767 
C 1.29895 -2.236584 0.663008 -2.5 0 -2.5 
C -0.663008 -2.5 -1.29895 -2.236584 -1.767767 -1.767767 
C -2.236584 -1.29895 -2.5 -0.663008 -2.5 0 
C -2.5 0.663008 -2.236584 1.29895 -1.767767 1.767767 
C -1.29895 2.236584 -0.663008 2.5 0 2.5 
z
" id="C0_0_87f2662364"/>
    </defs>
    <g clip-path="url(#pe631272ba2)">
     <use style="fill:#267fd3;fill-opacity:0.6;stroke:#464646;stroke-opacity:0.6;" x="81.579967" xlink:href="#C0_0_87f2662364" y="152.370367"/>
    </g>
    <g clip-path="url(#pe631272ba2)">
     <use style="fill:#267fd3;fill-opacity:0.6;stroke:#464646;stroke-opacity:0.6;" x="144.709237" xlink:href="#C0_0_87f2662364" y="148.398387"/>
    </g>
    <g clip-path="url(#pe631272ba2)">
     <use style="fill:#267fd3;fill-opacity:0.6;stroke:#464646;stroke-opacity:0.6;" x="69.032592" xlink:href="#C0_0_87f2662364" y="147.03782"/>
    </g>
    <g clip-path="url(#pe631272ba2)">
     <use style="fill:#267fd3;fill-opacity:0.6;stroke:#464646;stroke-opacity:0.6;" x="90.064496" xlink:href="#C0_0_87f2662364" y="149.292812"/>
    </g>
    <g clip-path="url(#pe631272ba2)">
     <use style="fill:#267fd3;fill-opacity:0.6;stroke:#464646;stroke-opacity:0.6;" x="115.112718" xlink:href="#C0_0_87f2662364" y="149.62815"/>
    </g>
    <g clip-path="url(#pe631272ba2)">
     <use style="fill:#267fd3;fill-opacity:0.6;stroke:#464646;stroke-opacity:0.6;" x="89.538771" xlink:href="#C0_0_87f2662364" y="147.703394"/>
    </g>
    <g clip-path="url(#pe631272ba2)">
     <use style="fill:#267fd3;fill-opacity:0.6;stroke:#464646;stroke-opacity:0.6;" x="74.75832" xlink:href="#C0_0_87f2662364" y="141.454586"/>
    </g>
    <g clip-path="url(#pe631272ba2)">
     <use style="fill:#267fd3;fill-opacity:0.6;stroke:#464646;stroke-opacity:0.6;" x="84.134484" xlink:href="#C0_0_87f2662364" y="148.719841"/>
    </g>
    <g clip-path="url(#pe631272ba2)">
     <use style="fill:#267fd3;fill-opacity:0.6;stroke:#464646;stroke-opacity:0.6;" x="69.257494" xlink:href="#C0_0_87f2662364" y="149.178404"/>
    </g>
    <g clip-path="url(#pe631272ba2)">
     <use style="fill:#267fd3;fill-opacity:0.6;stroke:#464646;stroke-opacity:0.6;" x="86.307445" xlink:href="#C0_0_87f2662364" y="146.19091"/>
    </g>
    <g clip-path="url(#pe631272ba2)">
     <use style="fill:#267fd3;fill-opacity:0.6;stroke:#464646;stroke-opacity:0.6;" x="65.139788" xlink:href="#C0_0_87f2662364" y="153.006059"/>
    </g>
    <g clip-path="url(#pe631272ba2)">
     <use style="fill:#267fd3;fill-opacity:0.6;stroke:#464646;stroke-opacity:0.6;" x="79.115445" xlink:href="#C0_0_87f2662364" y="145.601124"/>
    </g>
    <g clip-path="url(#pe631272ba2)">
     <use style="fill:#267fd3;fill-opacity:0.6;stroke:#464646;stroke-opacity:0.6;" x="85.390415" xlink:href="#C0_0_87f2662364" y="152.831812"/>
    </g>
    <g clip-path="url(#pe631272ba2)">
     <use style="fill:#267fd3;fill-opacity:0.6;stroke:#464646;stroke-opacity:0.6;" x="103.832182" xlink:href="#C0_0_87f2662364" y="150.727252"/>
    </g>
    <g clip-path="url(#pe631272ba2)">
     <use style="fill:#267fd3;fill-opacity:0.6;stroke:#464646;stroke-opacity:0.6;" x="88.641592" xlink:href="#C0_0_87f2662364" y="144.008944"/>
    </g>
    <g clip-path="url(#pe631272ba2)">
     <use style="fill:#267fd3;fill-opacity:0.6;stroke:#464646;stroke-opacity:0.6;" x="72.765703" xlink:href="#C0_0_87f2662364" y="148.54274"/>
    </g>
    <g clip-path="url(#pe631272ba2)">
     <use style="fill:#267fd3;fill-opacity:0.6;stroke:#464646;stroke-opacity:0.6;" x="70.641193" xlink:href="#C0_0_87f2662364" y="144.017165"/>
    </g>
    <g clip-path="url(#pe631272ba2)">
     <use style="fill:#267fd3;fill-opacity:0.6;stroke:#464646;stroke-opacity:0.6;" x="67.327714" xlink:href="#C0_0_87f2662364" y="149.522023"/>
    </g>
    <g clip-path="url(#pe631272ba2)">
     <use style="fill:#267fd3;fill-opacity:0.6;stroke:#464646;stroke-opacity:0.6;" x="74.837121" xlink:href="#C0_0_87f2662364" y="145.30371"/>
    </g>
    <g clip-path="url(#pe631272ba2)">
     <use style="fill:#267fd3;fill-opacity:0.6;stroke:#464646;stroke-opacity:0.6;" x="134.314958" xlink:href="#C0_0_87f2662364" y="145.624237"/>
    </g>
    <g clip-path="url(#pe631272ba2)">
     <use style="fill:#267fd3;fill-opacity:0.6;stroke:#464646;stroke-opacity:0.6;" x="142.153632" xlink:href="#C0_0_87f2662364" y="153.983321"/>
    </g>
    <g clip-path="url(#pe631272ba2)">
     <use style="fill:#267fd3;fill-opacity:0.6;stroke:#464646;stroke-opacity:0.6;" x="91.782787" xlink:href="#C0_0_87f2662364" y="138.772297"/>
    </g>
    <g clip-path="url(#pe631272ba2)">
     <use style="fill:#267fd3;fill-opacity:0.6;stroke:#464646;stroke-opacity:0.6;" x="76.539834" xlink:href="#C0_0_87f2662364" y="139.901364"/>
    </g>
    <g clip-path="url(#pe631272ba2)">
     <use style="fill:#267fd3;fill-opacity:0.6;stroke:#464646;stroke-opacity:0.6;" x="94.804057" xlink:href="#C0_0_87f2662364" y="142.321236"/>
    </g>
    <g clip-path="url(#pe631272ba2)">
     <use style="fill:#267fd3;fill-opacity:0.6;stroke:#464646;stroke-opacity:0.6;" x="69.190026" xlink:href="#C0_0_87f2662364" y="148.57587"/>
    </g>
    <g clip-path="url(#pe631272ba2)">
     <use style="fill:#267fd3;fill-opacity:0.6;stroke:#464646;stroke-opacity:0.6;" x="118.728718" xlink:href="#C0_0_87f2662364" y="138.524113"/>
    </g>
    <g clip-path="url(#pe631272ba2)">
     <use style="fill:#267fd3;fill-opacity:0.6;stroke:#464646;stroke-opacity:0.6;" x="101.714931" xlink:href="#C0_0_87f2662364" y="144.631318"/>
    </g>
    <g clip-path="url(#pe631272ba2)">
     <use style="fill:#267fd3;fill-opacity:0.6;stroke:#464646;stroke-opacity:0.6;" x="92.447625" xlink:href="#C0_0_87f2662364" y="137.991971"/>
    </g>
    <g clip-path="url(#pe631272ba2)">
     <use style="fill:#267fd3;fill-opacity:0.6;stroke:#464646;stroke-opacity:0.6;" x="70.837452" xlink:href="#C0_0_87f2662364" y="144.56372"/>
    </g>
    <g clip-path="url(#pe631272ba2)">
     <use style="fill:#267fd3;fill-opacity:0.6;stroke:#464646;stroke-opacity:0.6;" x="106.651986" xlink:href="#C0_0_87f2662364" y="147.786256"/>
    </g>
    <g clip-path="url(#pe631272ba2)">
     <use style="fill:#267fd3;fill-opacity:0.6;stroke:#464646;stroke-opacity:0.6;" x="81.746201" xlink:href="#C0_0_87f2662364" y="145.471242"/>
    </g>
    <g clip-path="url(#pe631272ba2)">
     <use style="fill:#267fd3;fill-opacity:0.6;stroke:#464646;stroke-opacity:0.6;" x="73.263679" xlink:href="#C0_0_87f2662364" y="150.40974"/>
    </g>
    <g clip-path="url(#pe631272ba2)">
     <use style="fill:#267fd3;fill-opacity:0.6;stroke:#464646;stroke-opacity:0.6;" x="68.511242" xlink:href="#C0_0_87f2662364" y="139.723403"/>
    </g>
    <g clip-path="url(#pe631272ba2)">
     <use style="fill:#267fd3;fill-opacity:0.6;stroke:#464646;stroke-opacity:0.6;" x="82.017017" xlink:href="#C0_0_87f2662364" y="149.950169"/>
    </g>
    <g clip-path="url(#pe631272ba2)">
     <use style="fill:#267fd3;fill-opacity:0.6;stroke:#464646;stroke-opacity:0.6;" x="99.669659" xlink:href="#C0_0_87f2662364" y="140.916302"/>
    </g>
    <g clip-path="url(#pe631272ba2)">
     <use style="fill:#267fd3;fill-opacity:0.6;stroke:#464646;stroke-opacity:0.6;" x="67.038305" xlink:href="#C0_0_87f2662364" y="143.698112"/>
    </g>
    <g clip-path="url(#pe631272ba2)">
     <use style="fill:#267fd3;fill-opacity:0.6;stroke:#464646;stroke-opacity:0.6;" x="82.874635" xlink:href="#C0_0_87f2662364" y="149.59166"/>
    </g>
    <g clip-path="url(#pe631272ba2)">
     <use style="fill:#267fd3;fill-opacity:0.6;stroke:#464646;stroke-opacity:0.6;" x="141.929863" xlink:href="#C0_0_87f2662364" y="151.888376"/>
    </g>
    <g clip-path="url(#pe631272ba2)">
     <use style="fill:#267fd3;fill-opacity:0.6;stroke:#464646;stroke-opacity:0.6;" x="129.836697" xlink:href="#C0_0_87f2662364" y="142.039422"/>
    </g>
    <g clip-path="url(#pe631272ba2)">
     <use style="fill:#267fd3;fill-opacity:0.6;stroke:#464646;stroke-opacity:0.6;" x="161.132779" xlink:href="#C0_0_87f2662364" y="149.127077"/>
    </g>
    <g clip-path="url(#pe631272ba2)">
     <use style="fill:#267fd3;fill-opacity:0.6;stroke:#464646;stroke-opacity:0.6;" x="97.180498" xlink:href="#C0_0_87f2662364" y="152.198351"/>
    </g>
    <g clip-path="url(#pe631272ba2)">
     <use style="fill:#267fd3;fill-opacity:0.6;stroke:#464646;stroke-opacity:0.6;" x="64.651267" xlink:href="#C0_0_87f2662364" y="140.976916"/>
    </g>
    <g clip-path="url(#pe631272ba2)">
     <use style="fill:#267fd3;fill-opacity:0.6;stroke:#464646;stroke-opacity:0.6;" x="68.187131" xlink:href="#C0_0_87f2662364" y="143.493847"/>
    </g>
    <g clip-path="url(#pe631272ba2)">
     <use style="fill:#267fd3;fill-opacity:0.6;stroke:#464646;stroke-opacity:0.6;" x="102.54664" xlink:href="#C0_0_87f2662364" y="151.891459"/>
    </g>
    <g clip-path="url(#pe631272ba2)">
     <use style="fill:#267fd3;fill-opacity:0.6;stroke:#464646;stroke-opacity:0.6;" x="94.098393" xlink:href="#C0_0_87f2662364" y="151.612423"/>
    </g>
    <g clip-path="url(#pe631272ba2)">
     <use style="fill:#267fd3;fill-opacity:0.6;stroke:#464646;stroke-opacity:0.6;" x="83.429706" xlink:href="#C0_0_87f2662364" y="149.210034"/>
    </g>
    <g clip-path="url(#pe631272ba2)">
     <use style="fill:#267fd3;fill-opacity:0.6;stroke:#464646;stroke-opacity:0.6;" x="91.838343" xlink:href="#C0_0_87f2662364" y="142.710343"/>
    </g>
    <g clip-path="url(#pe631272ba2)">
     <use style="fill:#267fd3;fill-opacity:0.6;stroke:#464646;stroke-opacity:0.6;" x="123.043723" xlink:href="#C0_0_87f2662364" y="142.696049"/>
    </g>
   </g>
   <g id="PathCollection_2">
    <defs>
     <path d="M 0 2.5 
C 0.663008 2.5 1.29895 2.236584 1.767767 1.767767 
C 2.236584 1.29895 2.5 0.663008 2.5 0 
C 2.5 -0.663008 2.236584 -1.29895 1.767767 -1.767767 
C 1.29895 -2.236584 0.663008 -2.5 0 -2.5 
C -0.663008 -2.5 -1.29895 -2.236584 -1.767767 -1.767767 
C -2.236584 -1.29895 -2.5 -0.663008 -2.5 0 
C -2.5 0.663008 -2.236584 1.29895 -1.767767 1.767767 
C -1.29895 2.236584 -0.663008 2.5 0 2.5 
z
" id="C1_0_5ae4c6db5f"/>
    </defs>
    <g clip-path="url(#pe631272ba2)">
     <use style="fill:#e88300;fill-opacity:0.6;stroke:#464646;stroke-opacity:0.6;" x="184.435472" xlink:href="#C1_0_5ae4c6db5f" y="64.408865"/>
    </g>
    <g clip-path="url(#pe631272ba2)">
     <use style="fill:#e88300;fill-opacity:0.6;stroke:#464646;stroke-opacity:0.6;" x="175.824594" xlink:href="#C1_0_5ae4c6db5f" y="69.442809"/>
    </g>
    <g clip-path="url(#pe631272ba2)">
     <use style="fill:#e88300;fill-opacity:0.6;stroke:#464646;stroke-opacity:0.6;" x="199.27809" xlink:href="#C1_0_5ae4c6db5f" y="66.434763"/>
    </g>
    <g clip-path="url(#pe631272ba2)">
     <use style="fill:#e88300;fill-opacity:0.6;stroke:#464646;stroke-opacity:0.6;" x="132.053435" xlink:href="#C1_0_5ae4c6db5f" y="67.281046"/>
    </g>
    <g clip-path="url(#pe631272ba2)">
     <use style="fill:#e88300;fill-opacity:0.6;stroke:#464646;stroke-opacity:0.6;" x="185.102391" xlink:href="#C1_0_5ae4c6db5f" y="60.091702"/>
    </g>
    <g clip-path="url(#pe631272ba2)">
     <use style="fill:#e88300;fill-opacity:0.6;stroke:#464646;stroke-opacity:0.6;" x="233.398939" xlink:href="#C1_0_5ae4c6db5f" y="68.236822"/>
    </g>
    <g clip-path="url(#pe631272ba2)">
     <use style="fill:#e88300;fill-opacity:0.6;stroke:#464646;stroke-opacity:0.6;" x="174.61867" xlink:href="#C1_0_5ae4c6db5f" y="70.782031"/>
    </g>
    <g clip-path="url(#pe631272ba2)">
     <use style="fill:#e88300;fill-opacity:0.6;stroke:#464646;stroke-opacity:0.6;" x="174.762765" xlink:href="#C1_0_5ae4c6db5f" y="55.909892"/>
    </g>
    <g clip-path="url(#pe631272ba2)">
     <use style="fill:#e88300;fill-opacity:0.6;stroke:#464646;stroke-opacity:0.6;" x="169.141128" xlink:href="#C1_0_5ae4c6db5f" y="63.424782"/>
    </g>
    <g clip-path="url(#pe631272ba2)">
     <use style="fill:#e88300;fill-opacity:0.6;stroke:#464646;stroke-opacity:0.6;" x="166.591698" xlink:href="#C1_0_5ae4c6db5f" y="69.237275"/>
    </g>
    <g clip-path="url(#pe631272ba2)">
     <use style="fill:#e88300;fill-opacity:0.6;stroke:#464646;stroke-opacity:0.6;" x="214.23227" xlink:href="#C1_0_5ae4c6db5f" y="54.982969"/>
    </g>
    <g clip-path="url(#pe631272ba2)">
     <use style="fill:#e88300;fill-opacity:0.6;stroke:#464646;stroke-opacity:0.6;" x="168.880185" xlink:href="#C1_0_5ae4c6db5f" y="61.359298"/>
    </g>
    <g clip-path="url(#pe631272ba2)">
     <use style="fill:#e88300;fill-opacity:0.6;stroke:#464646;stroke-opacity:0.6;" x="154.881218" xlink:href="#C1_0_5ae4c6db5f" y="63.176535"/>
    </g>
    <g clip-path="url(#pe631272ba2)">
     <use style="fill:#e88300;fill-opacity:0.6;stroke:#464646;stroke-opacity:0.6;" x="172.565016" xlink:href="#C1_0_5ae4c6db5f" y="65.641133"/>
    </g>
    <g clip-path="url(#pe631272ba2)">
     <use style="fill:#e88300;fill-opacity:0.6;stroke:#464646;stroke-opacity:0.6;" x="153.301563" xlink:href="#C1_0_5ae4c6db5f" y="60.110126"/>
    </g>
    <g clip-path="url(#pe631272ba2)">
     <use style="fill:#e88300;fill-opacity:0.6;stroke:#464646;stroke-opacity:0.6;" x="167.002078" xlink:href="#C1_0_5ae4c6db5f" y="59.636724"/>
    </g>
    <g clip-path="url(#pe631272ba2)">
     <use style="fill:#e88300;fill-opacity:0.6;stroke:#464646;stroke-opacity:0.6;" x="235.213542" xlink:href="#C1_0_5ae4c6db5f" y="61.575327"/>
    </g>
    <g clip-path="url(#pe631272ba2)">
     <use style="fill:#e88300;fill-opacity:0.6;stroke:#464646;stroke-opacity:0.6;" x="170.791884" xlink:href="#C1_0_5ae4c6db5f" y="57.195805"/>
    </g>
    <g clip-path="url(#pe631272ba2)">
     <use style="fill:#e88300;fill-opacity:0.6;stroke:#464646;stroke-opacity:0.6;" x="179.347593" xlink:href="#C1_0_5ae4c6db5f" y="67.722399"/>
    </g>
    <g clip-path="url(#pe631272ba2)">
     <use style="fill:#e88300;fill-opacity:0.6;stroke:#464646;stroke-opacity:0.6;" x="121.637781" xlink:href="#C1_0_5ae4c6db5f" y="56.893376"/>
    </g>
    <g clip-path="url(#pe631272ba2)">
     <use style="fill:#e88300;fill-opacity:0.6;stroke:#464646;stroke-opacity:0.6;" x="113.380464" xlink:href="#C1_0_5ae4c6db5f" y="67.597227"/>
    </g>
    <g clip-path="url(#pe631272ba2)">
     <use style="fill:#e88300;fill-opacity:0.6;stroke:#464646;stroke-opacity:0.6;" x="138.110668" xlink:href="#C1_0_5ae4c6db5f" y="58.248334"/>
    </g>
    <g clip-path="url(#pe631272ba2)">
     <use style="fill:#e88300;fill-opacity:0.6;stroke:#464646;stroke-opacity:0.6;" x="233.303316" xlink:href="#C1_0_5ae4c6db5f" y="69.947209"/>
    </g>
    <g clip-path="url(#pe631272ba2)">
     <use style="fill:#e88300;fill-opacity:0.6;stroke:#464646;stroke-opacity:0.6;" x="116.034157" xlink:href="#C1_0_5ae4c6db5f" y="69.070303"/>
    </g>
    <g clip-path="url(#pe631272ba2)">
     <use style="fill:#e88300;fill-opacity:0.6;stroke:#464646;stroke-opacity:0.6;" x="226.499292" xlink:href="#C1_0_5ae4c6db5f" y="64.353816"/>
    </g>
    <g clip-path="url(#pe631272ba2)">
     <use style="fill:#e88300;fill-opacity:0.6;stroke:#464646;stroke-opacity:0.6;" x="233.595455" xlink:href="#C1_0_5ae4c6db5f" y="66.465079"/>
    </g>
    <g clip-path="url(#pe631272ba2)">
     <use style="fill:#e88300;fill-opacity:0.6;stroke:#464646;stroke-opacity:0.6;" x="199.659211" xlink:href="#C1_0_5ae4c6db5f" y="60.797836"/>
    </g>
    <g clip-path="url(#pe631272ba2)">
     <use style="fill:#e88300;fill-opacity:0.6;stroke:#464646;stroke-opacity:0.6;" x="164.897703" xlink:href="#C1_0_5ae4c6db5f" y="66.401073"/>
    </g>
    <g clip-path="url(#pe631272ba2)">
     <use style="fill:#e88300;fill-opacity:0.6;stroke:#464646;stroke-opacity:0.6;" x="177.359581" xlink:href="#C1_0_5ae4c6db5f" y="63.818654"/>
    </g>
    <g clip-path="url(#pe631272ba2)">
     <use style="fill:#e88300;fill-opacity:0.6;stroke:#464646;stroke-opacity:0.6;" x="140.13486" xlink:href="#C1_0_5ae4c6db5f" y="67.663207"/>
    </g>
    <g clip-path="url(#pe631272ba2)">
     <use style="fill:#e88300;fill-opacity:0.6;stroke:#464646;stroke-opacity:0.6;" x="118.154103" xlink:href="#C1_0_5ae4c6db5f" y="68.283023"/>
    </g>
    <g clip-path="url(#pe631272ba2)">
     <use style="fill:#e88300;fill-opacity:0.6;stroke:#464646;stroke-opacity:0.6;" x="155.693277" xlink:href="#C1_0_5ae4c6db5f" y="66.387825"/>
    </g>
    <g clip-path="url(#pe631272ba2)">
     <use style="fill:#e88300;fill-opacity:0.6;stroke:#464646;stroke-opacity:0.6;" x="202.607169" xlink:href="#C1_0_5ae4c6db5f" y="66.165565"/>
    </g>
    <g clip-path="url(#pe631272ba2)">
     <use style="fill:#e88300;fill-opacity:0.6;stroke:#464646;stroke-opacity:0.6;" x="133.065915" xlink:href="#C1_0_5ae4c6db5f" y="56.845507"/>
    </g>
    <g clip-path="url(#pe631272ba2)">
     <use style="fill:#e88300;fill-opacity:0.6;stroke:#464646;stroke-opacity:0.6;" x="226.498711" xlink:href="#C1_0_5ae4c6db5f" y="64.903156"/>
    </g>
    <g clip-path="url(#pe631272ba2)">
     <use style="fill:#e88300;fill-opacity:0.6;stroke:#464646;stroke-opacity:0.6;" x="88.003762" xlink:href="#C1_0_5ae4c6db5f" y="68.454703"/>
    </g>
    <g clip-path="url(#pe631272ba2)">
     <use style="fill:#e88300;fill-opacity:0.6;stroke:#464646;stroke-opacity:0.6;" x="166.655756" xlink:href="#C1_0_5ae4c6db5f" y="54.858403"/>
    </g>
    <g clip-path="url(#pe631272ba2)">
     <use style="fill:#e88300;fill-opacity:0.6;stroke:#464646;stroke-opacity:0.6;" x="177.828784" xlink:href="#C1_0_5ae4c6db5f" y="68.036489"/>
    </g>
    <g clip-path="url(#pe631272ba2)">
     <use style="fill:#e88300;fill-opacity:0.6;stroke:#464646;stroke-opacity:0.6;" x="171.804634" xlink:href="#C1_0_5ae4c6db5f" y="57.893779"/>
    </g>
    <g clip-path="url(#pe631272ba2)">
     <use style="fill:#e88300;fill-opacity:0.6;stroke:#464646;stroke-opacity:0.6;" x="216.536672" xlink:href="#C1_0_5ae4c6db5f" y="68.256114"/>
    </g>
    <g clip-path="url(#pe631272ba2)">
     <use style="fill:#e88300;fill-opacity:0.6;stroke:#464646;stroke-opacity:0.6;" x="162.484497" xlink:href="#C1_0_5ae4c6db5f" y="58.077289"/>
    </g>
    <g clip-path="url(#pe631272ba2)">
     <use style="fill:#e88300;fill-opacity:0.6;stroke:#464646;stroke-opacity:0.6;" x="248.976798" xlink:href="#C1_0_5ae4c6db5f" y="61.13811"/>
    </g>
    <g clip-path="url(#pe631272ba2)">
     <use style="fill:#e88300;fill-opacity:0.6;stroke:#464646;stroke-opacity:0.6;" x="193.245124" xlink:href="#C1_0_5ae4c6db5f" y="57.919243"/>
    </g>
    <g clip-path="url(#pe631272ba2)">
     <use style="fill:#e88300;fill-opacity:0.6;stroke:#464646;stroke-opacity:0.6;" x="199.527347" xlink:href="#C1_0_5ae4c6db5f" y="69.331686"/>
    </g>
    <g clip-path="url(#pe631272ba2)">
     <use style="fill:#e88300;fill-opacity:0.6;stroke:#464646;stroke-opacity:0.6;" x="181.841863" xlink:href="#C1_0_5ae4c6db5f" y="59.593605"/>
    </g>
    <g clip-path="url(#pe631272ba2)">
     <use style="fill:#e88300;fill-opacity:0.6;stroke:#464646;stroke-opacity:0.6;" x="179.202767" xlink:href="#C1_0_5ae4c6db5f" y="58.018806"/>
    </g>
    <g clip-path="url(#pe631272ba2)">
     <use style="fill:#e88300;fill-opacity:0.6;stroke:#464646;stroke-opacity:0.6;" x="169.385024" xlink:href="#C1_0_5ae4c6db5f" y="65.17933"/>
    </g>
    <g clip-path="url(#pe631272ba2)">
     <use style="fill:#e88300;fill-opacity:0.6;stroke:#464646;stroke-opacity:0.6;" x="205.150395" xlink:href="#C1_0_5ae4c6db5f" y="66.528816"/>
    </g>
   </g>
   <g id="line2d_9">
    <path clip-path="url(#pe631272ba2)" d="M 64.651267 148.657969 
L 64.651267 143.455781 
" style="fill:none;stroke:#464646;stroke-linecap:round;"/>
   </g>
   <g id="line2d_10">
    <path clip-path="url(#pe631272ba2)" d="M 161.132779 148.657969 
L 161.132779 143.455781 
" style="fill:none;stroke:#464646;stroke-linecap:round;"/>
   </g>
   <g id="line2d_11"/>
   <g id="line2d_12">
    <path clip-path="url(#pe631272ba2)" d="M 88.003762 65.422969 
L 88.003762 60.220781 
" style="fill:none;stroke:#464646;stroke-linecap:round;"/>
   </g>
   <g id="line2d_13">
    <path clip-path="url(#pe631272ba2)" d="M 248.976798 65.422969 
L 248.976798 60.220781 
" style="fill:none;stroke:#464646;stroke-linecap:round;"/>
   </g>
   <g id="line2d_14"/>
   <g id="patch_3">
    <path d="M 42.939556 177.27 
L 42.939556 10.8 
" style="fill:none;stroke:#262626;stroke-linecap:square;stroke-linejoin:miter;stroke-width:1.25;"/>
   </g>
   <g id="patch_4">
    <path d="M 42.939556 177.27 
L 276.1663 177.27 
" style="fill:none;stroke:#262626;stroke-linecap:square;stroke-linejoin:miter;stroke-width:1.25;"/>
   </g>
   <g id="line2d_15">
    <path clip-path="url(#pe631272ba2)" d="M 73.139185 146.056875 
L 64.651267 146.056875 
" style="fill:none;stroke:#464646;stroke-linecap:round;"/>
   </g>
   <g id="line2d_16">
    <path clip-path="url(#pe631272ba2)" d="M 101.922858 146.056875 
L 161.132779 146.056875 
" style="fill:none;stroke:#464646;stroke-linecap:round;"/>
   </g>
   <g id="line2d_17">
    <path clip-path="url(#pe631272ba2)" d="M 160.786692 62.821875 
L 88.003762 62.821875 
" style="fill:none;stroke:#464646;stroke-linecap:round;"/>
   </g>
   <g id="line2d_18">
    <path clip-path="url(#pe631272ba2)" d="M 199.560313 62.821875 
L 248.976798 62.821875 
" style="fill:none;stroke:#464646;stroke-linecap:round;"/>
   </g>
   <g id="patch_5">
    <path clip-path="url(#pe631272ba2)" d="M 73.139185 151.259062 
L 73.139185 140.854687 
L 101.922858 140.854687 
L 101.922858 151.259062 
L 73.139185 151.259062 
z
" style="fill:#3c7ebd;opacity:0.5;stroke:#464646;stroke-linejoin:miter;"/>
   </g>
   <g id="patch_6">
    <path clip-path="url(#pe631272ba2)" d="M 160.786692 68.024062 
L 160.786692 57.619687 
L 199.560313 57.619687 
L 199.560313 68.024062 
L 160.786692 68.024062 
z
" style="fill:#cb7f1d;opacity:0.5;stroke:#464646;stroke-linejoin:miter;"/>
   </g>
   <g id="line2d_19">
    <path clip-path="url(#pe631272ba2)" d="M 85.84893 151.259062 
L 85.84893 140.854687 
" style="fill:none;opacity:0.5;stroke:#464646;stroke-linecap:round;"/>
   </g>
   <g id="line2d_20">
    <path clip-path="url(#pe631272ba2)" d="M 174.690717 68.024062 
L 174.690717 57.619687 
" style="fill:none;opacity:0.5;stroke:#464646;stroke-linecap:round;"/>
   </g>
  </g>
 </g>
 <defs>
  <clipPath id="pe631272ba2">
   <rect height="166.47" width="233.226744" x="42.939556" y="10.8"/>
  </clipPath>
 </defs>
</svg>
