<?xml version="1.0" encoding="utf-8" standalone="no"?>
<!DOCTYPE svg PUBLIC "-//W3C//DTD SVG 1.1//EN"
  "http://www.w3.org/Graphics/SVG/1.1/DTD/svg11.dtd">
<!-- Created with matplotlib (http://matplotlib.org/) -->
<svg height="216pt" version="1.1" viewBox="0 0 432 216" width="432pt" xmlns="http://www.w3.org/2000/svg" xmlns:xlink="http://www.w3.org/1999/xlink">
 <defs>
  <style type="text/css">
*{stroke-linecap:butt;stroke-linejoin:round;}
  </style>
 </defs>
 <g id="figure_1">
  <g id="patch_1">
   <path d="M 0 216 
L 432 216 
L 432 0 
L 0 0 
z
" style="fill:#fbfbfb;"/>
  </g>
  <g id="axes_1">
   <g id="patch_2">
    <path d="M 44.742 153.3615 
L 421.2 153.3615 
L 421.2 10.8 
L 44.742 10.8 
z
" style="fill:#fbfbfb;"/>
   </g>
   <g id="matplotlib.axis_1">
    <g id="xtick_1">
     <g id="line2d_1"/>
     <g id="text_1">
      <!-- Rescorla -->
      <defs>
       <path d="M 30.796875 30.703125 
L 17.09375 30.703125 
L 17.09375 0 
L 11.09375 0 
L 11.09375 68.5 
L 27.703125 68.5 
Q 52.09375 68.5 52.09375 49.90625 
Q 52.09375 42.5 48.1875 38.09375 
Q 44.296875 33.703125 36.796875 31.796875 
L 55.59375 0 
L 48.40625 0 
z
M 28.5 35.59375 
Q 45.703125 35.59375 45.703125 49.90625 
Q 45.703125 56.90625 41.390625 60.25 
Q 37.09375 63.59375 27.5 63.59375 
L 17.09375 63.59375 
L 17.09375 35.59375 
z
" id="FiraSans-Light-52"/>
       <path d="M 47.703125 28.09375 
Q 47.703125 25.90625 47.5 23.90625 
L 12.59375 23.90625 
Q 13.09375 13.703125 17.4375 8.75 
Q 21.796875 3.796875 28.90625 3.796875 
Q 33 3.796875 36.140625 5.046875 
Q 39.296875 6.296875 43 9 
L 45.703125 5.296875 
Q 41.796875 2.09375 37.6875 0.5 
Q 33.59375 -1.09375 28.59375 -1.09375 
Q 18.203125 -1.09375 12.296875 6 
Q 6.40625 13.09375 6.40625 25.703125 
Q 6.40625 34 8.953125 40.25 
Q 11.5 46.5 16.25 49.953125 
Q 21 53.40625 27.296875 53.40625 
Q 37.296875 53.40625 42.5 46.65625 
Q 47.703125 39.90625 47.703125 28.09375 
z
M 42 29.90625 
Q 42 38.703125 38.34375 43.640625 
Q 34.703125 48.59375 27.5 48.59375 
Q 21.09375 48.59375 17.046875 43.59375 
Q 13 38.59375 12.5 28.40625 
L 42 28.40625 
z
" id="FiraSans-Light-65"/>
       <path d="M 23.40625 53.40625 
Q 28.296875 53.40625 32.296875 51.953125 
Q 36.296875 50.5 40.09375 47.59375 
L 37.40625 43.796875 
Q 33.796875 46.296875 30.59375 47.4375 
Q 27.40625 48.59375 23.59375 48.59375 
Q 18.40625 48.59375 15.203125 46.1875 
Q 12 43.796875 12 39.796875 
Q 12 36 14.75 33.890625 
Q 17.5 31.796875 24.703125 29.90625 
Q 33.59375 27.59375 37.546875 24.09375 
Q 41.5 20.59375 41.5 14.09375 
Q 41.5 7.09375 36.09375 3 
Q 30.703125 -1.09375 22.59375 -1.09375 
Q 16.59375 -1.09375 12.09375 0.65625 
Q 7.59375 2.40625 3.90625 5.59375 
L 7.09375 9.296875 
Q 10.59375 6.5 14.25 5.140625 
Q 17.90625 3.796875 22.5 3.796875 
Q 28.296875 3.796875 31.84375 6.4375 
Q 35.40625 9.09375 35.40625 13.796875 
Q 35.40625 17 34.203125 19 
Q 33 21 30.09375 22.453125 
Q 27.203125 23.90625 21.59375 25.40625 
Q 13.296875 27.59375 9.640625 30.890625 
Q 6 34.203125 6 39.703125 
Q 6 43.59375 8.296875 46.75 
Q 10.59375 49.90625 14.546875 51.65625 
Q 18.5 53.40625 23.40625 53.40625 
z
" id="FiraSans-Light-73"/>
       <path d="M 28.5 53.40625 
Q 33 53.40625 36.5 52.15625 
Q 40 50.90625 43.296875 48.09375 
L 40.40625 44.296875 
Q 37.796875 46.40625 35.046875 47.40625 
Q 32.296875 48.40625 28.796875 48.40625 
Q 21.40625 48.40625 17 42.65625 
Q 12.59375 36.90625 12.59375 25.90625 
Q 12.59375 15 16.9375 9.5 
Q 21.296875 4 28.703125 4 
Q 32.203125 4 35.046875 5.09375 
Q 37.90625 6.203125 40.796875 8.40625 
L 43.59375 4.5 
Q 37 -1.09375 28.59375 -1.09375 
Q 21.90625 -1.09375 16.90625 2.09375 
Q 11.90625 5.296875 9.15625 11.34375 
Q 6.40625 17.40625 6.40625 25.796875 
Q 6.40625 34.09375 9.15625 40.34375 
Q 11.90625 46.59375 16.90625 50 
Q 21.90625 53.40625 28.5 53.40625 
z
" id="FiraSans-Light-63"/>
       <path d="M 28.59375 53.40625 
Q 39 53.40625 44.84375 46.25 
Q 50.703125 39.09375 50.703125 26.296875 
Q 50.703125 13.59375 44.75 6.25 
Q 38.796875 -1.09375 28.5 -1.09375 
Q 18.09375 -1.09375 12.25 6.15625 
Q 6.40625 13.40625 6.40625 26.09375 
Q 6.40625 34.40625 9.09375 40.59375 
Q 11.796875 46.796875 16.796875 50.09375 
Q 21.796875 53.40625 28.59375 53.40625 
z
M 28.59375 48.5 
Q 21 48.5 16.796875 42.796875 
Q 12.59375 37.09375 12.59375 26.09375 
Q 12.59375 15.203125 16.75 9.5 
Q 20.90625 3.796875 28.5 3.796875 
Q 36.09375 3.796875 40.34375 9.5 
Q 44.59375 15.203125 44.59375 26.296875 
Q 44.59375 37.203125 40.4375 42.84375 
Q 36.296875 48.5 28.59375 48.5 
z
" id="FiraSans-Light-6f"/>
       <path d="M 30.90625 53.40625 
Q 34 53.40625 36.09375 52.796875 
L 35 47.296875 
Q 32.796875 47.90625 30.40625 47.90625 
Q 25 47.90625 21.75 44 
Q 18.5 40.09375 16.40625 31.796875 
L 16.40625 0 
L 10.59375 0 
L 10.59375 52.296875 
L 15.59375 52.296875 
L 16.09375 40.59375 
Q 18.203125 47.09375 21.84375 50.25 
Q 25.5 53.40625 30.90625 53.40625 
z
" id="FiraSans-Light-72"/>
       <path d="M 19.296875 -1.09375 
Q 15 -1.09375 12.546875 1.40625 
Q 10.09375 3.90625 10.09375 8.796875 
L 10.09375 73.59375 
L 15.90625 74.296875 
L 15.90625 9 
Q 15.90625 3.90625 20.09375 3.90625 
Q 22.203125 3.90625 23.703125 4.59375 
L 25.296875 0.296875 
Q 22.5 -1.09375 19.296875 -1.09375 
z
" id="FiraSans-Light-6c"/>
       <path d="M 43.09375 11.59375 
Q 43.09375 7.5 44.140625 5.703125 
Q 45.203125 3.90625 47.5 3 
L 46.203125 -1.09375 
Q 42.59375 -0.296875 40.640625 1.703125 
Q 38.703125 3.703125 38.09375 7.59375 
Q 32.40625 -1.09375 21.796875 -1.09375 
Q 14.296875 -1.09375 9.9375 3.15625 
Q 5.59375 7.40625 5.59375 14.5 
Q 5.59375 22.59375 11.34375 27 
Q 17.09375 31.40625 27.296875 31.40625 
L 37.296875 31.40625 
L 37.296875 36.5 
Q 37.296875 42.796875 34.5 45.640625 
Q 31.703125 48.5 25.203125 48.5 
Q 19.203125 48.5 11 45.5 
L 9.5 49.90625 
Q 18.296875 53.40625 26 53.40625 
Q 43.09375 53.40625 43.09375 36.796875 
L 43.09375 11.59375 
z
M 22.796875 3.59375 
Q 32.40625 3.59375 37.296875 13 
L 37.296875 27.203125 
L 28.203125 27.203125 
Q 20.203125 27.203125 16 24.09375 
Q 11.796875 21 11.796875 14.796875 
Q 11.796875 9.40625 14.6875 6.5 
Q 17.59375 3.59375 22.796875 3.59375 
z
" id="FiraSans-Light-61"/>
      </defs>
      <g style="fill:#262626;" transform="translate(66.33111 164.291188)scale(0.1 -0.1)">
       <use xlink:href="#FiraSans-Light-52"/>
       <use x="58.999985" xlink:href="#FiraSans-Light-65"/>
       <use x="112.799973" xlink:href="#FiraSans-Light-73"/>
       <use x="159.199966" xlink:href="#FiraSans-Light-63"/>
       <use x="206.09996" xlink:href="#FiraSans-Light-6f"/>
       <use x="263.199951" xlink:href="#FiraSans-Light-72"/>
       <use x="300.499939" xlink:href="#FiraSans-Light-6c"/>
       <use x="328.899933" xlink:href="#FiraSans-Light-61"/>
      </g>
      <!-- Wagner -->
      <defs>
       <path d="M 62.90625 0 
L 55.40625 0 
L 40.40625 61.796875 
L 25.40625 0 
L 18.09375 0 
L 3 68.5 
L 9.09375 68.5 
L 22.09375 5.5 
L 37.09375 68.5 
L 43.796875 68.5 
L 59.09375 5.5 
L 72.203125 68.5 
L 77.90625 68.5 
z
" id="FiraSans-Light-57"/>
       <path d="M 49.5 51.203125 
Q 44.703125 49.90625 35 49.703125 
Q 43.90625 45.5 43.90625 35.5 
Q 43.90625 27.796875 38.796875 23.046875 
Q 33.703125 18.296875 25 18.296875 
Q 21.09375 18.296875 18.203125 19.296875 
Q 16.296875 18.203125 15.25 16.640625 
Q 14.203125 15.09375 14.203125 13.296875 
Q 14.203125 7.90625 22.5 7.90625 
L 31 7.90625 
Q 38.703125 7.90625 43.25 4.15625 
Q 47.796875 0.40625 47.796875 -5.5 
Q 47.796875 -12.703125 42.09375 -16.59375 
Q 36.40625 -20.5 25.09375 -20.5 
Q 13.40625 -20.5 8.34375 -16.953125 
Q 3.296875 -13.40625 3.296875 -5.5 
L 8.703125 -5.5 
Q 8.796875 -9.296875 10.296875 -11.5 
Q 11.796875 -13.703125 15.296875 -14.703125 
Q 18.796875 -15.703125 25.09375 -15.703125 
Q 33.90625 -15.703125 37.90625 -13.140625 
Q 41.90625 -10.59375 41.90625 -5.796875 
Q 41.90625 -1.59375 38.796875 0.65625 
Q 35.703125 2.90625 30.09375 2.90625 
L 21.59375 2.90625 
Q 15.40625 2.90625 12.046875 5.5 
Q 8.703125 8.09375 8.703125 12.09375 
Q 8.703125 14.703125 10.203125 17 
Q 11.703125 19.296875 14.40625 21 
Q 9.90625 23.296875 7.75 26.890625 
Q 5.59375 30.5 5.59375 35.703125 
Q 5.59375 43.59375 10.890625 48.5 
Q 16.203125 53.40625 24.796875 53.40625 
Q 34.296875 53.296875 38.640625 54.09375 
Q 43 54.90625 47.703125 56.796875 
z
M 24.796875 48.90625 
Q 18.296875 48.90625 14.9375 45.296875 
Q 11.59375 41.703125 11.59375 35.703125 
Q 11.59375 29.5 15.140625 26 
Q 18.703125 22.5 24.796875 22.5 
Q 31.203125 22.5 34.59375 25.953125 
Q 38 29.40625 38 35.59375 
Q 38 41.90625 34.640625 45.40625 
Q 31.296875 48.90625 24.796875 48.90625 
z
" id="FiraSans-Light-67"/>
       <path d="M 33.703125 53.40625 
Q 40.796875 53.40625 44.546875 49.203125 
Q 48.296875 45 48.296875 37.40625 
L 48.296875 0 
L 42.5 0 
L 42.5 36.59375 
Q 42.5 42.90625 40 45.796875 
Q 37.5 48.703125 32.59375 48.703125 
Q 27.59375 48.703125 23.75 45.953125 
Q 19.90625 43.203125 16.40625 37.90625 
L 16.40625 0 
L 10.59375 0 
L 10.59375 52.296875 
L 15.59375 52.296875 
L 16.09375 43.40625 
Q 23.203125 53.40625 33.703125 53.40625 
z
" id="FiraSans-Light-6e"/>
      </defs>
      <g style="fill:#262626;" transform="translate(68.736578 175.256812)scale(0.1 -0.1)">
       <use xlink:href="#FiraSans-Light-57"/>
       <use x="80.999985" xlink:href="#FiraSans-Light-61"/>
       <use x="134.599976" xlink:href="#FiraSans-Light-67"/>
       <use x="184.899963" xlink:href="#FiraSans-Light-6e"/>
       <use x="243.299957" xlink:href="#FiraSans-Light-65"/>
       <use x="297.099945" xlink:href="#FiraSans-Light-72"/>
      </g>
     </g>
    </g>
    <g id="xtick_2">
     <g id="line2d_2"/>
     <g id="text_2">
      <!-- Dual -->
      <defs>
       <path d="M 24.703125 68.5 
Q 38.90625 68.5 47.75 61.296875 
Q 56.59375 54.09375 56.59375 34.796875 
Q 56.59375 15.5 47.640625 7.75 
Q 38.703125 0 25.796875 0 
L 11.09375 0 
L 11.09375 68.5 
L 24.703125 68.5 
z
M 17.09375 63.5 
L 17.09375 5 
L 26.203125 5 
Q 50.296875 5 50.296875 34.796875 
Q 50.296875 46.59375 46.796875 52.890625 
Q 43.296875 59.203125 37.9375 61.34375 
Q 32.59375 63.5 25.5 63.5 
z
" id="FiraSans-Light-44"/>
       <path d="M 47.296875 0 
L 42.296875 0 
L 42 9.296875 
Q 35.796875 -1.09375 24.90625 -1.09375 
Q 17.796875 -1.09375 13.9375 3.046875 
Q 10.09375 7.203125 10.09375 14.90625 
L 10.09375 52.296875 
L 15.90625 52.296875 
L 15.90625 15.5 
Q 15.90625 9.40625 18.453125 6.546875 
Q 21 3.703125 26.203125 3.703125 
Q 35.296875 3.703125 41.5 14.40625 
L 41.5 52.296875 
L 47.296875 52.296875 
z
" id="FiraSans-Light-75"/>
      </defs>
      <g style="fill:#262626;" transform="translate(134.306597 164.291188)scale(0.1 -0.1)">
       <use xlink:href="#FiraSans-Light-44"/>
       <use x="63.199997" xlink:href="#FiraSans-Light-75"/>
       <use x="121.099991" xlink:href="#FiraSans-Light-61"/>
       <use x="174.699982" xlink:href="#FiraSans-Light-6c"/>
      </g>
      <!-- learning -->
      <defs>
       <path d="M 16.40625 0 
L 10.59375 0 
L 10.59375 52.296875 
L 16.40625 52.296875 
z
M 13.40625 75.296875 
Q 15.40625 75.296875 16.59375 74.09375 
Q 17.796875 72.90625 17.796875 71.09375 
Q 17.796875 69.296875 16.59375 68.09375 
Q 15.40625 66.90625 13.40625 66.90625 
Q 11.5 66.90625 10.296875 68.09375 
Q 9.109375 69.296875 9.109375 71.09375 
Q 9.109375 72.90625 10.296875 74.09375 
Q 11.5 75.296875 13.40625 75.296875 
z
" id="FiraSans-Light-69"/>
      </defs>
      <g style="fill:#262626;" transform="translate(126.10191 175.376812)scale(0.1 -0.1)">
       <use xlink:href="#FiraSans-Light-6c"/>
       <use x="28.399994" xlink:href="#FiraSans-Light-65"/>
       <use x="82.199982" xlink:href="#FiraSans-Light-61"/>
       <use x="135.799973" xlink:href="#FiraSans-Light-72"/>
       <use x="173.09996" xlink:href="#FiraSans-Light-6e"/>
       <use x="231.499954" xlink:href="#FiraSans-Light-69"/>
       <use x="258.499939" xlink:href="#FiraSans-Light-6e"/>
       <use x="316.899933" xlink:href="#FiraSans-Light-67"/>
      </g>
      <!-- rate -->
      <defs>
       <path d="M 34.40625 2.203125 
Q 29.40625 -1.09375 23.40625 -1.09375 
Q 17.40625 -1.09375 14 2.453125 
Q 10.59375 6 10.59375 12.703125 
L 10.59375 47.59375 
L 1.796875 47.59375 
L 1.796875 52.296875 
L 10.59375 52.296875 
L 10.59375 64.796875 
L 16.40625 65.5 
L 16.40625 52.296875 
L 29.90625 52.296875 
L 29.203125 47.59375 
L 16.40625 47.59375 
L 16.40625 13 
Q 16.40625 8.40625 18.296875 6.15625 
Q 20.203125 3.90625 24.09375 3.90625 
Q 28.203125 3.90625 32.09375 6.296875 
z
" id="FiraSans-Light-74"/>
      </defs>
      <g style="fill:#262626;" transform="translate(135.523003 186.342438)scale(0.1 -0.1)">
       <use xlink:href="#FiraSans-Light-72"/>
       <use x="37.299988" xlink:href="#FiraSans-Light-61"/>
       <use x="90.899979" xlink:href="#FiraSans-Light-74"/>
       <use x="124.999969" xlink:href="#FiraSans-Light-65"/>
      </g>
     </g>
    </g>
    <g id="xtick_3">
     <g id="line2d_3"/>
     <g id="text_3">
      <!-- Pearce -->
      <defs>
       <path d="M 27.203125 68.5 
Q 39.40625 68.5 45.953125 63.453125 
Q 52.5 58.40625 52.5 48 
Q 52.5 37 45.640625 31.84375 
Q 38.796875 26.703125 26.90625 26.703125 
L 17.09375 26.703125 
L 17.09375 0 
L 11.09375 0 
L 11.09375 68.5 
L 27.203125 68.5 
z
M 26.90625 31.59375 
Q 36.203125 31.59375 41.203125 35.296875 
Q 46.203125 39 46.203125 47.90625 
Q 46.203125 56.296875 41.34375 59.9375 
Q 36.5 63.59375 27.09375 63.59375 
L 17.09375 63.59375 
L 17.09375 31.59375 
L 26.90625 31.59375 
z
" id="FiraSans-Light-50"/>
      </defs>
      <g style="fill:#262626;" transform="translate(188.348491 164.291188)scale(0.1 -0.1)">
       <use xlink:href="#FiraSans-Light-50"/>
       <use x="56.999985" xlink:href="#FiraSans-Light-65"/>
       <use x="110.799973" xlink:href="#FiraSans-Light-61"/>
       <use x="164.399963" xlink:href="#FiraSans-Light-72"/>
       <use x="201.699951" xlink:href="#FiraSans-Light-63"/>
       <use x="248.599945" xlink:href="#FiraSans-Light-65"/>
      </g>
      <!-- Hall -->
      <defs>
       <path d="M 49.90625 33.5 
L 17.09375 33.5 
L 17.09375 0 
L 11.09375 0 
L 11.09375 68.5 
L 17.09375 68.5 
L 17.09375 38.59375 
L 49.90625 38.59375 
L 49.90625 68.5 
L 55.90625 68.5 
L 55.90625 0 
L 49.90625 0 
z
" id="FiraSans-Light-48"/>
      </defs>
      <g style="fill:#262626;" transform="translate(194.597709 175.256812)scale(0.1 -0.1)">
       <use xlink:href="#FiraSans-Light-48"/>
       <use x="66.999985" xlink:href="#FiraSans-Light-61"/>
       <use x="120.599976" xlink:href="#FiraSans-Light-6c"/>
       <use x="148.999969" xlink:href="#FiraSans-Light-6c"/>
      </g>
      <!-- 1 -->
      <defs>
       <path d="M 29.203125 0 
L 23.40625 0 
L 23.40625 60.09375 
L 7 49.90625 
L 4.296875 54.203125 
L 24.203125 66.5 
L 29.203125 66.5 
z
" id="FiraSans-Light-31"/>
      </defs>
      <g style="fill:#262626;" transform="translate(201.403178 186.222438)scale(0.1 -0.1)">
       <use xlink:href="#FiraSans-Light-31"/>
      </g>
     </g>
    </g>
    <g id="xtick_4">
     <g id="line2d_4"/>
     <g id="text_4">
      <!-- Pearce -->
      <g style="fill:#262626;" transform="translate(247.354447 164.291188)scale(0.1 -0.1)">
       <use xlink:href="#FiraSans-Light-50"/>
       <use x="56.999985" xlink:href="#FiraSans-Light-65"/>
       <use x="110.799973" xlink:href="#FiraSans-Light-61"/>
       <use x="164.399963" xlink:href="#FiraSans-Light-72"/>
       <use x="201.699951" xlink:href="#FiraSans-Light-63"/>
       <use x="248.599945" xlink:href="#FiraSans-Light-65"/>
      </g>
      <!-- Hall -->
      <g style="fill:#262626;" transform="translate(253.603666 175.256812)scale(0.1 -0.1)">
       <use xlink:href="#FiraSans-Light-48"/>
       <use x="66.999985" xlink:href="#FiraSans-Light-61"/>
       <use x="120.599976" xlink:href="#FiraSans-Light-6c"/>
       <use x="148.999969" xlink:href="#FiraSans-Light-6c"/>
      </g>
      <!-- 2 -->
      <defs>
       <path d="M 22.5 67.59375 
Q 30.90625 67.59375 35.84375 62.6875 
Q 40.796875 57.796875 40.796875 50.09375 
Q 40.796875 43.59375 38.09375 37.890625 
Q 35.40625 32.203125 29.65625 25.390625 
Q 23.90625 18.59375 11.09375 5.09375 
L 42.59375 5.09375 
L 41.796875 0 
L 4.296875 0 
L 4.296875 4.90625 
Q 18 19.5 23.953125 26.546875 
Q 29.90625 33.59375 32.34375 38.75 
Q 34.796875 43.90625 34.796875 49.796875 
Q 34.796875 55.703125 31.34375 59.203125 
Q 27.90625 62.703125 22.203125 62.703125 
Q 17.59375 62.703125 14.046875 60.796875 
Q 10.5 58.90625 7.40625 55.09375 
L 3.296875 58.09375 
Q 7.296875 63 11.9375 65.296875 
Q 16.59375 67.59375 22.5 67.59375 
z
" id="FiraSans-Light-32"/>
      </defs>
      <g style="fill:#262626;" transform="translate(260.078666 186.222438)scale(0.1 -0.1)">
       <use xlink:href="#FiraSans-Light-32"/>
      </g>
     </g>
    </g>
    <g id="xtick_5">
     <g id="line2d_5"/>
     <g id="text_5">
      <!-- Leaky -->
      <defs>
       <path d="M 17.09375 5.40625 
L 45.703125 5.40625 
L 44.90625 0 
L 11.09375 0 
L 11.09375 68.5 
L 17.09375 68.5 
z
" id="FiraSans-Light-4c"/>
       <path d="M 16.40625 0 
L 10.59375 0 
L 10.59375 73.59375 
L 16.40625 74.296875 
z
M 23.703125 28.90625 
L 48 0 
L 41 0 
L 17 28.59375 
L 39 52.296875 
L 45.703125 52.296875 
z
" id="FiraSans-Light-6b"/>
       <path d="M 27.296875 -0.203125 
Q 25.203125 -6.296875 22.703125 -10.1875 
Q 20.203125 -14.09375 16.203125 -16.640625 
Q 12.203125 -19.203125 5.90625 -20.40625 
L 5.296875 -15.90625 
Q 10.5 -14.59375 13.453125 -12.6875 
Q 16.40625 -10.796875 18.15625 -7.9375 
Q 19.90625 -5.09375 21.703125 0 
L 19.703125 0 
L 1.5 52.296875 
L 7.796875 52.296875 
L 23.59375 4.296875 
L 39.09375 52.296875 
L 45.203125 52.296875 
z
" id="FiraSans-Light-79"/>
      </defs>
      <g style="fill:#262626;" transform="translate(308.945559 164.291188)scale(0.1 -0.1)">
       <use xlink:href="#FiraSans-Light-4c"/>
       <use x="47.699997" xlink:href="#FiraSans-Light-65"/>
       <use x="101.499985" xlink:href="#FiraSans-Light-61"/>
       <use x="155.099976" xlink:href="#FiraSans-Light-6b"/>
       <use x="203.899963" xlink:href="#FiraSans-Light-79"/>
      </g>
      <!-- beta -->
      <defs>
       <path d="M 32.09375 53.40625 
Q 41.203125 53.40625 46.203125 46.40625 
Q 51.203125 39.40625 51.203125 26.40625 
Q 51.203125 13.703125 45.953125 6.296875 
Q 40.703125 -1.09375 31.296875 -1.09375 
Q 26.59375 -1.09375 22.75 1 
Q 18.90625 3.09375 16.203125 6.59375 
L 15.703125 0 
L 10.59375 0 
L 10.59375 73.59375 
L 16.40625 74.296875 
L 16.40625 45 
Q 22.5 53.40625 32.09375 53.40625 
z
M 30.203125 3.703125 
Q 37.296875 3.703125 41.140625 9.453125 
Q 45 15.203125 45 26.40625 
Q 45 48.59375 30.90625 48.59375 
Q 26.296875 48.59375 22.890625 46.25 
Q 19.5 43.90625 16.40625 39.59375 
L 16.40625 12 
Q 18.90625 8.09375 22.40625 5.890625 
Q 25.90625 3.703125 30.203125 3.703125 
z
" id="FiraSans-Light-62"/>
      </defs>
      <g style="fill:#262626;" transform="translate(311.501028 175.256812)scale(0.1 -0.1)">
       <use xlink:href="#FiraSans-Light-62"/>
       <use x="58.099991" xlink:href="#FiraSans-Light-65"/>
       <use x="111.899979" xlink:href="#FiraSans-Light-74"/>
       <use x="145.999969" xlink:href="#FiraSans-Light-61"/>
      </g>
     </g>
    </g>
    <g id="xtick_6">
     <g id="line2d_6"/>
     <g id="text_6">
      <!-- Asymmetric -->
      <defs>
       <path d="M 42.5 18.703125 
L 13.703125 18.703125 
L 7.703125 0 
L 1.59375 0 
L 24.5 68.5 
L 32 68.5 
L 54.796875 0 
L 48.5 0 
z
M 40.90625 23.796875 
L 28.203125 63.59375 
L 15.296875 23.796875 
z
" id="FiraSans-Light-41"/>
       <path d="M 61.59375 53.40625 
Q 67.90625 53.40625 71.546875 49.09375 
Q 75.203125 44.796875 75.203125 37.40625 
L 75.203125 0 
L 69.40625 0 
L 69.40625 36.59375 
Q 69.40625 42.796875 67.046875 45.75 
Q 64.703125 48.703125 60.5 48.703125 
Q 56.09375 48.703125 52.59375 45.890625 
Q 49.09375 43.09375 45.796875 37.90625 
L 45.796875 0 
L 40 0 
L 40 36.59375 
Q 40 42.796875 37.640625 45.75 
Q 35.296875 48.703125 31.09375 48.703125 
Q 26.59375 48.703125 23.09375 45.890625 
Q 19.59375 43.09375 16.40625 37.90625 
L 16.40625 0 
L 10.59375 0 
L 10.59375 52.296875 
L 15.59375 52.296875 
L 16.09375 43.5 
Q 19.203125 48.09375 23.25 50.75 
Q 27.296875 53.40625 32.203125 53.40625 
Q 37.203125 53.40625 40.546875 50.703125 
Q 43.90625 48 45.09375 43 
Q 52 53.40625 61.59375 53.40625 
z
" id="FiraSans-Light-6d"/>
      </defs>
      <g style="fill:#262626;" transform="translate(354.516359 164.381812)scale(0.1 -0.1)">
       <use xlink:href="#FiraSans-Light-41"/>
       <use x="56.499985" xlink:href="#FiraSans-Light-73"/>
       <use x="102.899979" xlink:href="#FiraSans-Light-79"/>
       <use x="149.699966" xlink:href="#FiraSans-Light-6d"/>
       <use x="234.999954" xlink:href="#FiraSans-Light-6d"/>
       <use x="320.299942" xlink:href="#FiraSans-Light-65"/>
       <use x="374.09993" xlink:href="#FiraSans-Light-74"/>
       <use x="408.199921" xlink:href="#FiraSans-Light-72"/>
       <use x="445.499908" xlink:href="#FiraSans-Light-69"/>
       <use x="472.499893" xlink:href="#FiraSans-Light-63"/>
      </g>
      <!-- leaky -->
      <g style="fill:#262626;" transform="translate(368.916359 175.347438)scale(0.1 -0.1)">
       <use xlink:href="#FiraSans-Light-6c"/>
       <use x="28.399994" xlink:href="#FiraSans-Light-65"/>
       <use x="82.199982" xlink:href="#FiraSans-Light-61"/>
       <use x="135.799973" xlink:href="#FiraSans-Light-6b"/>
       <use x="184.59996" xlink:href="#FiraSans-Light-79"/>
      </g>
      <!-- beta -->
      <g style="fill:#262626;" transform="translate(370.506984 186.313063)scale(0.1 -0.1)">
       <use xlink:href="#FiraSans-Light-62"/>
       <use x="58.099991" xlink:href="#FiraSans-Light-65"/>
       <use x="111.899979" xlink:href="#FiraSans-Light-74"/>
       <use x="145.999969" xlink:href="#FiraSans-Light-61"/>
      </g>
     </g>
    </g>
    <g id="text_7">
     <!-- MODEL -->
     <defs>
      <path d="M 70.09375 0 
L 64.296875 0 
L 61.203125 32.796875 
Q 59.296875 52 58.59375 62.703125 
L 41.40625 8.09375 
L 35.703125 8.09375 
L 17.90625 62.703125 
Q 17.59375 57.40625 15.90625 36.296875 
L 15.59375 33 
L 12.59375 0 
L 6.90625 0 
L 13.40625 68.5 
L 21.703125 68.5 
L 38.703125 15.09375 
L 55.09375 68.5 
L 63.5 68.5 
z
" id="FiraSans-Light-4d"/>
      <path d="M 34.5 69.59375 
Q 42.90625 69.59375 49.203125 65.546875 
Q 55.5 61.5 59 53.5 
Q 62.5 45.5 62.5 34.203125 
Q 62.5 23.09375 59.046875 15.140625 
Q 55.59375 7.203125 49.296875 3.046875 
Q 43 -1.09375 34.5 -1.09375 
Q 26.203125 -1.09375 19.890625 3 
Q 13.59375 7.09375 10.09375 15 
Q 6.59375 22.90625 6.59375 34.09375 
Q 6.59375 45.203125 10.09375 53.203125 
Q 13.59375 61.203125 19.9375 65.390625 
Q 26.296875 69.59375 34.5 69.59375 
z
M 34.5 64.5 
Q 24.5 64.5 18.703125 56.84375 
Q 12.90625 49.203125 12.90625 34.09375 
Q 12.90625 19.203125 18.75 11.59375 
Q 24.59375 4 34.5 4 
Q 44.796875 4 50.5 11.546875 
Q 56.203125 19.09375 56.203125 34.203125 
Q 56.203125 49.40625 50.453125 56.953125 
Q 44.703125 64.5 34.5 64.5 
z
" id="FiraSans-Light-4f"/>
      <path d="M 45.203125 63.5 
L 17.09375 63.5 
L 17.09375 38 
L 41.40625 38 
L 41.40625 33 
L 17.09375 33 
L 17.09375 5 
L 46.59375 5 
L 46.59375 0 
L 11.09375 0 
L 11.09375 68.5 
L 45.90625 68.5 
z
" id="FiraSans-Light-45"/>
     </defs>
     <g style="fill:#262626;" transform="translate(217.521 199.822125)scale(0.1 -0.1)">
      <use xlink:href="#FiraSans-Light-4d"/>
      <use x="77.799988" xlink:href="#FiraSans-Light-4f"/>
      <use x="146.899979" xlink:href="#FiraSans-Light-44"/>
      <use x="210.099976" xlink:href="#FiraSans-Light-45"/>
      <use x="261.299973" xlink:href="#FiraSans-Light-4c"/>
     </g>
    </g>
   </g>
   <g id="matplotlib.axis_2">
    <g id="ytick_1">
     <g id="line2d_7"/>
     <g id="text_8">
      <!-- 0.0 -->
      <defs>
       <path d="M 27.5 67.59375 
Q 37.796875 67.59375 43.09375 58.84375 
Q 48.40625 50.09375 48.40625 33.203125 
Q 48.40625 16.40625 43.046875 7.65625 
Q 37.703125 -1.09375 27.5 -1.09375 
Q 17.203125 -1.09375 11.890625 7.65625 
Q 6.59375 16.40625 6.59375 33.296875 
Q 6.59375 50.203125 11.890625 58.890625 
Q 17.203125 67.59375 27.5 67.59375 
z
M 27.5 62.796875 
Q 12.59375 62.796875 12.59375 33.296875 
Q 12.59375 3.703125 27.5 3.703125 
Q 34.796875 3.703125 38.546875 10.890625 
Q 42.296875 18.09375 42.296875 33.203125 
Q 42.296875 48.296875 38.546875 55.546875 
Q 34.796875 62.796875 27.5 62.796875 
z
" id="FiraSans-Light-30"/>
       <path d="M 10.296875 8.40625 
Q 12.40625 8.40625 13.75 7.046875 
Q 15.09375 5.703125 15.09375 3.703125 
Q 15.09375 1.59375 13.75 0.25 
Q 12.40625 -1.09375 10.296875 -1.09375 
Q 8.296875 -1.09375 6.890625 0.296875 
Q 5.5 1.703125 5.5 3.703125 
Q 5.5 5.703125 6.890625 7.046875 
Q 8.296875 8.40625 10.296875 8.40625 
z
" id="FiraSans-Light-2e"/>
      </defs>
      <g style="fill:#262626;" transform="translate(28.171688 157.076344)scale(0.1 -0.1)">
       <use xlink:href="#FiraSans-Light-30"/>
       <use x="54.999985" xlink:href="#FiraSans-Light-2e"/>
       <use x="75.699982" xlink:href="#FiraSans-Light-30"/>
      </g>
     </g>
    </g>
    <g id="ytick_2">
     <g id="line2d_8"/>
     <g id="text_9">
      <!-- 0.1 -->
      <g style="fill:#262626;" transform="translate(29.542 131.635484)scale(0.1 -0.1)">
       <use xlink:href="#FiraSans-Light-30"/>
       <use x="54.999985" xlink:href="#FiraSans-Light-2e"/>
       <use x="75.699982" xlink:href="#FiraSans-Light-31"/>
      </g>
     </g>
    </g>
    <g id="ytick_3">
     <g id="line2d_9"/>
     <g id="text_10">
      <!-- 0.2 -->
      <g style="fill:#262626;" transform="translate(28.881063 106.194624)scale(0.1 -0.1)">
       <use xlink:href="#FiraSans-Light-30"/>
       <use x="54.999985" xlink:href="#FiraSans-Light-2e"/>
       <use x="75.699982" xlink:href="#FiraSans-Light-32"/>
      </g>
     </g>
    </g>
    <g id="ytick_4">
     <g id="line2d_10"/>
     <g id="text_11">
      <!-- 0.3 -->
      <defs>
       <path d="M 22.09375 67.59375 
Q 27.703125 67.59375 31.84375 65.390625 
Q 36 63.203125 38.203125 59.453125 
Q 40.40625 55.703125 40.40625 51 
Q 40.40625 44.5 36.75 40.453125 
Q 33.09375 36.40625 27.203125 35.40625 
Q 33.796875 35.09375 38.046875 30.75 
Q 42.296875 26.40625 42.296875 18.796875 
Q 42.296875 13 39.6875 8.5 
Q 37.09375 4 32.25 1.453125 
Q 27.40625 -1.09375 21.09375 -1.09375 
Q 9.5 -1.09375 2 7.5 
L 5.703125 10.796875 
Q 9.09375 7.09375 12.75 5.4375 
Q 16.40625 3.796875 20.90625 3.796875 
Q 28.09375 3.796875 32.1875 7.890625 
Q 36.296875 12 36.296875 18.703125 
Q 36.296875 32.703125 21.296875 32.703125 
L 16.90625 32.703125 
L 17.703125 37.40625 
L 20.90625 37.40625 
Q 26.59375 37.40625 30.59375 40.84375 
Q 34.59375 44.296875 34.59375 50.703125 
Q 34.59375 56.203125 31.09375 59.453125 
Q 27.59375 62.703125 21.796875 62.703125 
Q 17.59375 62.703125 14.09375 61.25 
Q 10.59375 59.796875 7 56.5 
L 3.90625 60.09375 
Q 7.90625 63.90625 12.296875 65.75 
Q 16.703125 67.59375 22.09375 67.59375 
z
" id="FiraSans-Light-33"/>
      </defs>
      <g style="fill:#262626;" transform="translate(28.812313 80.753764)scale(0.1 -0.1)">
       <use xlink:href="#FiraSans-Light-30"/>
       <use x="54.999985" xlink:href="#FiraSans-Light-2e"/>
       <use x="75.699982" xlink:href="#FiraSans-Light-33"/>
      </g>
     </g>
    </g>
    <g id="ytick_5">
     <g id="line2d_11"/>
     <g id="text_12">
      <!-- 0.4 -->
      <defs>
       <path d="M 48.296875 17.5 
L 39.296875 17.5 
L 39.296875 0 
L 33.59375 0 
L 33.59375 17.5 
L 4.5 17.5 
L 4.5 21.796875 
L 24.796875 67.59375 
L 29.703125 65.59375 
L 10.703125 22.296875 
L 33.703125 22.296875 
L 34.296875 41.796875 
L 39.296875 41.796875 
L 39.296875 22.296875 
L 48.296875 22.296875 
z
" id="FiraSans-Light-34"/>
      </defs>
      <g style="fill:#262626;" transform="translate(28.492 55.312903)scale(0.1 -0.1)">
       <use xlink:href="#FiraSans-Light-30"/>
       <use x="54.999985" xlink:href="#FiraSans-Light-2e"/>
       <use x="75.699982" xlink:href="#FiraSans-Light-34"/>
      </g>
     </g>
    </g>
    <g id="ytick_6">
     <g id="line2d_12"/>
     <g id="text_13">
      <!-- 0.5 -->
      <defs>
       <path d="M 40.5 61.703125 
L 13.5 61.703125 
L 13.5 39 
Q 19 42.09375 24.90625 42.09375 
Q 33.5 42.09375 38.546875 36.546875 
Q 43.59375 31 43.59375 21.40625 
Q 43.59375 14.90625 40.9375 9.75 
Q 38.296875 4.59375 33.4375 1.75 
Q 28.59375 -1.09375 22.203125 -1.09375 
Q 11.09375 -1.09375 3.40625 6.90625 
L 7.09375 10.40625 
Q 10.203125 7 13.796875 5.390625 
Q 17.40625 3.796875 22.203125 3.796875 
Q 29.296875 3.796875 33.390625 8.546875 
Q 37.5 13.296875 37.5 21.5 
Q 37.5 29.5 33.75 33.453125 
Q 30 37.40625 23.59375 37.40625 
Q 20.40625 37.40625 17.953125 36.65625 
Q 15.5 35.90625 12.5 34.203125 
L 7.90625 34.203125 
L 7.90625 66.5 
L 41.40625 66.5 
z
" id="FiraSans-Light-35"/>
      </defs>
      <g style="fill:#262626;" transform="translate(28.801375 29.872043)scale(0.1 -0.1)">
       <use xlink:href="#FiraSans-Light-30"/>
       <use x="54.999985" xlink:href="#FiraSans-Light-2e"/>
       <use x="75.699982" xlink:href="#FiraSans-Light-35"/>
      </g>
     </g>
    </g>
    <g id="text_14">
     <!-- $R^2$ -->
     <defs>
      <path d="M 25.203125 64.796875 
L 20.21875 38.921875 
L 32.90625 38.921875 
Q 40.375 38.921875 44.984375 43.046875 
Q 49.609375 47.171875 49.609375 53.8125 
Q 49.609375 59.125 46.5 61.953125 
Q 43.40625 64.796875 37.59375 64.796875 
z
M 43.3125 35.015625 
Q 46.4375 34.28125 48.515625 31.390625 
Q 50.59375 28.515625 53.328125 19.921875 
L 59.515625 0 
L 49.125 0 
L 43.40625 18.703125 
Q 41.21875 25.921875 38.328125 28.359375 
Q 35.453125 30.8125 29.5 30.8125 
L 18.609375 30.8125 
L 12.59375 0 
L 2.6875 0 
L 16.890625 72.90625 
L 39.109375 72.90625 
Q 49.21875 72.90625 54.609375 68.328125 
Q 60.015625 63.765625 60.015625 55.171875 
Q 60.015625 47.5625 55.421875 41.984375 
Q 50.828125 36.421875 43.3125 35.015625 
z
" id="DejaVuSans-Oblique-52"/>
      <path d="M 19.1875 8.296875 
L 53.609375 8.296875 
L 53.609375 0 
L 7.328125 0 
L 7.328125 8.296875 
Q 12.9375 14.109375 22.625 23.890625 
Q 32.328125 33.6875 34.8125 36.53125 
Q 39.546875 41.84375 41.421875 45.53125 
Q 43.3125 49.21875 43.3125 52.78125 
Q 43.3125 58.59375 39.234375 62.25 
Q 35.15625 65.921875 28.609375 65.921875 
Q 23.96875 65.921875 18.8125 64.3125 
Q 13.671875 62.703125 7.8125 59.421875 
L 7.8125 69.390625 
Q 13.765625 71.78125 18.9375 73 
Q 24.125 74.21875 28.421875 74.21875 
Q 39.75 74.21875 46.484375 68.546875 
Q 53.21875 62.890625 53.21875 53.421875 
Q 53.21875 48.921875 51.53125 44.890625 
Q 49.859375 40.875 45.40625 35.40625 
Q 44.1875 33.984375 37.640625 27.21875 
Q 31.109375 20.453125 19.1875 8.296875 
z
" id="DejaVuSans-32"/>
     </defs>
     <g style="fill:#262626;" transform="translate(22.121688 88.28075)rotate(-90)scale(0.1 -0.1)">
      <use transform="translate(0 0.765625)" xlink:href="#DejaVuSans-Oblique-52"/>
      <use transform="translate(76.499193 39.046875)scale(0.7)" xlink:href="#DejaVuSans-32"/>
     </g>
    </g>
   </g>
   <g id="patch_3">
    <path clip-path="url(#p9bb7e2d478)" d="M 61.853727 153.3615 
L 109.058492 153.3615 
L 109.058492 48.30717 
L 61.853727 48.30717 
z
" style="fill:#267fd3;"/>
   </g>
   <g id="patch_4">
    <path clip-path="url(#p9bb7e2d478)" d="M 120.859683 153.3615 
L 168.064448 153.3615 
L 168.064448 28.48322 
L 120.859683 28.48322 
z
" style="fill:#267fd3;"/>
   </g>
   <g id="patch_5">
    <path clip-path="url(#p9bb7e2d478)" d="M 179.865639 153.3615 
L 227.070404 153.3615 
L 227.070404 48.350386 
L 179.865639 48.350386 
z
" style="fill:#267fd3;"/>
   </g>
   <g id="patch_6">
    <path clip-path="url(#p9bb7e2d478)" d="M 238.871596 153.3615 
L 286.076361 153.3615 
L 286.076361 48.691488 
L 238.871596 48.691488 
z
" style="fill:#267fd3;"/>
   </g>
   <g id="patch_7">
    <path clip-path="url(#p9bb7e2d478)" d="M 297.877552 153.3615 
L 345.082317 153.3615 
L 345.082317 42.783629 
L 297.877552 42.783629 
z
" style="fill:#267fd3;"/>
   </g>
   <g id="patch_8">
    <path clip-path="url(#p9bb7e2d478)" d="M 356.883508 153.3615 
L 404.088273 153.3615 
L 404.088273 17.588643 
L 356.883508 17.588643 
z
" style="fill:#e88300;"/>
   </g>
   <g id="patch_9">
    <path d="M 44.742 153.3615 
L 44.742 10.8 
" style="fill:none;stroke:#262626;stroke-linecap:square;stroke-linejoin:miter;stroke-width:1.25;"/>
   </g>
   <g id="patch_10">
    <path d="M 421.2 153.3615 
L 421.2 10.8 
" style="fill:none;stroke:#262626;stroke-linecap:square;stroke-linejoin:miter;stroke-width:1.25;"/>
   </g>
   <g id="patch_11">
    <path d="M 44.742 153.3615 
L 421.2 153.3615 
" style="fill:none;stroke:#262626;stroke-linecap:square;stroke-linejoin:miter;stroke-width:1.25;"/>
   </g>
   <g id="patch_12">
    <path d="M 44.742 10.8 
L 421.2 10.8 
" style="fill:none;stroke:#262626;stroke-linecap:square;stroke-linejoin:miter;stroke-width:1.25;"/>
   </g>
   <g id="text_15">
    <!-- 1 -->
    <g style="fill:#ffffff;" transform="translate(77.196735 118.863256)scale(0.4 -0.4)">
     <use xlink:href="#FiraSans-Light-31"/>
    </g>
   </g>
   <g id="text_16">
    <!-- 2 -->
    <g style="fill:#ffffff;" transform="translate(134.880816 118.863256)scale(0.4 -0.4)">
     <use xlink:href="#FiraSans-Light-32"/>
    </g>
   </g>
   <g id="text_17">
    <!-- 3 -->
    <g style="fill:#ffffff;" transform="translate(193.749272 118.863256)scale(0.4 -0.4)">
     <use xlink:href="#FiraSans-Light-33"/>
    </g>
   </g>
   <g id="text_18">
    <!-- 4 -->
    <g style="fill:#ffffff;" transform="translate(252.114603 118.863256)scale(0.4 -0.4)">
     <use xlink:href="#FiraSans-Light-34"/>
    </g>
   </g>
   <g id="text_19">
    <!-- 5 -->
    <g style="fill:#ffffff;" transform="translate(311.739309 118.863256)scale(0.4 -0.4)">
     <use xlink:href="#FiraSans-Light-35"/>
    </g>
   </g>
   <g id="text_20">
    <!-- 6 -->
    <defs>
     <path d="M 29.59375 43.296875 
Q 37.296875 43.296875 42.296875 37.9375 
Q 47.296875 32.59375 47.296875 22.40625 
Q 47.296875 15.296875 44.75 9.9375 
Q 42.203125 4.59375 37.75 1.75 
Q 33.296875 -1.09375 27.703125 -1.09375 
Q 16.703125 -1.09375 11.640625 7.34375 
Q 6.59375 15.796875 6.59375 30 
Q 6.59375 41.5 9.5 50 
Q 12.40625 58.5 17.796875 63.046875 
Q 23.203125 67.59375 30.59375 67.59375 
Q 37.296875 67.59375 43 63.703125 
L 40.5 59.703125 
Q 35.703125 62.796875 30.5 62.796875 
Q 22.296875 62.796875 17.546875 54.6875 
Q 12.796875 46.59375 12.5 33.40625 
Q 19.203125 43.296875 29.59375 43.296875 
z
M 27.703125 3.703125 
Q 34.296875 3.703125 37.84375 8.75 
Q 41.40625 13.796875 41.40625 22.203125 
Q 41.40625 30.5 37.953125 34.5 
Q 34.5 38.5 28.796875 38.5 
Q 23.796875 38.5 19.640625 35.546875 
Q 15.5 32.59375 12.5 27.5 
Q 12.796875 15.90625 16.390625 9.796875 
Q 20 3.703125 27.703125 3.703125 
z
" id="FiraSans-Light-36"/>
    </defs>
    <g style="fill:#ffffff;" transform="translate(370.00464 118.863256)scale(0.4 -0.4)">
     <use xlink:href="#FiraSans-Light-36"/>
    </g>
   </g>
  </g>
 </g>
 <defs>
  <clipPath id="p9bb7e2d478">
   <rect height="142.5615" width="376.458" x="44.742" y="10.8"/>
  </clipPath>
 </defs>
</svg>
