<?xml version="1.0" encoding="utf-8" standalone="no"?>
<!DOCTYPE svg PUBLIC "-//W3C//DTD SVG 1.1//EN"
  "http://www.w3.org/Graphics/SVG/1.1/DTD/svg11.dtd">
<!-- Created with matplotlib (http://matplotlib.org/) -->
<svg height="216pt" version="1.1" viewBox="0 0 432 216" width="432pt" xmlns="http://www.w3.org/2000/svg" xmlns:xlink="http://www.w3.org/1999/xlink">
 <defs>
  <style type="text/css">
*{stroke-linecap:butt;stroke-linejoin:round;}
  </style>
 </defs>
 <g id="figure_1">
  <g id="patch_1">
   <path d="M 0 216 
L 432 216 
L 432 0 
L 0 0 
z
" style="fill:#fbfbfb;"/>
  </g>
  <g id="axes_1">
   <g id="patch_2">
    <path d="M 61.56425 173.90225 
L 274.51475 173.90225 
L 274.51475 39.24825 
L 61.56425 39.24825 
z
" style="fill:#fbfbfb;"/>
   </g>
   <g id="PathCollection_1">
    <defs>
     <path d="M 0 3 
C 0.795609 3 1.55874 2.683901 2.12132 2.12132 
C 2.683901 1.55874 3 0.795609 3 0 
C 3 -0.795609 2.683901 -1.55874 2.12132 -2.12132 
C 1.55874 -2.683901 0.795609 -3 0 -3 
C -0.795609 -3 -1.55874 -2.683901 -2.12132 -2.12132 
C -2.683901 -1.55874 -3 -0.795609 -3 0 
C -3 0.795609 -2.683901 1.55874 -2.12132 2.12132 
C -1.55874 2.683901 -0.795609 3 0 3 
z
" id="ma00ac27fae" style="stroke:#267fd3;"/>
    </defs>
    <g clip-path="url(#pcb9238b425)">
     <use style="fill:#267fd3;stroke:#267fd3;" x="71.878691" xlink:href="#ma00ac27fae" y="127.77787"/>
     <use style="fill:#267fd3;stroke:#267fd3;" x="131.518236" xlink:href="#ma00ac27fae" y="114.193506"/>
     <use style="fill:#267fd3;stroke:#267fd3;" x="191.15778" xlink:href="#ma00ac27fae" y="94.818201"/>
     <use style="fill:#267fd3;stroke:#267fd3;" x="250.797325" xlink:href="#ma00ac27fae" y="122.212917"/>
    </g>
   </g>
   <g id="PathCollection_2">
    <defs>
     <path d="M 0 3 
C 0.795609 3 1.55874 2.683901 2.12132 2.12132 
C 2.683901 1.55874 3 0.795609 3 0 
C 3 -0.795609 2.683901 -1.55874 2.12132 -2.12132 
C 1.55874 -2.683901 0.795609 -3 0 -3 
C -0.795609 -3 -1.55874 -2.683901 -2.12132 -2.12132 
C -2.683901 -1.55874 -3 -0.795609 -3 0 
C -3 0.795609 -2.683901 1.55874 -2.12132 2.12132 
C -1.55874 2.683901 -0.795609 3 0 3 
z
" id="m7f4c09c89c" style="stroke:#e88300;"/>
    </defs>
    <g clip-path="url(#pcb9238b425)">
     <use style="fill:#e88300;stroke:#e88300;" x="83.8066" xlink:href="#m7f4c09c89c" y="119.059119"/>
     <use style="fill:#e88300;stroke:#e88300;" x="143.446144" xlink:href="#m7f4c09c89c" y="117.825979"/>
     <use style="fill:#e88300;stroke:#e88300;" x="203.085689" xlink:href="#m7f4c09c89c" y="76.273425"/>
     <use style="fill:#e88300;stroke:#e88300;" x="262.725234" xlink:href="#m7f4c09c89c" y="139.301913"/>
    </g>
   </g>
   <g id="matplotlib.axis_1">
    <g id="xtick_1">
     <g id="line2d_1">
      <defs>
       <path d="M 0 0 
L 0 3.5 
" id="m85c278e579" style="stroke:#000000;stroke-width:0.8;"/>
      </defs>
      <g>
       <use style="stroke:#000000;stroke-width:0.8;" x="77.842645" xlink:href="#m85c278e579" y="173.90225"/>
      </g>
     </g>
     <g id="text_1">
      <!-- $\lambda$ -->
      <defs>
       <path d="M 36.71875 67.4375 
L 48.828125 0 
L 39.3125 0 
L 31.84375 40.4375 
L 5.125 0 
L -4.390625 0 
L 29.734375 52.4375 
L 28.03125 62.109375 
Q 26.953125 68.265625 21.734375 68.265625 
L 17.046875 68.265625 
L 18.5 75.984375 
L 24.21875 75.875 
Q 35.203125 75.734375 36.71875 67.4375 
z
" id="DejaVuSans-Oblique-3bb"/>
      </defs>
      <g transform="translate(74.842645 188.331938)scale(0.1 -0.1)">
       <use transform="translate(0 0.015625)" xlink:href="#DejaVuSans-Oblique-3bb"/>
      </g>
      <!--  -->
      <g transform="translate(77.842645 199.297562)scale(0.1 -0.1)"/>
     </g>
    </g>
    <g id="xtick_2">
     <g id="line2d_2">
      <g>
       <use style="stroke:#000000;stroke-width:0.8;" x="137.48219" xlink:href="#m85c278e579" y="173.90225"/>
      </g>
     </g>
     <g id="text_2">
      <!-- $\omega$ -->
      <defs>
       <path d="M 21.390625 -1.421875 
Q 1.125 -1.421875 6.78125 27.59375 
Q 8.984375 39.0625 19.625 54.6875 
L 29.296875 54.6875 
Q 19.234375 39.0625 17 27.34375 
Q 12.796875 6.203125 23.734375 6.203125 
Q 33.84375 6.203125 38.71875 32.46875 
L 47.015625 32.46875 
Q 41.703125 6.0625 51.8125 6.203125 
Q 62.703125 6.296875 66.796875 27.34375 
Q 69.046875 39.0625 65.140625 54.6875 
L 74.8125 54.6875 
Q 79.296875 39.0625 77.09375 27.59375 
Q 71.53125 -1.46875 51.21875 -1.421875 
Q 37.9375 -1.375 39.109375 13.1875 
Q 34.28125 -1.421875 21.390625 -1.421875 
z
" id="DejaVuSans-Oblique-3c9"/>
      </defs>
      <g transform="translate(133.28219 188.331938)scale(0.1 -0.1)">
       <use transform="translate(0 0.3125)" xlink:href="#DejaVuSans-Oblique-3c9"/>
      </g>
      <!--  -->
      <g transform="translate(137.48219 199.297562)scale(0.1 -0.1)"/>
     </g>
    </g>
    <g id="xtick_3">
     <g id="line2d_3">
      <g>
       <use style="stroke:#000000;stroke-width:0.8;" x="197.121735" xlink:href="#m85c278e579" y="173.90225"/>
      </g>
     </g>
     <g id="text_3">
      <!-- $\tau^-$ -->
      <defs>
       <path d="M 32.859375 9.96875 
Q 34.1875 7.625 39.453125 7.625 
L 43.75 7.625 
L 42.28125 0 
L 36.921875 0 
Q 28.125 0 25 4.6875 
Q 21.921875 9.46875 23.96875 19.828125 
L 29 45.703125 
L 8.453125 45.703125 
L 10.203125 54.6875 
L 60.640625 54.6875 
L 58.890625 45.703125 
L 38.1875 45.703125 
L 33.015625 19.28125 
Q 31.640625 12.203125 32.859375 9.96875 
z
" id="DejaVuSans-Oblique-3c4"/>
       <path d="M 10.59375 35.5 
L 73.1875 35.5 
L 73.1875 27.203125 
L 10.59375 27.203125 
z
" id="DejaVuSans-2212"/>
      </defs>
      <g transform="translate(189.421735 188.331938)scale(0.1 -0.1)">
       <use transform="translate(0 0.86875)" xlink:href="#DejaVuSans-Oblique-3c4"/>
       <use transform="translate(78.308919 39.15)scale(0.7)" xlink:href="#DejaVuSans-2212"/>
      </g>
      <!--  -->
      <g transform="translate(197.121735 199.297562)scale(0.1 -0.1)"/>
     </g>
    </g>
    <g id="xtick_4">
     <g id="line2d_4">
      <g>
       <use style="stroke:#000000;stroke-width:0.8;" x="256.76128" xlink:href="#m85c278e579" y="173.90225"/>
      </g>
     </g>
     <g id="text_4">
      <!-- $\tau^+$ -->
      <defs>
       <path d="M 46 62.703125 
L 46 35.5 
L 73.1875 35.5 
L 73.1875 27.203125 
L 46 27.203125 
L 46 0 
L 37.796875 0 
L 37.796875 27.203125 
L 10.59375 27.203125 
L 10.59375 35.5 
L 37.796875 35.5 
L 37.796875 62.703125 
z
" id="DejaVuSans-2b"/>
      </defs>
      <g transform="translate(249.06128 188.331938)scale(0.1 -0.1)">
       <use transform="translate(0 0.826562)" xlink:href="#DejaVuSans-Oblique-3c4"/>
       <use transform="translate(78.308919 39.107812)scale(0.7)" xlink:href="#DejaVuSans-2b"/>
      </g>
      <!--  -->
      <g transform="translate(256.76128 199.297562)scale(0.1 -0.1)"/>
     </g>
    </g>
   </g>
   <g id="matplotlib.axis_2">
    <g id="ytick_1">
     <g id="line2d_5">
      <defs>
       <path d="M 0 0 
L -3.5 0 
" id="m3fba935598" style="stroke:#000000;stroke-width:0.8;"/>
      </defs>
      <g>
       <use style="stroke:#000000;stroke-width:0.8;" x="61.56425" xlink:href="#m3fba935598" y="173.90225"/>
      </g>
     </g>
     <g id="text_5">
      <!-- −1.0 -->
      <defs>
       <path d="M 6.90625 35.703125 
L 42.40625 35.703125 
L 42.40625 30.59375 
L 6.90625 30.59375 
z
" id="FiraSans-Light-2212"/>
       <path d="M 29.203125 0 
L 23.40625 0 
L 23.40625 60.09375 
L 7 49.90625 
L 4.296875 54.203125 
L 24.203125 66.5 
L 29.203125 66.5 
z
" id="FiraSans-Light-31"/>
       <path d="M 10.296875 8.40625 
Q 12.40625 8.40625 13.75 7.046875 
Q 15.09375 5.703125 15.09375 3.703125 
Q 15.09375 1.59375 13.75 0.25 
Q 12.40625 -1.09375 10.296875 -1.09375 
Q 8.296875 -1.09375 6.890625 0.296875 
Q 5.5 1.703125 5.5 3.703125 
Q 5.5 5.703125 6.890625 7.046875 
Q 8.296875 8.40625 10.296875 8.40625 
z
" id="FiraSans-Light-2e"/>
       <path d="M 27.5 67.59375 
Q 37.796875 67.59375 43.09375 58.84375 
Q 48.40625 50.09375 48.40625 33.203125 
Q 48.40625 16.40625 43.046875 7.65625 
Q 37.703125 -1.09375 27.5 -1.09375 
Q 17.203125 -1.09375 11.890625 7.65625 
Q 6.59375 16.40625 6.59375 33.296875 
Q 6.59375 50.203125 11.890625 58.890625 
Q 17.203125 67.59375 27.5 67.59375 
z
M 27.5 62.796875 
Q 12.59375 62.796875 12.59375 33.296875 
Q 12.59375 3.703125 27.5 3.703125 
Q 34.796875 3.703125 38.546875 10.890625 
Q 42.296875 18.09375 42.296875 33.203125 
Q 42.296875 48.296875 38.546875 55.546875 
Q 34.796875 62.796875 27.5 62.796875 
z
" id="FiraSans-Light-30"/>
      </defs>
      <g transform="translate(37.934563 177.617094)scale(0.1 -0.1)">
       <use xlink:href="#FiraSans-Light-2212"/>
       <use x="49.299988" xlink:href="#FiraSans-Light-31"/>
       <use x="90.599976" xlink:href="#FiraSans-Light-2e"/>
       <use x="111.299973" xlink:href="#FiraSans-Light-30"/>
      </g>
     </g>
    </g>
    <g id="ytick_2">
     <g id="line2d_6">
      <g>
       <use style="stroke:#000000;stroke-width:0.8;" x="61.56425" xlink:href="#m3fba935598" y="144.629641"/>
      </g>
     </g>
     <g id="text_6">
      <!-- −0.5 -->
      <defs>
       <path d="M 40.5 61.703125 
L 13.5 61.703125 
L 13.5 39 
Q 19 42.09375 24.90625 42.09375 
Q 33.5 42.09375 38.546875 36.546875 
Q 43.59375 31 43.59375 21.40625 
Q 43.59375 14.90625 40.9375 9.75 
Q 38.296875 4.59375 33.4375 1.75 
Q 28.59375 -1.09375 22.203125 -1.09375 
Q 11.09375 -1.09375 3.40625 6.90625 
L 7.09375 10.40625 
Q 10.203125 7 13.796875 5.390625 
Q 17.40625 3.796875 22.203125 3.796875 
Q 29.296875 3.796875 33.390625 8.546875 
Q 37.5 13.296875 37.5 21.5 
Q 37.5 29.5 33.75 33.453125 
Q 30 37.40625 23.59375 37.40625 
Q 20.40625 37.40625 17.953125 36.65625 
Q 15.5 35.90625 12.5 34.203125 
L 7.90625 34.203125 
L 7.90625 66.5 
L 41.40625 66.5 
z
" id="FiraSans-Light-35"/>
      </defs>
      <g transform="translate(37.193938 148.344485)scale(0.1 -0.1)">
       <use xlink:href="#FiraSans-Light-2212"/>
       <use x="49.299988" xlink:href="#FiraSans-Light-30"/>
       <use x="104.299973" xlink:href="#FiraSans-Light-2e"/>
       <use x="124.999969" xlink:href="#FiraSans-Light-35"/>
      </g>
     </g>
    </g>
    <g id="ytick_3">
     <g id="line2d_7">
      <g>
       <use style="stroke:#000000;stroke-width:0.8;" x="61.56425" xlink:href="#m3fba935598" y="115.357033"/>
      </g>
     </g>
     <g id="text_7">
      <!-- 0.0 -->
      <g transform="translate(41.493938 119.071876)scale(0.1 -0.1)">
       <use xlink:href="#FiraSans-Light-30"/>
       <use x="54.999985" xlink:href="#FiraSans-Light-2e"/>
       <use x="75.699982" xlink:href="#FiraSans-Light-30"/>
      </g>
     </g>
    </g>
    <g id="ytick_4">
     <g id="line2d_8">
      <g>
       <use style="stroke:#000000;stroke-width:0.8;" x="61.56425" xlink:href="#m3fba935598" y="86.084424"/>
      </g>
     </g>
     <g id="text_8">
      <!-- 0.5 -->
      <g transform="translate(42.123625 89.799268)scale(0.1 -0.1)">
       <use xlink:href="#FiraSans-Light-30"/>
       <use x="54.999985" xlink:href="#FiraSans-Light-2e"/>
       <use x="75.699982" xlink:href="#FiraSans-Light-35"/>
      </g>
     </g>
    </g>
    <g id="ytick_5">
     <g id="line2d_9">
      <g>
       <use style="stroke:#000000;stroke-width:0.8;" x="61.56425" xlink:href="#m3fba935598" y="56.811815"/>
      </g>
     </g>
     <g id="text_9">
      <!-- 1.0 -->
      <g transform="translate(42.86425 60.526659)scale(0.1 -0.1)">
       <use xlink:href="#FiraSans-Light-31"/>
       <use x="41.299988" xlink:href="#FiraSans-Light-2e"/>
       <use x="61.999985" xlink:href="#FiraSans-Light-30"/>
      </g>
     </g>
    </g>
    <g id="text_10">
     <!-- REGRESSION COEFFICIENT -->
     <defs>
      <path d="M 30.796875 30.703125 
L 17.09375 30.703125 
L 17.09375 0 
L 11.09375 0 
L 11.09375 68.5 
L 27.703125 68.5 
Q 52.09375 68.5 52.09375 49.90625 
Q 52.09375 42.5 48.1875 38.09375 
Q 44.296875 33.703125 36.796875 31.796875 
L 55.59375 0 
L 48.40625 0 
z
M 28.5 35.59375 
Q 45.703125 35.59375 45.703125 49.90625 
Q 45.703125 56.90625 41.390625 60.25 
Q 37.09375 63.59375 27.5 63.59375 
L 17.09375 63.59375 
L 17.09375 35.59375 
z
" id="FiraSans-Light-52"/>
      <path d="M 45.203125 63.5 
L 17.09375 63.5 
L 17.09375 38 
L 41.40625 38 
L 41.40625 33 
L 17.09375 33 
L 17.09375 5 
L 46.59375 5 
L 46.59375 0 
L 11.09375 0 
L 11.09375 68.5 
L 45.90625 68.5 
z
" id="FiraSans-Light-45"/>
      <path d="M 35 69.59375 
Q 40.90625 69.59375 45.25 67.9375 
Q 49.59375 66.296875 54 62.796875 
L 50.40625 59.09375 
Q 46.703125 61.90625 43.203125 63.203125 
Q 39.703125 64.5 35.09375 64.5 
Q 29.296875 64.5 24.25 61.390625 
Q 19.203125 58.296875 16.046875 51.546875 
Q 12.90625 44.796875 12.90625 34.5 
Q 12.90625 19.203125 18.703125 11.59375 
Q 24.5 4 34.90625 4 
Q 42.90625 4 49.296875 7.59375 
L 49.296875 31.90625 
L 35.90625 31.90625 
L 35.203125 36.90625 
L 55.203125 36.90625 
L 55.203125 4.5 
Q 45.59375 -1.09375 34.59375 -1.09375 
Q 26.09375 -1.09375 19.796875 2.90625 
Q 13.5 6.90625 10.046875 14.90625 
Q 6.59375 22.90625 6.59375 34.5 
Q 6.59375 45.703125 10.59375 53.640625 
Q 14.59375 61.59375 21.09375 65.59375 
Q 27.59375 69.59375 35 69.59375 
z
" id="FiraSans-Light-47"/>
      <path d="M 26.703125 69.59375 
Q 33 69.59375 37.546875 67.75 
Q 42.09375 65.90625 46.40625 62 
L 42.90625 58.203125 
Q 39 61.5 35.296875 63 
Q 31.59375 64.5 26.90625 64.5 
Q 20.5 64.5 16.59375 61.34375 
Q 12.703125 58.203125 12.703125 52.90625 
Q 12.703125 49.296875 14.140625 46.9375 
Q 15.59375 44.59375 19 42.75 
Q 22.40625 40.90625 28.703125 39 
Q 35.5 36.90625 39.703125 34.5 
Q 43.90625 32.09375 46.203125 28.296875 
Q 48.5 24.5 48.5 18.703125 
Q 48.5 12.90625 45.703125 8.40625 
Q 42.90625 3.90625 37.75 1.40625 
Q 32.59375 -1.09375 25.796875 -1.09375 
Q 13 -1.09375 3.90625 7.5 
L 7.40625 11.296875 
Q 11.5 7.703125 15.796875 5.84375 
Q 20.09375 4 25.703125 4 
Q 33.09375 4 37.75 7.890625 
Q 42.40625 11.796875 42.40625 18.5 
Q 42.40625 22.703125 40.84375 25.390625 
Q 39.296875 28.09375 35.84375 30.046875 
Q 32.40625 32 26.09375 34 
Q 15.59375 37.203125 11.09375 41.390625 
Q 6.59375 45.59375 6.59375 52.796875 
Q 6.59375 57.59375 9.140625 61.4375 
Q 11.703125 65.296875 16.25 67.4375 
Q 20.796875 69.59375 26.703125 69.59375 
z
" id="FiraSans-Light-53"/>
      <path d="M 17.09375 0 
L 11.09375 0 
L 11.09375 68.5 
L 17.09375 68.5 
z
" id="FiraSans-Light-49"/>
      <path d="M 34.5 69.59375 
Q 42.90625 69.59375 49.203125 65.546875 
Q 55.5 61.5 59 53.5 
Q 62.5 45.5 62.5 34.203125 
Q 62.5 23.09375 59.046875 15.140625 
Q 55.59375 7.203125 49.296875 3.046875 
Q 43 -1.09375 34.5 -1.09375 
Q 26.203125 -1.09375 19.890625 3 
Q 13.59375 7.09375 10.09375 15 
Q 6.59375 22.90625 6.59375 34.09375 
Q 6.59375 45.203125 10.09375 53.203125 
Q 13.59375 61.203125 19.9375 65.390625 
Q 26.296875 69.59375 34.5 69.59375 
z
M 34.5 64.5 
Q 24.5 64.5 18.703125 56.84375 
Q 12.90625 49.203125 12.90625 34.09375 
Q 12.90625 19.203125 18.75 11.59375 
Q 24.59375 4 34.5 4 
Q 44.796875 4 50.5 11.546875 
Q 56.203125 19.09375 56.203125 34.203125 
Q 56.203125 49.40625 50.453125 56.953125 
Q 44.703125 64.5 34.5 64.5 
z
" id="FiraSans-Light-4f"/>
      <path d="M 56.203125 0 
L 48.296875 0 
L 16 61.90625 
Q 16.796875 49.40625 16.796875 38.296875 
L 16.796875 0 
L 11.09375 0 
L 11.09375 68.5 
L 18.796875 68.5 
L 51.296875 6.59375 
Q 50.5 18.203125 50.5 26.90625 
L 50.5 68.5 
L 56.203125 68.5 
z
" id="FiraSans-Light-4e"/>
      <path id="FiraSans-Light-20"/>
      <path d="M 34.296875 69.59375 
Q 40 69.59375 43.953125 68.046875 
Q 47.90625 66.5 51.90625 63.296875 
L 48.703125 59.296875 
Q 45.203125 62.09375 42 63.296875 
Q 38.796875 64.5 34.703125 64.5 
Q 25 64.5 18.953125 57.09375 
Q 12.90625 49.703125 12.90625 34.296875 
Q 12.90625 24.296875 15.703125 17.5 
Q 18.5 10.703125 23.34375 7.453125 
Q 28.203125 4.203125 34.40625 4.203125 
Q 39.203125 4.203125 42.546875 5.640625 
Q 45.90625 7.09375 49.5 10 
L 52.703125 6 
Q 45.40625 -1.09375 34.203125 -1.09375 
Q 26.203125 -1.09375 19.953125 3 
Q 13.703125 7.09375 10.140625 15.046875 
Q 6.59375 23 6.59375 34.296875 
Q 6.59375 45.59375 10.296875 53.546875 
Q 14 61.5 20.25 65.546875 
Q 26.5 69.59375 34.296875 69.59375 
z
" id="FiraSans-Light-43"/>
      <path d="M 44.59375 63.5 
L 17.09375 63.5 
L 17.09375 36.796875 
L 40.796875 36.796875 
L 40.796875 31.796875 
L 17.09375 31.796875 
L 17.09375 0 
L 11.09375 0 
L 11.09375 68.5 
L 45.296875 68.5 
z
" id="FiraSans-Light-46"/>
      <path d="M 47.796875 63.203125 
L 27.703125 63.203125 
L 27.703125 0 
L 21.796875 0 
L 21.796875 63.203125 
L 1.5 63.203125 
L 1.5 68.5 
L 48.5 68.5 
z
" id="FiraSans-Light-54"/>
     </defs>
     <g transform="translate(19.865187 163.245563)rotate(-90)scale(0.1 -0.1)">
      <use xlink:href="#FiraSans-Light-52"/>
      <use x="58.999985" xlink:href="#FiraSans-Light-45"/>
      <use x="110.199982" xlink:href="#FiraSans-Light-47"/>
      <use x="171.999969" xlink:href="#FiraSans-Light-52"/>
      <use x="230.999954" xlink:href="#FiraSans-Light-45"/>
      <use x="282.199951" xlink:href="#FiraSans-Light-53"/>
      <use x="336.099945" xlink:href="#FiraSans-Light-53"/>
      <use x="389.999939" xlink:href="#FiraSans-Light-49"/>
      <use x="418.199936" xlink:href="#FiraSans-Light-4f"/>
      <use x="487.299927" xlink:href="#FiraSans-Light-4e"/>
      <use x="554.599915" xlink:href="#FiraSans-Light-20"/>
      <use x="582.499908" xlink:href="#FiraSans-Light-43"/>
      <use x="637.499893" xlink:href="#FiraSans-Light-4f"/>
      <use x="706.599884" xlink:href="#FiraSans-Light-45"/>
      <use x="757.799881" xlink:href="#FiraSans-Light-46"/>
      <use x="805.899872" xlink:href="#FiraSans-Light-46"/>
      <use x="853.999863" xlink:href="#FiraSans-Light-49"/>
      <use x="882.19986" xlink:href="#FiraSans-Light-43"/>
      <use x="937.199844" xlink:href="#FiraSans-Light-49"/>
      <use x="965.399841" xlink:href="#FiraSans-Light-45"/>
      <use x="1016.599838" xlink:href="#FiraSans-Light-4e"/>
      <use x="1083.899826" xlink:href="#FiraSans-Light-54"/>
     </g>
     <!-- (+/- 95% HPD Interval) -->
     <defs>
      <path d="M 27 81.296875 
Q 21.703125 73.40625 18.5 67.25 
Q 15.296875 61.09375 13.34375 53.1875 
Q 11.40625 45.296875 11.40625 35 
Q 11.40625 24.703125 13.34375 16.796875 
Q 15.296875 8.90625 18.5 2.75 
Q 21.703125 -3.40625 27 -11.296875 
L 23.296875 -13.703125 
Q 17.09375 -5 13.546875 1.203125 
Q 10 7.40625 7.703125 15.703125 
Q 5.40625 24 5.40625 35 
Q 5.40625 46 7.703125 54.296875 
Q 10 62.59375 13.546875 68.796875 
Q 17.09375 75 23.296875 83.703125 
z
" id="FiraSans-Light-28"/>
      <path d="M 27.40625 35.59375 
L 42.40625 35.59375 
L 42.40625 30.59375 
L 27.40625 30.59375 
L 27.40625 15.40625 
L 21.90625 15.40625 
L 21.90625 30.59375 
L 6.90625 30.59375 
L 6.90625 35.59375 
L 21.90625 35.59375 
L 21.90625 50.796875 
L 27.40625 50.796875 
z
" id="FiraSans-Light-2b"/>
      <path d="M 40.09375 79.09375 
L 16.90625 -10 
L 11.90625 -8.703125 
L 35.09375 80.296875 
z
" id="FiraSans-Light-2f"/>
      <path d="M 6.796875 33.796875 
L 33.296875 33.796875 
L 33.296875 28.796875 
L 6.796875 28.796875 
z
" id="FiraSans-Light-2d"/>
      <path d="M 25.5 67.59375 
Q 35.59375 67.59375 40.640625 60.546875 
Q 45.703125 53.5 45.703125 40.796875 
Q 45.703125 27.90625 42 19.703125 
Q 38.296875 11.5 31.140625 6.59375 
Q 24 1.703125 12.296875 -1.90625 
L 10.796875 2.59375 
Q 24.59375 6.796875 31.796875 14.046875 
Q 39 21.296875 39.703125 34.09375 
Q 36.796875 29.703125 32.640625 27.25 
Q 28.5 24.796875 23.40625 24.796875 
Q 18.203125 24.796875 14.09375 27.34375 
Q 10 29.90625 7.640625 34.65625 
Q 5.296875 39.40625 5.296875 45.796875 
Q 5.296875 52.40625 7.9375 57.34375 
Q 10.59375 62.296875 15.1875 64.9375 
Q 19.796875 67.59375 25.5 67.59375 
z
M 24.40625 29.59375 
Q 29.203125 29.59375 32.890625 32.140625 
Q 36.59375 34.703125 39.796875 39.59375 
Q 39.90625 51.5 36.5 57.140625 
Q 33.09375 62.796875 25.703125 62.796875 
Q 19 62.796875 15.140625 58.34375 
Q 11.296875 53.90625 11.296875 45.703125 
Q 11.296875 38 14.84375 33.796875 
Q 18.40625 29.59375 24.40625 29.59375 
z
" id="FiraSans-Light-39"/>
      <path d="M 65.296875 67.59375 
L 18.90625 -2.40625 
L 14.703125 0.40625 
L 61 70.296875 
z
M 20.296875 67.59375 
Q 27 67.59375 31.09375 63.1875 
Q 35.203125 58.796875 35.203125 51.40625 
Q 35.203125 44 31.140625 39.546875 
Q 27.09375 35.09375 20.296875 35.09375 
Q 13.59375 35.09375 9.4375 39.5 
Q 5.296875 43.90625 5.296875 51.296875 
Q 5.296875 58.703125 9.390625 63.140625 
Q 13.5 67.59375 20.296875 67.59375 
z
M 20.296875 63.40625 
Q 15.296875 63.40625 13 60 
Q 10.703125 56.59375 10.703125 51.296875 
Q 10.703125 46.09375 13 42.6875 
Q 15.296875 39.296875 20.296875 39.296875 
Q 25.296875 39.296875 27.546875 42.6875 
Q 29.796875 46.09375 29.796875 51.40625 
Q 29.796875 56.59375 27.546875 60 
Q 25.296875 63.40625 20.296875 63.40625 
z
M 59 31.40625 
Q 65.703125 31.40625 69.84375 27 
Q 74 22.59375 74 15.296875 
Q 74 7.796875 69.890625 3.34375 
Q 65.796875 -1.09375 59 -1.09375 
Q 52.40625 -1.09375 48.25 3.34375 
Q 44.09375 7.796875 44.09375 15.09375 
Q 44.09375 22.59375 48.140625 27 
Q 52.203125 31.40625 59 31.40625 
z
M 59 27.203125 
Q 54.09375 27.203125 51.796875 23.796875 
Q 49.5 20.40625 49.5 15.09375 
Q 49.5 9.90625 51.796875 6.5 
Q 54.09375 3.09375 59 3.09375 
Q 64 3.09375 66.296875 6.5 
Q 68.59375 9.90625 68.59375 15.296875 
Q 68.59375 20.40625 66.296875 23.796875 
Q 64 27.203125 59 27.203125 
z
" id="FiraSans-Light-25"/>
      <path d="M 49.90625 33.5 
L 17.09375 33.5 
L 17.09375 0 
L 11.09375 0 
L 11.09375 68.5 
L 17.09375 68.5 
L 17.09375 38.59375 
L 49.90625 38.59375 
L 49.90625 68.5 
L 55.90625 68.5 
L 55.90625 0 
L 49.90625 0 
z
" id="FiraSans-Light-48"/>
      <path d="M 27.203125 68.5 
Q 39.40625 68.5 45.953125 63.453125 
Q 52.5 58.40625 52.5 48 
Q 52.5 37 45.640625 31.84375 
Q 38.796875 26.703125 26.90625 26.703125 
L 17.09375 26.703125 
L 17.09375 0 
L 11.09375 0 
L 11.09375 68.5 
L 27.203125 68.5 
z
M 26.90625 31.59375 
Q 36.203125 31.59375 41.203125 35.296875 
Q 46.203125 39 46.203125 47.90625 
Q 46.203125 56.296875 41.34375 59.9375 
Q 36.5 63.59375 27.09375 63.59375 
L 17.09375 63.59375 
L 17.09375 31.59375 
L 26.90625 31.59375 
z
" id="FiraSans-Light-50"/>
      <path d="M 24.703125 68.5 
Q 38.90625 68.5 47.75 61.296875 
Q 56.59375 54.09375 56.59375 34.796875 
Q 56.59375 15.5 47.640625 7.75 
Q 38.703125 0 25.796875 0 
L 11.09375 0 
L 11.09375 68.5 
L 24.703125 68.5 
z
M 17.09375 63.5 
L 17.09375 5 
L 26.203125 5 
Q 50.296875 5 50.296875 34.796875 
Q 50.296875 46.59375 46.796875 52.890625 
Q 43.296875 59.203125 37.9375 61.34375 
Q 32.59375 63.5 25.5 63.5 
z
" id="FiraSans-Light-44"/>
      <path d="M 33.703125 53.40625 
Q 40.796875 53.40625 44.546875 49.203125 
Q 48.296875 45 48.296875 37.40625 
L 48.296875 0 
L 42.5 0 
L 42.5 36.59375 
Q 42.5 42.90625 40 45.796875 
Q 37.5 48.703125 32.59375 48.703125 
Q 27.59375 48.703125 23.75 45.953125 
Q 19.90625 43.203125 16.40625 37.90625 
L 16.40625 0 
L 10.59375 0 
L 10.59375 52.296875 
L 15.59375 52.296875 
L 16.09375 43.40625 
Q 23.203125 53.40625 33.703125 53.40625 
z
" id="FiraSans-Light-6e"/>
      <path d="M 34.40625 2.203125 
Q 29.40625 -1.09375 23.40625 -1.09375 
Q 17.40625 -1.09375 14 2.453125 
Q 10.59375 6 10.59375 12.703125 
L 10.59375 47.59375 
L 1.796875 47.59375 
L 1.796875 52.296875 
L 10.59375 52.296875 
L 10.59375 64.796875 
L 16.40625 65.5 
L 16.40625 52.296875 
L 29.90625 52.296875 
L 29.203125 47.59375 
L 16.40625 47.59375 
L 16.40625 13 
Q 16.40625 8.40625 18.296875 6.15625 
Q 20.203125 3.90625 24.09375 3.90625 
Q 28.203125 3.90625 32.09375 6.296875 
z
" id="FiraSans-Light-74"/>
      <path d="M 47.703125 28.09375 
Q 47.703125 25.90625 47.5 23.90625 
L 12.59375 23.90625 
Q 13.09375 13.703125 17.4375 8.75 
Q 21.796875 3.796875 28.90625 3.796875 
Q 33 3.796875 36.140625 5.046875 
Q 39.296875 6.296875 43 9 
L 45.703125 5.296875 
Q 41.796875 2.09375 37.6875 0.5 
Q 33.59375 -1.09375 28.59375 -1.09375 
Q 18.203125 -1.09375 12.296875 6 
Q 6.40625 13.09375 6.40625 25.703125 
Q 6.40625 34 8.953125 40.25 
Q 11.5 46.5 16.25 49.953125 
Q 21 53.40625 27.296875 53.40625 
Q 37.296875 53.40625 42.5 46.65625 
Q 47.703125 39.90625 47.703125 28.09375 
z
M 42 29.90625 
Q 42 38.703125 38.34375 43.640625 
Q 34.703125 48.59375 27.5 48.59375 
Q 21.09375 48.59375 17.046875 43.59375 
Q 13 38.59375 12.5 28.40625 
L 42 28.40625 
z
" id="FiraSans-Light-65"/>
      <path d="M 30.90625 53.40625 
Q 34 53.40625 36.09375 52.796875 
L 35 47.296875 
Q 32.796875 47.90625 30.40625 47.90625 
Q 25 47.90625 21.75 44 
Q 18.5 40.09375 16.40625 31.796875 
L 16.40625 0 
L 10.59375 0 
L 10.59375 52.296875 
L 15.59375 52.296875 
L 16.09375 40.59375 
Q 18.203125 47.09375 21.84375 50.25 
Q 25.5 53.40625 30.90625 53.40625 
z
" id="FiraSans-Light-72"/>
      <path d="M 27.40625 0 
L 20.203125 0 
L 1.5 52.296875 
L 7.90625 52.296875 
L 23.796875 5.09375 
L 39.296875 52.296875 
L 45.5 52.296875 
z
" id="FiraSans-Light-76"/>
      <path d="M 43.09375 11.59375 
Q 43.09375 7.5 44.140625 5.703125 
Q 45.203125 3.90625 47.5 3 
L 46.203125 -1.09375 
Q 42.59375 -0.296875 40.640625 1.703125 
Q 38.703125 3.703125 38.09375 7.59375 
Q 32.40625 -1.09375 21.796875 -1.09375 
Q 14.296875 -1.09375 9.9375 3.15625 
Q 5.59375 7.40625 5.59375 14.5 
Q 5.59375 22.59375 11.34375 27 
Q 17.09375 31.40625 27.296875 31.40625 
L 37.296875 31.40625 
L 37.296875 36.5 
Q 37.296875 42.796875 34.5 45.640625 
Q 31.703125 48.5 25.203125 48.5 
Q 19.203125 48.5 11 45.5 
L 9.5 49.90625 
Q 18.296875 53.40625 26 53.40625 
Q 43.09375 53.40625 43.09375 36.796875 
L 43.09375 11.59375 
z
M 22.796875 3.59375 
Q 32.40625 3.59375 37.296875 13 
L 37.296875 27.203125 
L 28.203125 27.203125 
Q 20.203125 27.203125 16 24.09375 
Q 11.796875 21 11.796875 14.796875 
Q 11.796875 9.40625 14.6875 6.5 
Q 17.59375 3.59375 22.796875 3.59375 
z
" id="FiraSans-Light-61"/>
      <path d="M 19.296875 -1.09375 
Q 15 -1.09375 12.546875 1.40625 
Q 10.09375 3.90625 10.09375 8.796875 
L 10.09375 73.59375 
L 15.90625 74.296875 
L 15.90625 9 
Q 15.90625 3.90625 20.09375 3.90625 
Q 22.203125 3.90625 23.703125 4.59375 
L 25.296875 0.296875 
Q 22.5 -1.09375 19.296875 -1.09375 
z
" id="FiraSans-Light-6c"/>
      <path d="M 9.09375 83.703125 
Q 15.296875 75 18.84375 68.796875 
Q 22.40625 62.59375 24.703125 54.296875 
Q 27 46 27 35 
Q 27 24 24.703125 15.703125 
Q 22.40625 7.40625 18.84375 1.203125 
Q 15.296875 -5 9.09375 -13.703125 
L 5.40625 -11.296875 
Q 10.703125 -3.40625 13.890625 2.75 
Q 17.09375 8.90625 19.046875 16.796875 
Q 21 24.703125 21 35 
Q 21 45.296875 19.046875 53.1875 
Q 17.09375 61.09375 13.890625 67.25 
Q 10.703125 73.40625 5.40625 81.296875 
L 9.09375 83.703125 
z
" id="FiraSans-Light-29"/>
     </defs>
     <g transform="translate(31.143937 156.461188)rotate(-90)scale(0.1 -0.1)">
      <use xlink:href="#FiraSans-Light-28"/>
      <use x="32.399994" xlink:href="#FiraSans-Light-2b"/>
      <use x="81.699982" xlink:href="#FiraSans-Light-2f"/>
      <use x="133.699966" xlink:href="#FiraSans-Light-2d"/>
      <use x="173.799957" xlink:href="#FiraSans-Light-20"/>
      <use x="201.699951" xlink:href="#FiraSans-Light-39"/>
      <use x="253.499939" xlink:href="#FiraSans-Light-35"/>
      <use x="302.199936" xlink:href="#FiraSans-Light-25"/>
      <use x="381.499924" xlink:href="#FiraSans-Light-20"/>
      <use x="409.399918" xlink:href="#FiraSans-Light-48"/>
      <use x="476.399902" xlink:href="#FiraSans-Light-50"/>
      <use x="533.399887" xlink:href="#FiraSans-Light-44"/>
      <use x="596.599884" xlink:href="#FiraSans-Light-20"/>
      <use x="624.499878" xlink:href="#FiraSans-Light-49"/>
      <use x="652.699875" xlink:href="#FiraSans-Light-6e"/>
      <use x="711.099869" xlink:href="#FiraSans-Light-74"/>
      <use x="745.19986" xlink:href="#FiraSans-Light-65"/>
      <use x="798.999847" xlink:href="#FiraSans-Light-72"/>
      <use x="836.299835" xlink:href="#FiraSans-Light-76"/>
      <use x="883.29982" xlink:href="#FiraSans-Light-61"/>
      <use x="936.899811" xlink:href="#FiraSans-Light-6c"/>
      <use x="965.299805" xlink:href="#FiraSans-Light-29"/>
     </g>
    </g>
   </g>
   <g id="LineCollection_1">
    <path clip-path="url(#pcb9238b425)" d="M 71.878691 144.963879 
L 71.878691 111.675997 
" style="fill:none;stroke:#267fd3;stroke-width:1.5;"/>
    <path clip-path="url(#pcb9238b425)" d="M 131.518236 130.051771 
L 131.518236 98.833953 
" style="fill:none;stroke:#267fd3;stroke-width:1.5;"/>
    <path clip-path="url(#pcb9238b425)" d="M 191.15778 127.794432 
L 191.15778 63.981683 
" style="fill:none;stroke:#267fd3;stroke-width:1.5;"/>
    <path clip-path="url(#pcb9238b425)" d="M 250.797325 154.063537 
L 250.797325 90.66044 
" style="fill:none;stroke:#267fd3;stroke-width:1.5;"/>
   </g>
   <g id="LineCollection_2">
    <path clip-path="url(#pcb9238b425)" d="M 83.8066 134.965095 
L 83.8066 102.61743 
" style="fill:none;stroke:#e88300;stroke-width:1.5;"/>
    <path clip-path="url(#pcb9238b425)" d="M 143.446144 133.174066 
L 143.446144 102.583305 
" style="fill:none;stroke:#e88300;stroke-width:1.5;"/>
    <path clip-path="url(#pcb9238b425)" d="M 203.085689 107.09693 
L 203.085689 43.494762 
" style="fill:none;stroke:#e88300;stroke-width:1.5;"/>
    <path clip-path="url(#pcb9238b425)" d="M 262.725234 171.558964 
L 262.725234 108.171594 
" style="fill:none;stroke:#e88300;stroke-width:1.5;"/>
   </g>
   <g id="line2d_10">
    <path clip-path="url(#pcb9238b425)" d="M 61.56425 115.357033 
L 274.51475 115.357033 
" style="fill:none;stroke:#808080;stroke-dasharray:1.5,2.475;stroke-dashoffset:0;stroke-width:1.5;"/>
   </g>
   <g id="line2d_11">
    <path clip-path="url(#pcb9238b425)" d="M 61.56425 115.357033 
L 274.51475 115.357033 
" style="fill:none;stroke:#808080;stroke-dasharray:1.5,2.475;stroke-dashoffset:0;stroke-width:1.5;"/>
   </g>
   <g id="patch_3">
    <path d="M 61.56425 173.90225 
L 61.56425 39.24825 
" style="fill:none;stroke:#000000;stroke-linecap:square;stroke-linejoin:miter;stroke-width:0.8;"/>
   </g>
   <g id="patch_4">
    <path d="M 61.56425 173.90225 
L 274.51475 173.90225 
" style="fill:none;stroke:#000000;stroke-linecap:square;stroke-linejoin:miter;stroke-width:0.8;"/>
   </g>
   <g id="text_11">
    <!-- MODEL PARAMETERS -->
    <defs>
     <path d="M 70.09375 0 
L 64.296875 0 
L 61.203125 32.796875 
Q 59.296875 52 58.59375 62.703125 
L 41.40625 8.09375 
L 35.703125 8.09375 
L 17.90625 62.703125 
Q 17.59375 57.40625 15.90625 36.296875 
L 15.59375 33 
L 12.59375 0 
L 6.90625 0 
L 13.40625 68.5 
L 21.703125 68.5 
L 38.703125 15.09375 
L 55.09375 68.5 
L 63.5 68.5 
z
" id="FiraSans-Light-4d"/>
     <path d="M 17.09375 5.40625 
L 45.703125 5.40625 
L 44.90625 0 
L 11.09375 0 
L 11.09375 68.5 
L 17.09375 68.5 
z
" id="FiraSans-Light-4c"/>
     <path d="M 42.5 18.703125 
L 13.703125 18.703125 
L 7.703125 0 
L 1.59375 0 
L 24.5 68.5 
L 32 68.5 
L 54.796875 0 
L 48.5 0 
z
M 40.90625 23.796875 
L 28.203125 63.59375 
L 15.296875 23.796875 
z
" id="FiraSans-Light-41"/>
    </defs>
    <g transform="translate(113.528563 33.24825)scale(0.12 -0.12)">
     <use xlink:href="#FiraSans-Light-4d"/>
     <use x="77.799988" xlink:href="#FiraSans-Light-4f"/>
     <use x="146.899979" xlink:href="#FiraSans-Light-44"/>
     <use x="210.099976" xlink:href="#FiraSans-Light-45"/>
     <use x="261.299973" xlink:href="#FiraSans-Light-4c"/>
     <use x="308.999969" xlink:href="#FiraSans-Light-20"/>
     <use x="336.899963" xlink:href="#FiraSans-Light-50"/>
     <use x="393.899948" xlink:href="#FiraSans-Light-41"/>
     <use x="450.399933" xlink:href="#FiraSans-Light-52"/>
     <use x="509.399918" xlink:href="#FiraSans-Light-41"/>
     <use x="565.899902" xlink:href="#FiraSans-Light-4d"/>
     <use x="643.69989" xlink:href="#FiraSans-Light-45"/>
     <use x="694.899887" xlink:href="#FiraSans-Light-54"/>
     <use x="744.399872" xlink:href="#FiraSans-Light-45"/>
     <use x="795.599869" xlink:href="#FiraSans-Light-52"/>
     <use x="854.599854" xlink:href="#FiraSans-Light-53"/>
    </g>
   </g>
   <g id="legend_1">
    <g id="patch_5">
     <path d="M 68.56425 76.207625 
L 165.036125 76.207625 
Q 167.036125 76.207625 167.036125 74.207625 
L 167.036125 46.24825 
Q 167.036125 44.24825 165.036125 44.24825 
L 68.56425 44.24825 
Q 66.56425 44.24825 66.56425 46.24825 
L 66.56425 74.207625 
Q 66.56425 76.207625 68.56425 76.207625 
z
" style="fill:#fbfbfb;opacity:0.8;stroke:#cccccc;stroke-linejoin:miter;"/>
    </g>
    <g id="PathCollection_3">
     <g>
      <use style="fill:#267fd3;stroke:#267fd3;" x="80.56425" xlink:href="#ma00ac27fae" y="53.052938"/>
     </g>
    </g>
    <g id="text_12">
     <!-- TRAIT ANXIETY -->
     <defs>
      <path d="M 50.40625 0 
L 43.59375 0 
L 25.40625 33 
L 7.5 0 
L 1 0 
L 21.90625 36.796875 
L 3.09375 68.5 
L 9.90625 68.5 
L 25.5 40.703125 
L 41.09375 68.5 
L 47.59375 68.5 
L 29 37.09375 
z
" id="FiraSans-Light-58"/>
      <path d="M 29.203125 26.796875 
L 29.203125 0 
L 23.203125 0 
L 23.203125 26.703125 
L 1.296875 68.5 
L 8 68.5 
L 26.40625 32 
L 44.5 68.5 
L 50.90625 68.5 
z
" id="FiraSans-Light-59"/>
     </defs>
     <g transform="translate(98.56425 55.677938)scale(0.1 -0.1)">
      <use xlink:href="#FiraSans-Light-54"/>
      <use x="49.499985" xlink:href="#FiraSans-Light-52"/>
      <use x="108.499969" xlink:href="#FiraSans-Light-41"/>
      <use x="164.999954" xlink:href="#FiraSans-Light-49"/>
      <use x="193.199951" xlink:href="#FiraSans-Light-54"/>
      <use x="242.699936" xlink:href="#FiraSans-Light-20"/>
      <use x="270.59993" xlink:href="#FiraSans-Light-41"/>
      <use x="327.099915" xlink:href="#FiraSans-Light-4e"/>
      <use x="394.399902" xlink:href="#FiraSans-Light-58"/>
      <use x="445.599899" xlink:href="#FiraSans-Light-49"/>
      <use x="473.799896" xlink:href="#FiraSans-Light-45"/>
      <use x="524.999893" xlink:href="#FiraSans-Light-54"/>
      <use x="574.499878" xlink:href="#FiraSans-Light-59"/>
     </g>
    </g>
    <g id="PathCollection_4">
     <g>
      <use style="fill:#e88300;stroke:#e88300;" x="80.56425" xlink:href="#m7f4c09c89c" y="67.532625"/>
     </g>
    </g>
    <g id="text_13">
     <!-- STATE ANXIETY -->
     <g transform="translate(98.56425 70.157625)scale(0.1 -0.1)">
      <use xlink:href="#FiraSans-Light-53"/>
      <use x="53.899994" xlink:href="#FiraSans-Light-54"/>
      <use x="103.399979" xlink:href="#FiraSans-Light-41"/>
      <use x="159.899963" xlink:href="#FiraSans-Light-54"/>
      <use x="209.399948" xlink:href="#FiraSans-Light-45"/>
      <use x="260.599945" xlink:href="#FiraSans-Light-20"/>
      <use x="288.499939" xlink:href="#FiraSans-Light-41"/>
      <use x="344.999924" xlink:href="#FiraSans-Light-4e"/>
      <use x="412.299911" xlink:href="#FiraSans-Light-58"/>
      <use x="463.499908" xlink:href="#FiraSans-Light-49"/>
      <use x="491.699905" xlink:href="#FiraSans-Light-45"/>
      <use x="542.899902" xlink:href="#FiraSans-Light-54"/>
      <use x="592.399887" xlink:href="#FiraSans-Light-59"/>
     </g>
    </g>
   </g>
  </g>
  <g id="axes_2">
   <g id="patch_6">
    <path d="M 312.20475 173.90225 
L 418.68 173.90225 
L 418.68 39.24825 
L 312.20475 39.24825 
z
" style="fill:#fbfbfb;"/>
   </g>
   <g id="PathCollection_5">
    <g clip-path="url(#pd61a222a66)">
     <use style="fill:#267fd3;stroke:#267fd3;" x="333.4998" xlink:href="#ma00ac27fae" y="122.243393"/>
     <use style="fill:#267fd3;stroke:#267fd3;" x="386.737425" xlink:href="#ma00ac27fae" y="132.421956"/>
    </g>
   </g>
   <g id="PathCollection_6">
    <g clip-path="url(#pd61a222a66)">
     <use style="fill:#e88300;stroke:#e88300;" x="344.147325" xlink:href="#m7f4c09c89c" y="124.629749"/>
     <use style="fill:#e88300;stroke:#e88300;" x="397.38495" xlink:href="#m7f4c09c89c" y="119.883352"/>
    </g>
   </g>
   <g id="matplotlib.axis_3">
    <g id="xtick_5">
     <g id="line2d_12">
      <g>
       <use style="stroke:#000000;stroke-width:0.8;" x="338.823562" xlink:href="#m85c278e579" y="173.90225"/>
      </g>
     </g>
     <g id="text_14">
      <!-- Shock -->
      <defs>
       <path d="M 33.703125 53.40625 
Q 40.703125 53.40625 44.5 49.15625 
Q 48.296875 44.90625 48.296875 37.40625 
L 48.296875 0 
L 42.5 0 
L 42.5 36.59375 
Q 42.5 48.703125 32.59375 48.703125 
Q 27.59375 48.703125 23.75 45.953125 
Q 19.90625 43.203125 16.40625 37.90625 
L 16.40625 0 
L 10.59375 0 
L 10.59375 73.59375 
L 16.40625 74.296875 
L 16.40625 43.59375 
Q 23.40625 53.40625 33.703125 53.40625 
z
" id="FiraSans-Light-68"/>
       <path d="M 28.59375 53.40625 
Q 39 53.40625 44.84375 46.25 
Q 50.703125 39.09375 50.703125 26.296875 
Q 50.703125 13.59375 44.75 6.25 
Q 38.796875 -1.09375 28.5 -1.09375 
Q 18.09375 -1.09375 12.25 6.15625 
Q 6.40625 13.40625 6.40625 26.09375 
Q 6.40625 34.40625 9.09375 40.59375 
Q 11.796875 46.796875 16.796875 50.09375 
Q 21.796875 53.40625 28.59375 53.40625 
z
M 28.59375 48.5 
Q 21 48.5 16.796875 42.796875 
Q 12.59375 37.09375 12.59375 26.09375 
Q 12.59375 15.203125 16.75 9.5 
Q 20.90625 3.796875 28.5 3.796875 
Q 36.09375 3.796875 40.34375 9.5 
Q 44.59375 15.203125 44.59375 26.296875 
Q 44.59375 37.203125 40.4375 42.84375 
Q 36.296875 48.5 28.59375 48.5 
z
" id="FiraSans-Light-6f"/>
       <path d="M 28.5 53.40625 
Q 33 53.40625 36.5 52.15625 
Q 40 50.90625 43.296875 48.09375 
L 40.40625 44.296875 
Q 37.796875 46.40625 35.046875 47.40625 
Q 32.296875 48.40625 28.796875 48.40625 
Q 21.40625 48.40625 17 42.65625 
Q 12.59375 36.90625 12.59375 25.90625 
Q 12.59375 15 16.9375 9.5 
Q 21.296875 4 28.703125 4 
Q 32.203125 4 35.046875 5.09375 
Q 37.90625 6.203125 40.796875 8.40625 
L 43.59375 4.5 
Q 37 -1.09375 28.59375 -1.09375 
Q 21.90625 -1.09375 16.90625 2.09375 
Q 11.90625 5.296875 9.15625 11.34375 
Q 6.40625 17.40625 6.40625 25.796875 
Q 6.40625 34.09375 9.15625 40.34375 
Q 11.90625 46.59375 16.90625 50 
Q 21.90625 53.40625 28.5 53.40625 
z
" id="FiraSans-Light-63"/>
       <path d="M 16.40625 0 
L 10.59375 0 
L 10.59375 73.59375 
L 16.40625 74.296875 
z
M 23.703125 28.90625 
L 48 0 
L 41 0 
L 17 28.59375 
L 39 52.296875 
L 45.703125 52.296875 
z
" id="FiraSans-Light-6b"/>
      </defs>
      <g transform="translate(325.568094 188.331938)scale(0.1 -0.1)">
       <use xlink:href="#FiraSans-Light-53"/>
       <use x="53.899994" xlink:href="#FiraSans-Light-68"/>
       <use x="112.299988" xlink:href="#FiraSans-Light-6f"/>
       <use x="169.399979" xlink:href="#FiraSans-Light-63"/>
       <use x="216.299973" xlink:href="#FiraSans-Light-6b"/>
      </g>
      <!-- probability -->
      <defs>
       <path d="M 32.203125 53.40625 
Q 41.703125 53.40625 46.453125 46.34375 
Q 51.203125 39.296875 51.203125 26.40625 
Q 51.203125 13.796875 46.046875 6.34375 
Q 40.90625 -1.09375 31.296875 -1.09375 
Q 26.59375 -1.09375 22.796875 0.84375 
Q 19 2.796875 16.40625 6.09375 
L 16.40625 -19.703125 
L 10.59375 -20.5 
L 10.59375 52.296875 
L 15.59375 52.296875 
L 16.09375 44.703125 
Q 19 48.796875 23.09375 51.09375 
Q 27.203125 53.40625 32.203125 53.40625 
z
M 30.203125 3.796875 
Q 37.40625 3.796875 41.203125 9.5 
Q 45 15.203125 45 26.40625 
Q 45 48.59375 31.09375 48.59375 
Q 26.40625 48.59375 22.953125 46.1875 
Q 19.5 43.796875 16.40625 39.59375 
L 16.40625 11.796875 
Q 18.90625 8 22.40625 5.890625 
Q 25.90625 3.796875 30.203125 3.796875 
z
" id="FiraSans-Light-70"/>
       <path d="M 32.09375 53.40625 
Q 41.203125 53.40625 46.203125 46.40625 
Q 51.203125 39.40625 51.203125 26.40625 
Q 51.203125 13.703125 45.953125 6.296875 
Q 40.703125 -1.09375 31.296875 -1.09375 
Q 26.59375 -1.09375 22.75 1 
Q 18.90625 3.09375 16.203125 6.59375 
L 15.703125 0 
L 10.59375 0 
L 10.59375 73.59375 
L 16.40625 74.296875 
L 16.40625 45 
Q 22.5 53.40625 32.09375 53.40625 
z
M 30.203125 3.703125 
Q 37.296875 3.703125 41.140625 9.453125 
Q 45 15.203125 45 26.40625 
Q 45 48.59375 30.90625 48.59375 
Q 26.296875 48.59375 22.890625 46.25 
Q 19.5 43.90625 16.40625 39.59375 
L 16.40625 12 
Q 18.90625 8.09375 22.40625 5.890625 
Q 25.90625 3.703125 30.203125 3.703125 
z
" id="FiraSans-Light-62"/>
       <path d="M 16.40625 0 
L 10.59375 0 
L 10.59375 52.296875 
L 16.40625 52.296875 
z
M 13.40625 75.296875 
Q 15.40625 75.296875 16.59375 74.09375 
Q 17.796875 72.90625 17.796875 71.09375 
Q 17.796875 69.296875 16.59375 68.09375 
Q 15.40625 66.90625 13.40625 66.90625 
Q 11.5 66.90625 10.296875 68.09375 
Q 9.109375 69.296875 9.109375 71.09375 
Q 9.109375 72.90625 10.296875 74.09375 
Q 11.5 75.296875 13.40625 75.296875 
z
" id="FiraSans-Light-69"/>
       <path d="M 27.296875 -0.203125 
Q 25.203125 -6.296875 22.703125 -10.1875 
Q 20.203125 -14.09375 16.203125 -16.640625 
Q 12.203125 -19.203125 5.90625 -20.40625 
L 5.296875 -15.90625 
Q 10.5 -14.59375 13.453125 -12.6875 
Q 16.40625 -10.796875 18.15625 -7.9375 
Q 19.90625 -5.09375 21.703125 0 
L 19.703125 0 
L 1.5 52.296875 
L 7.796875 52.296875 
L 23.59375 4.296875 
L 39.09375 52.296875 
L 45.203125 52.296875 
z
" id="FiraSans-Light-79"/>
      </defs>
      <g transform="translate(314.545437 199.417563)scale(0.1 -0.1)">
       <use xlink:href="#FiraSans-Light-70"/>
       <use x="58.099991" xlink:href="#FiraSans-Light-72"/>
       <use x="95.399979" xlink:href="#FiraSans-Light-6f"/>
       <use x="152.499969" xlink:href="#FiraSans-Light-62"/>
       <use x="210.59996" xlink:href="#FiraSans-Light-61"/>
       <use x="264.199951" xlink:href="#FiraSans-Light-62"/>
       <use x="322.299942" xlink:href="#FiraSans-Light-69"/>
       <use x="349.299927" xlink:href="#FiraSans-Light-6c"/>
       <use x="377.699921" xlink:href="#FiraSans-Light-69"/>
       <use x="404.699905" xlink:href="#FiraSans-Light-74"/>
       <use x="438.799896" xlink:href="#FiraSans-Light-79"/>
      </g>
     </g>
    </g>
    <g id="xtick_6">
     <g id="line2d_13">
      <g>
       <use style="stroke:#000000;stroke-width:0.8;" x="392.061187" xlink:href="#m85c278e579" y="173.90225"/>
      </g>
     </g>
     <g id="text_15">
      <!-- Variance -->
      <defs>
       <path d="M 30.703125 0 
L 24 0 
L 1.59375 68.5 
L 8.09375 68.5 
L 27.40625 6.203125 
L 46.796875 68.5 
L 53 68.5 
z
" id="FiraSans-Light-56"/>
      </defs>
      <g transform="translate(372.801812 188.331938)scale(0.1 -0.1)">
       <use xlink:href="#FiraSans-Light-56"/>
       <use x="54.599991" xlink:href="#FiraSans-Light-61"/>
       <use x="108.199982" xlink:href="#FiraSans-Light-72"/>
       <use x="145.499969" xlink:href="#FiraSans-Light-69"/>
       <use x="172.499954" xlink:href="#FiraSans-Light-61"/>
       <use x="226.099945" xlink:href="#FiraSans-Light-6e"/>
       <use x="284.499939" xlink:href="#FiraSans-Light-63"/>
       <use x="331.399933" xlink:href="#FiraSans-Light-65"/>
      </g>
     </g>
    </g>
   </g>
   <g id="matplotlib.axis_4">
    <g id="ytick_6">
     <g id="line2d_14">
      <g>
       <use style="stroke:#000000;stroke-width:0.8;" x="312.20475" xlink:href="#m3fba935598" y="173.90225"/>
      </g>
     </g>
     <g id="text_16">
      <!-- −1.0 -->
      <g transform="translate(288.575063 177.617094)scale(0.1 -0.1)">
       <use xlink:href="#FiraSans-Light-2212"/>
       <use x="49.299988" xlink:href="#FiraSans-Light-31"/>
       <use x="90.599976" xlink:href="#FiraSans-Light-2e"/>
       <use x="111.299973" xlink:href="#FiraSans-Light-30"/>
      </g>
     </g>
    </g>
    <g id="ytick_7">
     <g id="line2d_15">
      <g>
       <use style="stroke:#000000;stroke-width:0.8;" x="312.20475" xlink:href="#m3fba935598" y="144.629641"/>
      </g>
     </g>
     <g id="text_17">
      <!-- −0.5 -->
      <g transform="translate(287.834437 148.344485)scale(0.1 -0.1)">
       <use xlink:href="#FiraSans-Light-2212"/>
       <use x="49.299988" xlink:href="#FiraSans-Light-30"/>
       <use x="104.299973" xlink:href="#FiraSans-Light-2e"/>
       <use x="124.999969" xlink:href="#FiraSans-Light-35"/>
      </g>
     </g>
    </g>
    <g id="ytick_8">
     <g id="line2d_16">
      <g>
       <use style="stroke:#000000;stroke-width:0.8;" x="312.20475" xlink:href="#m3fba935598" y="115.357033"/>
      </g>
     </g>
     <g id="text_18">
      <!-- 0.0 -->
      <g transform="translate(292.134437 119.071876)scale(0.1 -0.1)">
       <use xlink:href="#FiraSans-Light-30"/>
       <use x="54.999985" xlink:href="#FiraSans-Light-2e"/>
       <use x="75.699982" xlink:href="#FiraSans-Light-30"/>
      </g>
     </g>
    </g>
    <g id="ytick_9">
     <g id="line2d_17">
      <g>
       <use style="stroke:#000000;stroke-width:0.8;" x="312.20475" xlink:href="#m3fba935598" y="86.084424"/>
      </g>
     </g>
     <g id="text_19">
      <!-- 0.5 -->
      <g transform="translate(292.764125 89.799268)scale(0.1 -0.1)">
       <use xlink:href="#FiraSans-Light-30"/>
       <use x="54.999985" xlink:href="#FiraSans-Light-2e"/>
       <use x="75.699982" xlink:href="#FiraSans-Light-35"/>
      </g>
     </g>
    </g>
    <g id="ytick_10">
     <g id="line2d_18">
      <g>
       <use style="stroke:#000000;stroke-width:0.8;" x="312.20475" xlink:href="#m3fba935598" y="56.811815"/>
      </g>
     </g>
     <g id="text_20">
      <!-- 1.0 -->
      <g transform="translate(293.50475 60.526659)scale(0.1 -0.1)">
       <use xlink:href="#FiraSans-Light-31"/>
       <use x="41.299988" xlink:href="#FiraSans-Light-2e"/>
       <use x="61.999985" xlink:href="#FiraSans-Light-30"/>
      </g>
     </g>
    </g>
   </g>
   <g id="LineCollection_3">
    <path clip-path="url(#pd61a222a66)" d="M 333.4998 140.63292 
L 333.4998 105.250531 
" style="fill:none;stroke:#267fd3;stroke-width:1.5;"/>
    <path clip-path="url(#pd61a222a66)" d="M 386.737425 150.66516 
L 386.737425 114.197312 
" style="fill:none;stroke:#267fd3;stroke-width:1.5;"/>
   </g>
   <g id="LineCollection_4">
    <path clip-path="url(#pd61a222a66)" d="M 344.147325 143.045024 
L 344.147325 106.301247 
" style="fill:none;stroke:#e88300;stroke-width:1.5;"/>
    <path clip-path="url(#pd61a222a66)" d="M 397.38495 138.499071 
L 397.38495 101.735585 
" style="fill:none;stroke:#e88300;stroke-width:1.5;"/>
   </g>
   <g id="line2d_19">
    <path clip-path="url(#pd61a222a66)" d="M 312.20475 115.357033 
L 418.68 115.357033 
" style="fill:none;stroke:#808080;stroke-dasharray:1.5,2.475;stroke-dashoffset:0;stroke-width:1.5;"/>
   </g>
   <g id="line2d_20">
    <path clip-path="url(#pd61a222a66)" d="M 312.20475 115.357033 
L 418.68 115.357033 
" style="fill:none;stroke:#808080;stroke-dasharray:1.5,2.475;stroke-dashoffset:0;stroke-width:1.5;"/>
   </g>
   <g id="patch_7">
    <path d="M 312.20475 173.90225 
L 418.68 173.90225 
" style="fill:none;stroke:#000000;stroke-linecap:square;stroke-linejoin:miter;stroke-width:0.8;"/>
   </g>
   <g id="text_21">
    <!-- VALUE &amp; -->
    <defs>
     <path d="M 55.09375 21.40625 
Q 55.09375 11.203125 49.296875 5.046875 
Q 43.5 -1.09375 32.59375 -1.09375 
Q 21.59375 -1.09375 15.84375 5 
Q 10.09375 11.09375 10.09375 21.40625 
L 10.09375 68.5 
L 16.09375 68.5 
L 16.09375 21.90625 
Q 16.09375 13.296875 20.140625 8.6875 
Q 24.203125 4.09375 32.59375 4.09375 
Q 41 4.09375 45 8.75 
Q 49 13.40625 49 21.90625 
L 49 68.5 
L 55.09375 68.5 
z
" id="FiraSans-Light-55"/>
     <path d="M 30.09375 69.59375 
Q 37.40625 69.59375 42.046875 65.4375 
Q 46.703125 61.296875 46.703125 54.796875 
Q 46.703125 49.09375 42.953125 44.890625 
Q 39.203125 40.703125 31.40625 36.40625 
L 51.90625 17.203125 
Q 56.296875 26.203125 58.5 36.203125 
L 64 34.59375 
Q 60.796875 22.59375 55.5 13.703125 
L 67.90625 2.296875 
L 63.59375 -1.09375 
L 52.40625 9.40625 
Q 48.09375 4.296875 42.75 1.59375 
Q 37.40625 -1.09375 30 -1.09375 
Q 24.09375 -1.09375 19.296875 1.15625 
Q 14.5 3.40625 11.75 7.546875 
Q 9 11.703125 9 17.09375 
Q 9 23.5 12.59375 28.140625 
Q 16.203125 32.796875 23.40625 37 
Q 17.90625 42.203125 15.59375 45.84375 
Q 13.296875 49.5 13.296875 54.40625 
Q 13.296875 61 17.890625 65.296875 
Q 22.5 69.59375 30.09375 69.59375 
z
M 30.09375 65.09375 
Q 25.09375 65.09375 22.09375 62.046875 
Q 19.09375 59 19.09375 54.5 
Q 19.09375 50.703125 20.9375 47.640625 
Q 22.796875 44.59375 28 39.59375 
Q 34.703125 43.296875 37.84375 46.75 
Q 41 50.203125 41 54.59375 
Q 41 59.5 37.953125 62.296875 
Q 34.90625 65.09375 30.09375 65.09375 
z
M 26.90625 33.796875 
Q 20.90625 30.203125 17.953125 26.25 
Q 15 22.296875 15 17.296875 
Q 15 11.203125 19.34375 7.453125 
Q 23.703125 3.703125 30.5 3.703125 
Q 36.5 3.703125 40.796875 5.953125 
Q 45.09375 8.203125 48.796875 12.703125 
L 26.90625 33.796875 
z
" id="FiraSans-Light-26"/>
    </defs>
    <g transform="translate(342.798 20.0895)scale(0.12 -0.12)">
     <use xlink:href="#FiraSans-Light-56"/>
     <use x="54.599991" xlink:href="#FiraSans-Light-41"/>
     <use x="111.099976" xlink:href="#FiraSans-Light-4c"/>
     <use x="158.799973" xlink:href="#FiraSans-Light-55"/>
     <use x="223.999969" xlink:href="#FiraSans-Light-45"/>
     <use x="275.199966" xlink:href="#FiraSans-Light-20"/>
     <use x="303.09996" xlink:href="#FiraSans-Light-26"/>
    </g>
    <!-- UNCERTAINTY -->
    <g transform="translate(329.382375 33.24825)scale(0.12 -0.12)">
     <use xlink:href="#FiraSans-Light-55"/>
     <use x="65.199997" xlink:href="#FiraSans-Light-4e"/>
     <use x="132.499985" xlink:href="#FiraSans-Light-43"/>
     <use x="187.499969" xlink:href="#FiraSans-Light-45"/>
     <use x="238.699966" xlink:href="#FiraSans-Light-52"/>
     <use x="297.699951" xlink:href="#FiraSans-Light-54"/>
     <use x="347.199936" xlink:href="#FiraSans-Light-41"/>
     <use x="403.699921" xlink:href="#FiraSans-Light-49"/>
     <use x="431.899918" xlink:href="#FiraSans-Light-4e"/>
     <use x="499.199905" xlink:href="#FiraSans-Light-54"/>
     <use x="548.69989" xlink:href="#FiraSans-Light-59"/>
    </g>
   </g>
  </g>
 </g>
 <defs>
  <clipPath id="pcb9238b425">
   <rect height="134.654" width="212.9505" x="61.56425" y="39.24825"/>
  </clipPath>
  <clipPath id="pd61a222a66">
   <rect height="134.654" width="106.47525" x="312.20475" y="39.24825"/>
  </clipPath>
 </defs>
</svg>
